<?xml version="1.0" encoding="UTF-8" standalone="no"?>
<!-- Created with Inkscape (http://www.inkscape.org/) -->

<svg
   xmlns:dc="http://purl.org/dc/elements/1.1/"
   xmlns:cc="http://creativecommons.org/ns#"
   xmlns:rdf="http://www.w3.org/1999/02/22-rdf-syntax-ns#"
   xmlns:svg="http://www.w3.org/2000/svg"
   xmlns="http://www.w3.org/2000/svg"
   xmlns:sodipodi="http://sodipodi.sourceforge.net/DTD/sodipodi-0.dtd"
   xmlns:inkscape="http://www.inkscape.org/namespaces/inkscape"
   width="64px"
   height="64px"
   viewBox="0 0 64 64"
   version="1.1"
   id="SVGRoot"
   inkscape:version="0.92.1 r15371"
   sodipodi:docname="logo.svg">
  <sodipodi:namedview
     id="base"
     pagecolor="#ffffff"
     bordercolor="#666666"
     borderopacity="1.0"
     inkscape:pageopacity="0.0"
     inkscape:pageshadow="2"
     inkscape:zoom="5.6568542"
     inkscape:cx="28.173529"
     inkscape:cy="30.732665"
     inkscape:document-units="px"
     inkscape:current-layer="layer1"
     showgrid="false"
     inkscape:window-width="1360"
     inkscape:window-height="739"
     inkscape:window-x="1920"
     inkscape:window-y="0"
     inkscape:window-maximized="1"
     inkscape:grid-bbox="true" />
  <defs
     id="defs4570" />
  <metadata
     id="metadata4573">
    <rdf:RDF>
      <cc:Work
         rdf:about="">
        <dc:format>image/svg+xml</dc:format>
        <dc:type
           rdf:resource="http://purl.org/dc/dcmitype/StillImage" />
        <dc:title></dc:title>
      </cc:Work>
    </rdf:RDF>
  </metadata>
  <g
     id="layer1"
     inkscape:groupmode="layer"
     inkscape:label="Layer 1">
    <rect
       style="color:#000000;clip-rule:nonzero;display:inline;overflow:visible;visibility:visible;opacity:1;isolation:auto;mix-blend-mode:normal;color-interpolation:sRGB;color-interpolation-filters:linearRGB;solid-color:#000000;solid-opacity:1;fill:#000000;fill-opacity:1;fill-rule:evenodd;stroke:#000000;stroke-width:0.25714242;stroke-linecap:butt;stroke-linejoin:miter;stroke-miterlimit:4;stroke-dasharray:none;stroke-dashoffset:0;stroke-opacity:1;marker:none;marker-start:none;marker-mid:none;marker-end:none;color-rendering:auto;image-rendering:auto;shape-rendering:auto;text-rendering:auto;enable-background:accumulate"
       id="rect4409-6"
       width="63.740177"
       height="63.723824"
       x="0.15688701"
       y="0.15598303"
       rx="0"
       ry="0" />
    <path
       style="font-style:normal;font-variant:normal;font-weight:normal;font-stretch:normal;font-size:medium;line-height:125%;font-family:'Cocaine Sans';-inkscape-font-specification:'Cocaine Sans';letter-spacing:0px;word-spacing:0px;fill:#ffffff;fill-opacity:1;stroke:none;stroke-width:0.25714242px;stroke-linecap:butt;stroke-linejoin:miter;stroke-opacity:1"
       d="m 23.589477,-0.26963325 c 0,0.12926377 -0.654243,0.21986677 -1.963266,0.27156559 v 0.31020429 l 1.585585,-0.15529571 h 2.492167 V -0.11433755 H 24.269225 Z M 12.41252,-0.11433755 4.5207098,0.00193234 H 0.14050766 V 0.31213663 L 0.29135497,0.46703417 2.2549956,0.31213663 H 2.5194492 L 2.6702965,0.15684092 2.7835261,0.31213663 H 6.3707462 L 6.4839767,0.15684092 6.6351999,0.31213663 H 18.076608 V 0.00193234 L 17.54808,-0.11433755 16.075347,0.00193234 Z m 16.463363,0.11626989 v 0.31020429 h 0.921258 l -0.09029,0.11626989 v 0.15490869 l 0.150847,0.19392326 0.642134,-0.19392326 2.529788,0.19392326 h 1.434738 l 1.133044,0.19391222 0.150845,-0.19391222 0.642134,0.19391222 h 2.718627 V 0.58331521 h -1.13267 l -0.15122,0.19392326 C 37.527368,0.55193092 36.447195,0.39714398 34.588503,0.31213663 h 0.102694 V 0.00193234 h -2.530159 v 0.2449144 c -0.25282,-0.003323 -0.523446,-0.00553 -0.792979,-0.006634 v -0.2379594 h -2.492173 z m 7.778582,0 v 0.31020429 h 1.321884 V 0.00193234 Z m 2.756623,0.15490858 v 0.31019325 h 2.529789 V 0.15684092 Z m 2.794239,0 v 0.31019325 h 2.228094 V 0.15684092 Z m 2.756624,0 v 0.31019325 h 1.321507 V 0.15684092 Z m 2.90747,0 v 0.31019325 h 2.756621 V 0.15684092 Z m -8.458333,0.42647429 v 0.38783548 h 1.92565 V 0.58331521 Z M 25.401892,0.77723847 24.910983,1.3203696 c 0,0.9823229 1.170849,3.3990211 3.511987,7.2507801 0.226564,0 0.339688,-0.1808406 0.339688,-0.5427553 0.981766,0 1.774775,-0.5428871 2.378939,-1.628619 V 6.0509546 c 0,-0.2326615 -0.163651,-0.3492189 -0.49091,-0.3492189 l 0.302069,-0.3874485 c 0,-0.3102153 -0.51585,-0.6076028 -1.547965,-0.8919631 V 3.4917444 C 28.649586,1.9148459 27.95726,1.1264463 27.327919,1.1264463 H 25.74196 Z M 41.638807,4.2284008 v 0.1939233 c 0,0.4394569 0.855978,0.9176964 2.567781,1.4347072 V 6.2448668 H 44.50866 V 5.8570313 L 42.771851,4.5772327 42.280938,4.771156 Z M 54.893012,4.4223241 54.552948,4.771156 v 0.1939122 h 0.18884 L 55.043861,4.5772327 V 4.4223241 Z m 7.325286,0.6980398 -0.302068,0.3878355 h 0.151228 L 62.369525,5.1203639 Z M 42.84746,5.663108 42.583008,5.9346736 v 0.1549087 h 0.150848 L 42.998308,5.8184037 V 5.663108 Z M 61.42532,5.8570313 57.913711,8.9589857 H 58.70669 V 9.152909 c -0.427949,0.051757 -0.642133,0.2325394 -0.642133,0.5427437 1.384543,-0.5170105 2.076874,-1.072682 2.076874,-1.6672583 0,-0.2843489 0.478516,-0.9434182 1.435117,-1.9774398 V 5.8570313 Z m 2.496313,0.5099112 -0.268221,0.2267563 c -1.057288,0.672118 -1.963803,1.6417343 -2.719002,2.908418 h 0.188843 c 0.478288,0 1.220771,-0.4913887 2.227716,-1.4737224 V 7.8734971 L 63.162502,7.6795739 63.921633,7.1051579 Z M 44.848722,6.399787 45.301635,7.3303769 45.6417,6.9429179 45.15079,6.399787 Z m 15.292709,0 -0.302067,0.3878462 v 0.1552847 h 0.151216 l 0.302068,-0.349208 V 6.3997866 Z m -3.662834,0.9305899 -0.302068,0.349208 h 0.151219 l 0.302073,-0.349208 z m 1.28389,0 c -0.57899,0 -0.956454,0.2327169 -1.132666,0.6980295 0.578991,0 0.956454,-0.2327168 1.132666,-0.6980295 z M 39.902001,7.4856612 39.411088,8.028406 v 0.1939232 h 0.340063 L 40.053222,7.8735088 V 7.6795845 Z m 14.34888,0.1939233 c -1.208332,0.7238179 -2.00134,1.0854885 -2.378942,1.0854885 -0.302083,0.4136137 -0.994413,0.905012 -2.076872,1.473722 0.07552,0.361914 0.390385,0.542745 0.944205,0.542745 0.201388,0 0.30207,-0.362059 0.30207,-1.0858757 l 0.981821,0.3492077 h 0.49091 C 52.614772,9.3210544 52.8791,8.9589963 53.307054,8.9589963 V 8.765073 L 53.11821,8.5711614 54.250881,8.028406 Z m 0.79298,0.5427447 -0.943832,0.7366671 0.302073,0.3492196 h 0.150846 c 0.226559,0 0.340064,-0.1812281 0.340064,-0.5431429 0.427951,0 0.641757,-0.1161588 0.641757,-0.3488205 V 8.2223292 L 55.383548,8.4162525 H 55.195082 Z M 44.206588,8.4162525 c -0.578992,0 -0.956454,0.2455001 -1.132668,0.7366671 l 0.339686,0.3492078 h 0.642132 L 44.50866,8.9589963 V 8.765073 Z M 36.239165,8.5711614 35.89948,8.9589963 v 0.3492196 h 0.188841 L 36.39039,8.9589963 V 8.5711614 Z M 55.836838,8.765073 c -1.862839,0.9564795 -3.297647,2.042267 -4.304588,3.257262 v 0.193911 l 0.150848,0.930592 -0.150848,0.155295 v 0.193913 h 0.150848 l 0.49091,-0.349208 h 0.340065 l -0.340065,1.434707 0.792979,-0.891576 h 0.151223 l 0.188844,0.154908 c 0,-0.361914 0.100679,-0.542744 0.302069,-0.542744 h 0.943825 v 0.193913 l -0.452919,0.736667 h 0.150852 c 0.654511,-0.723818 1.133026,-1.085875 1.435111,-1.085875 h 0.490537 v 0.155295 h -0.188465 l -0.792982,0.542744 v 0.387836 c 1.258675,-0.723818 2.114284,-1.085875 2.567405,-1.085875 h 0.151224 v 0.155295 l -0.151224,0.193913 h 0.30207 l 0.188842,-0.193913 v 0.193913 l 5.668234,-0.440762 V 12.565466 H 63.162502 L 63.011275,12.41017 v 0.155296 l -0.943817,-0.34922 H 61.91623 l -0.188843,0.193924 -0.604134,-0.193924 0.302067,-0.34882 v -0.193923 l -0.150851,-0.193924 -0.792978,0.930591 -0.792976,-0.193924 -0.188844,0.542756 H 58.70669 l -0.30207,-0.891576 c 0.07552,-0.387759 0.654347,-0.879157 1.736811,-1.473723 l 0.981822,0.193923 0.453295,-0.193923 c 0,-0.23265 -0.314872,-0.348831 -0.944206,-0.348831 V 9.8509596 l 0.151217,-0.1552953 c -0.629334,0 -1.686679,0.5428987 -3.171917,1.6286297 V 11.130372 H 57.271577 V 10.936835 L 57.4228,10.78154 v -0.193914 l -0.792979,0.542746 -0.151224,-0.193537 h -0.490533 l -0.151226,0.193537 c 0,-0.33606 -0.15121,-0.69773 -0.45329,-1.0855 0.453124,0 0.767988,-0.2455009 0.9442,-0.7366561 h -0.339684 l -0.453295,0.3874484 h -0.151221 c 0,-0.3619031 0.15121,-0.5427447 0.45329,-0.5427447 z m 1.774804,0.3878466 c -0.427952,0 -0.755259,0.2327284 -0.981821,0.69804 V 10.044872 C 57.28433,9.7605223 57.611642,9.5150222 57.611642,9.3082159 Z M 44.055738,9.6956643 43.715675,10.044872 v 0.193923 h 0.490913 l 0.151223,-0.193923 z m 2.529791,0 -0.150848,0.1552953 0.302072,0.3878354 h 0.188836 l 0.15085,-0.193923 -0.339686,-0.3492077 z m -17.520801,0.3492077 0.188838,0.891963 h 0.302072 v -0.891963 z m 19.93736,0.348831 c -0.654513,0.129254 -0.981446,0.310471 -0.981446,0.543132 l 0.339686,0.736668 v 0.193923 c 0.251735,0 0.616756,-0.310172 1.095052,-0.930591 h 0.150845 l -0.302068,0.542744 h 0.49091 v -1.085876 l -0.49091,0.193923 H 49.153309 Z M 6.8616566,10.703897 v 0.310205 l 0.5289041,0.155283 v 0.116282 l -0.1136053,0.155285 v 1.31805 h 0.2268327 l -0.2268327,0.271565 0.1136053,0.581759 -0.2644504,3.179608 0.1508451,0.154898 -0.9062092,0.116656 v 0.310204 l 0.7553641,0.154909 h 0.1508451 l 0.1136053,-0.154909 0.1132274,0.736668 v 0.426463 l -0.2268327,0.85295 0.2268327,6.940962 H 7.7678648 L 7.919089,24.896039 V 24.469565 L 7.7678648,19.234864 V 19.118582 H 7.919089 c 0,0.775516 0.1259443,1.163142 0.3776799,1.163142 v 2.016466 l -0.1132295,0.11627 h 0.1132295 l 0.1508473,0.154908 -0.2640768,3.916652 c 0,0.180951 0.4404368,0.271178 1.3215095,0.271178 v 0.155295 H 8.5608468 C 8.2084156,27.455359 8.0323185,27.933588 8.0323185,28.34719 l 0.2644526,0.465113 C 9.001628,29.019099 9.353826,29.39394 9.353826,29.936806 l 0.1512229,-0.116281 h 0.5285281 v 0.116281 H 9.6182782 V 30.247 l 0.1508469,0.155295 H 8.4476162 v 0.271565 l 0.3776831,0.154909 0.9438258,-0.310204 0.5289049,0.426474 h 2.11449 l 0.113224,-0.11627 0.151223,0.11627 h 0.906212 V 30.67386 h 0.150845 v 0.271179 l -0.150845,0.155296 h 0.679749 l 0.754988,-0.155296 0.415299,0.155296 h 0.113229 l -0.113229,-0.69804 v -4.226469 l 0.264452,-2.714506 c -0.151044,0 -0.239279,-0.2455 -0.264452,-0.736667 v -3.179596 l 0.377681,-3.179608 -3.285152,-2.171763 v -0.581371 h 0.415302 C 12.764831,13.379653 12.676967,13.04354 12.676967,12.604082 h -0.151223 c -0.176212,0 -0.264452,0.142114 -0.264452,0.426475 H 12.148067 L 11.99722,12.875648 h -0.113233 l 0.113233,0.736667 v 0.271179 L 9.8827325,12.875648 7.2769554,10.703887 Z m 32.3985844,0.07764 -0.30207,0.348831 h 0.452917 v -0.193539 z m 11.969938,0 -0.98182,0.542754 V 11.6735 l 1.132668,-0.543132 v -0.193539 z m -45.2747305,0.07764 -0.1132327,0.154909 0.1132327,0.42685 -0.5285305,0.154909 v 0.155285 h 0.2640769 v 0.116281 H 5.5777653 l -0.943826,-0.42649 H 4.105411 l -0.2644526,0.310193 c 0,0.284359 0.7047697,0.426474 2.1144901,0.426474 0.2769068,0 0.4152977,-0.103398 0.4152977,-0.310193 V 11.169352 L 6.1066694,10.85916 Z m 38.5532115,0.07764 v 0.193536 c 0,0.232662 0.163653,0.349207 0.490907,0.349207 v 0.387847 l -0.641756,0.154909 v 0.193912 l 0.150849,0.193924 1.435111,-0.387836 v -0.348832 z m 8.156257,0.387459 v 0.155284 l -0.339685,0.387833 h -0.302069 c 0,-0.180963 0.213805,-0.362179 0.641754,-0.543131 z m -51.0516771,0.27154 c -0.88107236,0 -1.32188493,0.142114 -1.32188493,0.426474 v 0.155285 L 0.40458227,12.293856 2.7835261,12.02229 V 11.751101 L 2.6702965,11.595816 1.7264673,11.867381 v -0.11628 z m 56.4513171,0.271565 h 0.188842 v 0.348822 c -0.100699,0.361914 -0.428007,0.542754 -0.981822,0.542754 v -0.34883 z m -8.26949,0.154909 -0.339687,0.387837 h 0.150845 l 0.340066,-0.387837 z m -2.718628,0.387837 c -0.402775,0 -0.830768,0.245499 -1.283893,0.736667 0.453125,0.827226 0.830965,1.240783 1.133043,1.240783 0.830733,-0.180951 1.2459,-0.59451 1.2459,-1.240783 h 0.339687 v -0.387837 l -0.943827,-0.34883 z m -21.749778,0.193922 -0.415678,0.426474 v 0.310193 h 0.151225 l 0.528528,-0.310193 v -0.154908 z m 15.217095,0.542745 c -0.93142,0.956478 -1.736875,1.434706 -2.416562,1.434706 h -2.038873 v -0.348832 c -0.427951,0 -0.642134,-0.18083 -0.642134,-0.542744 h -0.339689 l -0.151224,0.697653 0.151224,0.193923 v 0.193913 l -0.302072,-0.387836 c -0.226558,0 -0.340059,0.181218 -0.340059,0.543131 h -0.452918 l -1.283889,0.542744 h -0.151227 l -0.18846,-0.155284 c -0.302086,0 -0.453295,0.116557 -0.453295,0.349208 V 15.8613 h 0.302072 l -0.453295,0.542743 H 30.80191 v 0.34882 h 0.792979 c -0.05035,0.853083 -0.201556,1.2798 -0.453292,1.2798 l 0.453292,5.273716 -0.302069,1.822166 0.150845,0.698029 v 1.855774 l -1.774798,-1.041453 c 0,-1.499344 -0.264337,-2.32646 -0.792984,-2.481567 h -0.113225 l -0.150849,0.154909 v -0.736669 h -0.264451 l -0.11323,0.155285 v 0.154908 l 0.11323,0.116271 -2.091166,-1.139189 0.731663,-0.64434 V 22.02658 l -0.150848,-0.193913 -0.79298,0.387836 0.150849,0.154909 -0.150849,0.193923 v 0.179624 l -1.39712,-0.761007 c -0.805551,-0.827225 -1.812366,-1.590057 -3.020696,-2.288031 h -0.113607 v 0.426474 l 1.28389,0.581759 v 0.116281 h -0.113229 c -0.125867,0 -0.264256,1.11173 -0.415297,3.334893 0,0.336059 -0.427991,0.865787 -1.283891,1.589615 0.427949,0 0.855941,-0.142124 1.283891,-0.426474 h 0.150845 l -0.150845,8.957429 0.26445,0.310194 h 0.150847 c 0,1.912957 -0.08824,2.869414 -0.264452,2.869414 -1.057284,3.283038 -2.202493,4.924508 -3.435997,4.924508 L 17.812155,41.95754 C 16.12553,40.923507 15.282367,39.475662 15.282367,37.614415 v -3.179608 l 0.264077,-1.163141 -0.264077,-0.426464 v -0.155295 h 0.4153 v -0.271179 l -1.057434,-0.581759 h -0.113229 l -0.150846,0.154897 c 0,-0.491155 -0.125947,-0.736667 -0.377684,-0.736667 l -0.26445,0.271566 H 13.583179 L 13.46995,31.410528 h -0.415675 c -0.176217,0 -0.264077,0.142114 -0.264077,0.426474 H 12.525744 L 12.41252,31.681706 12.148067,31.9919 c -0.07552,-0.491157 -0.213911,-0.736668 -0.415301,-0.736668 h -0.264075 l -0.642133,0.426474 c 0,-0.284359 -0.08824,-0.426474 -0.264454,-0.426474 h -0.528527 c -0.1762171,0 -0.2644519,0.142115 -0.2644519,0.426474 H 9.6182782 c 0,-0.206806 -0.1760975,-0.40042 -0.5285306,-0.581371 H 8.9761467 c -0.2769089,0.07752 -0.5031612,0.413657 -0.6793756,1.008233 0,0.672118 0.2262499,1.007846 0.6793756,1.007846 v 0.155285 c -0.4782968,0 -0.8304965,0.142113 -1.0570577,0.426474 L 7.6546374,32.845236 c -0.1510421,0 -0.2769854,0.284215 -0.377682,0.852937 l 0.1136053,1.318426 v 1.163141 l 0.1132274,0.698041 -0.3776778,0.310192 0.5285271,1.744901 c 0,1.266684 1.1455812,3.192756 3.4363706,5.777833 0.352428,0.85307 1.497635,1.809526 3.435996,2.869403 v 0.154908 l -0.79298,1.008234 v 0.155295 h 0.37768 l 0.642137,-1.008232 3.171542,1.2794 2.907846,-0.271168 h 2.907469 l 0.641756,-0.155295 0.679754,0.155295 v 0.154898 l -0.151225,0.11627 v 0.155295 l 0.679753,0.116282 -0.150845,0.736667 c 0,0.33606 -0.478521,0.581947 -1.435116,0.737055 v 0.271178 h 1.170663 v 0.155284 h -0.264455 v 0.271179 l 0.151225,0.155296 -0.264453,0.581759 0.113228,0.154908 V 54.3658 l 0.264455,0.426464 v 0.891951 h 0.264453 l 0.150845,-0.154897 v 0.271178 l 0.377681,-0.116281 0.79298,0.271576 c 0,-0.180963 0.138391,-0.271576 0.4153,-0.271576 v -0.310194 h -0.264076 l -0.944204,0.155297 v -0.155297 l -0.113231,-0.154897 c 0.704862,-0.07752 1.057435,-0.220054 1.057435,-0.42686 v -0.11627 l -0.151224,-0.15491 0.151224,-0.155284 -0.415676,-0.426473 -0.641759,0.155284 v -0.310194 l 0.151221,-0.155284 h 0.03762 l 0.490911,-0.58177 v -0.348821 l -0.516114,0.592186 -0.163639,-0.359636 0.641758,-0.426474 v -0.310193 c -0.427946,0 -0.641758,-0.09057 -0.641758,-0.271565 v -0.154909 c 0.402777,0 0.667112,-0.194001 0.792982,-0.581759 v -0.154908 l -0.151226,-0.11627 c -0.251736,0 -0.377307,-0.103844 -0.377307,-0.310592 v -0.852937 h 0.264078 v -0.310193 h -0.264078 l 0.264078,-0.271577 2.605398,0.58177 h 0.151226 l 0.113227,-0.154909 c 1.535584,0.206808 2.466984,0.452307 2.79424,0.736668 h 0.113229 l 0.67975,-0.155285 -0.150844,0.155285 c 0,0.206807 0.490589,0.34892 1.472354,0.426474 v -0.155296 c 0,-0.361903 -2.152022,-0.982244 -6.456695,-1.86117 v -0.154909 l 0.906207,-0.11627 h 0.792984 c 0,-0.28436 0.213804,-0.426861 0.641755,-0.426861 h 1.602513 c 0.115878,0.566884 0.423396,0.853335 0.927274,0.853335 h 2.228093 l 0.45292,-0.543142 v -0.542744 l -0.452919,-1.085488 h 0.302072 v -0.349208 l -1.283889,-0.193923 v -0.193923 c 0.830725,0 1.30887,-0.232341 1.434737,-0.697654 0,-0.827225 -0.201365,-2.1589 -0.60414,-3.994305 l 0.792981,-7.095871 v -1.279411 l 0.151223,-0.193924 -1.133044,-0.155284 v -0.193923 l 3.662828,-0.348832 h 0.188844 v -0.387836 h -0.641757 l -0.151225,0.193923 -0.188839,-0.193923 h -1.736807 v -1.91371 c 0.422684,-0.155616 0.641755,-0.318819 0.641755,-0.490215 l -0.641755,-0.581759 v -1.706273 l 0.943825,-0.193924 v -0.542743 h -0.641755 c 0,-0.232652 0.377462,-0.59472 1.132668,-1.085877 v -0.193923 l -0.150849,-0.193536 -1.283889,0.93059 h -0.151223 l -0.339689,-2.365297 0.490912,-0.737044 v -2.365296 l 0.30207,-0.736669 0.792978,0.58177 0.188841,-0.193924 h 1.585962 l 0.150845,0.193924 0.151224,-0.193924 h 3.058317 l 0.151221,2.171364 v 5.467639 l -0.792978,0.154909 v 0.387847 l 0.792978,-0.193923 v 3.799994 h -2.227718 v 0.387836 l 0.792606,0.154908 0.302069,-0.348821 0.642133,0.542745 h 0.339689 l 0.151221,-0.193924 0.641761,1.473722 -0.188845,1.279412 0.340067,4.537048 c -0.1007,4.317071 -0.365034,6.669487 -0.792983,7.057245 v 0.387459 l 0.150848,0.155285 h -0.150848 l 0.150848,2.365298 v 0.155284 h 0.302068 l 0.188845,-0.698029 0.792977,0.193913 h 2.719007 l 0.452916,-0.543131 c 0.327257,0 0.490909,-0.11617 0.490909,-0.348821 h 2.378942 V 47.812661 H 46.73675 l 0.188837,-0.891952 V 46.727173 L 46.73675,46.53325 47.869418,46.377965 h 0.302069 V 45.990119 H 47.71857 c -0.780379,0 -1.208372,-0.180842 -1.28389,-0.542745 v -1.434707 c -0.20139,-2.171464 -0.415572,-3.45125 -0.642136,-3.839009 l 0.340067,-0.348831 c 0.100689,-3.748352 0.251528,-5.622538 0.452916,-5.622538 L 46.73675,33.659545 46.585527,33.465621 46.73675,32.57367 h 0.188837 l 0.150849,0.155284 c 0.327256,0 0.490911,-0.232728 0.490911,-0.698039 h 0.151223 l 0.150848,0.154908 h 0.151221 l 0.150848,-0.154908 v 0.891963 h 0.339686 v -1.279799 l 0.642133,0.193923 h 0.150849 l 0.151223,-0.193923 v 0.193923 l 0.150846,-0.193923 1.926024,0.193923 0.641757,-0.193923 v -0.348832 l -0.79298,-0.193912 -0.943825,0.193912 h -0.98182 l -0.792983,-0.193912 -0.151221,0.193912 -0.150848,-0.193912 h -0.339686 l -0.30207,0.387836 -0.340061,-0.387836 -0.792982,0.387836 h -0.150848 v -2.21039 l 0.150848,-0.891953 -0.150848,-0.193923 c 0.251738,-0.594565 0.51607,-0.891564 0.792978,-0.891564 l -0.15122,-0.543143 c 0.956595,-0.723817 1.434737,-1.447547 1.434737,-2.171363 l -0.150848,-1.279423 c 0.427952,0 0.64176,-0.245887 0.64176,-0.737044 0.629335,-1.240839 0.944203,-2.145409 0.944203,-2.714119 h 0.490912 c 0,0.491157 0.264331,0.736668 0.792976,0.736668 0,0.594565 0.100689,0.891952 0.302071,0.891952 h 0.150848 v -0.543131 l -0.150848,-0.891565 0.150848,0.154899 0.830975,-0.154899 h 0.792981 l 0.150846,0.154899 -0.150846,1.279797 0.452916,0.193924 0.490911,-1.085876 0.490907,0.155285 c 0,0.491167 0.100678,0.736667 0.302073,0.736667 h 0.151221 v -1.279797 c 0.176215,0 0.440551,0.426727 0.792982,1.279797 v 3.799994 l 0.339684,0.387846 c 0.201388,0 0.365046,-0.362058 0.490913,-1.085874 v -0.193923 h -0.340064 l 0.490911,-3.993918 h 0.302069 v 1.434707 h 0.340065 v -1.240784 l 0.302069,-0.736668 0.339688,0.348823 0.151221,-0.154899 0.452919,0.154899 1.774803,-0.348823 V 19.661326 C 58.819845,19.480375 57.913711,19.118317 57.913711,18.57544 H 57.611642 L 57.4228,18.769363 57.271577,18.57544 c -0.201388,0 -0.302069,0.181228 -0.302069,0.543142 h -0.150847 v -0.193923 l 0.150847,-0.69804 v -0.736666 l -0.150847,-0.193924 c -0.226562,0 -0.340064,0.607568 -0.340064,1.822553 h -0.150849 v -0.349219 c -0.327254,0 -0.49091,-0.18083 -0.49091,-0.542744 h -0.302069 v 0.69804 h -0.151221 v -0.543131 h -0.339687 c 0,0.491167 -0.213811,0.801339 -0.641759,0.93058 v -0.193526 l -0.151221,-0.193923 c -0.427953,0.07752 -0.641758,0.258395 -0.641758,0.542744 l -0.642136,-0.155295 h -0.150846 l -0.151224,0.155295 -0.490909,-0.542744 v 0.542744 H 51.53225 V 18.57544 l 0.150848,-0.891565 -0.150848,-0.193922 v -0.193924 l 0.150848,-0.155285 -0.150848,-1.124515 0.490913,-1.085488 v -0.155296 l -0.340065,0.34922 -0.150848,-0.193924 -0.490908,0.193924 V 16.598 l -0.151226,0.891953 0.151226,0.542743 -0.30207,0.348832 0.150844,0.93058 v 0.155295 l -0.943825,-0.155295 h -0.151224 l 0.151224,-0.542745 v -0.542744 c -0.780379,0.775528 -1.522859,1.189085 -2.227719,1.240784 h -0.151223 l 0.302072,-0.69804 h 0.151221 l -0.151221,-0.542744 v -0.193923 l 0.151221,-0.193912 v -0.154909 l -0.151221,-0.193922 c -0.327257,0.07752 -0.541066,0.323064 -0.641762,0.736666 v 0.154909 l 0.150852,0.193912 h -0.150852 l -0.15122,0.193923 h -0.15085 V 18.57544 l 0.15085,-0.736656 v -0.154909 l -0.49091,0.154909 h -0.150848 l 0.94383,-1.085887 c -0.402778,0 -1.032133,0.426729 -1.888034,1.279799 v -0.193912 c 0.755208,-0.95648 1.283882,-1.434708 1.585962,-1.434708 v -0.387847 l -0.15085,-0.154896 c -0.503465,0.05176 -1.04496,0.413369 -1.623954,1.085488 H 45.15079 l -0.151223,-0.193924 0.792979,-0.891564 h -0.302069 v -0.736668 c 0.302082,0 0.56642,-0.245889 0.792981,-0.737055 h -0.339687 l -0.151225,0.193923 c -1.057284,0.646264 -1.585958,1.072993 -1.585958,1.2798 -0.931423,-0.517023 -2.416379,-0.879081 -4.455437,-1.085888 l 0.792605,-1.473322 z m 5.24879,2.714506 c 0.553821,0 0.981813,-0.310172 1.283893,-0.930592 -0.855898,0.310216 -1.283893,0.620376 -1.283893,0.930592 z m 3.662834,-2.171376 -1.283891,1.085489 v 0.155295 l 0.188839,0.193924 1.585963,-1.434708 z m 1.774799,0 -0.792976,0.154909 v 0.387835 l 0.302069,0.542745 0.490907,-0.542745 z m 2.71863,0.697653 c -0.553818,0.103398 -0.830599,0.284626 -0.830599,0.543131 h 0.33969 z m -39.308576,0.07764 1.057434,0.891963 h 0.37768 c -0.42795,-0.594569 -0.868386,-0.891967 -1.321506,-0.891967 z m 39.912715,0.116281 c -0.578989,0 -0.994161,0.297386 -1.245894,0.891952 0.830725,-0.284361 1.245894,-0.581748 1.245894,-0.891952 z m -5.248791,0.349207 -0.490907,0.542745 h 0.340059 l 0.302071,-0.348821 v -0.193924 z m 11.328185,0 -0.490911,0.38746 v 0.15528 l 0.151217,0.193923 0.490911,-0.542743 V 14.9307 Z m -12.762921,0.19392 -0.302072,0.34882 v 0.193923 h 0.302072 l 0.151221,-0.193923 V 15.31816 Z m 2.07687,0.193536 -1.435115,1.085875 0.490912,0.891952 c 0.629335,-0.336048 1.044883,-0.814276 1.246271,-1.434696 v -0.193924 l -0.151223,0.193924 h -0.150845 l 0.150845,-0.193924 v -0.193923 z m 5.248791,0 -0.30207,0.349207 v 0.348821 l 0.30207,0.387847 h 0.49091 l 0.302072,-0.387847 V 15.667367 L 55.685992,15.31816 Z m -2.378941,0.349207 -0.792978,0.736668 v 0.193924 h 0.150845 l 0.944202,-0.930592 z m -36.061043,0.116271 -0.151225,0.155295 0.264455,0.581372 c 0.453122,0.180962 0.679752,0.36218 0.679752,0.543131 0,0.413614 0.830718,1.04674 2.49217,1.899809 l 0.264076,-0.271565 v -0.154909 l -1.434739,-0.736667 v -0.736668 l -1.850412,-1.279798 z m 31.60523,0.814321 c -0.654509,0.103398 -0.981817,0.284238 -0.981817,0.542743 v 0.349209 c 0.453119,-0.155097 0.780429,-0.452496 0.981817,-0.891952 z m -31.869683,0.620383 v 0.155295 c 0.176215,0.413614 0.793128,0.891842 1.850416,1.434708 h 0.113228 V 18.691677 L 16.755098,17.218342 Z M 5.426918,17.644816 5.0492371,17.800101 v 0.310204 H 5.1624643 L 5.426918,17.800101 Z m 41.158611,0.736667 v 0.193913 L 45.943771,19.312064 45.6417,18.575396 Z m -26.016753,0.853325 0.52853,0.581383 h 0.151223 v -0.116282 l -0.4153,-0.465101 z m 25.714682,0.620398 c 0.528644,0.07752 0.792981,0.258383 0.792981,0.542744 l -0.792981,0.349207 z m -43.2354784,0.11627 -0.5285304,0.154908 v 0.426851 l 0.6793757,-0.271556 v -0.155295 z m 36.0610374,2.947056 -0.641756,0.387835 V 23.6552 h 0.150846 l 0.642134,-0.348833 v -0.387835 z m -37.4957771,2.249017 -0.151223,0.154909 0.2644504,0.310193 H 1.990545 L 2.1417682,25.477743 1.8773178,25.167549 Z m 9.0624701,1.008232 h 0.415298 l -0.26445,0.310194 h -0.415299 z m 9.36454,0 -0.113606,0.154899 v 0.155295 l 0.113606,0.154909 0.264076,-0.310204 v -0.154899 z m 16.991898,0.0386 v 0.542743 h 0.490909 l 0.302069,-0.387448 V 26.214377 Z M 7.7678648,26.75712 7.5037881,27.067314 v 1.008244 l -0.1132274,1.74489 h 0.1132274 c 0.1510455,0 0.2894342,-0.336103 0.4153009,-1.008223 l -0.2644516,-1.04687 c 0.1762146,0 0.2644516,-0.336115 0.2644516,-1.008235 z m 5.4376312,0.155297 h 0.11323 v 0.310192 h -0.37768 z m 37.533776,0.736667 v 0.193924 l 0.30207,0.34882 h 0.339685 v -0.542744 z m -1.585963,1.085875 -0.340059,0.38746 v 0.155285 h 0.188838 l 0.302069,-0.348822 V 28.734959 Z M 7.5037881,30.518487 v 0.155296 l -0.1132274,1.589605 v 0.155295 l 0.1132274,0.154909 0.2640767,-0.310204 v -1.744901 z m 23.8717899,1.010168 c -0.05018,0.326417 -0.127441,0.547689 -0.233981,0.657091 v 4.537048 l 0.302068,0.387837 -0.150845,1.434706 0.150845,2.365298 -0.150845,3.644698 0.0071,0.06988 -0.195987,0.201643 0.247146,0.290497 0.243764,2.346367 c 0,0.04135 0.0041,0.07675 0.0053,0.116269 h -0.08088 C 29.882984,47.29564 28.032629,47.153516 25.9684,47.153516 v -0.581759 l 0.151221,-0.116271 H 25.9684 c 0,-1.266695 0.314866,-1.900196 0.944204,-1.900196 0.327255,-0.956468 0.855927,-1.964435 1.58596,-3.024312 0,-0.28436 0.566381,-1.059976 1.699188,-2.326659 v -0.155292 l -0.792977,0.31058 v -0.581759 l 0.641755,-5.350971 -0.264452,-0.737055 v -0.11627 l 0.151225,-0.154909 -0.151225,-0.155296 0.504454,-0.232549 h 0.666209 l 0.340063,-0.387837 h -0.16481 L 31.37552,31.52862 Z m -12.770443,0.890028 -0.264074,0.271179 v 0.155296 h 0.906209 v -0.155296 l -0.264454,-0.271179 z m -7.400897,0.426475 h 0.415299 v 0.271178 h -0.679752 z m 30.77463,0.271178 v 0.543132 l 0.30207,0.348821 h 0.150846 l -0.150846,-0.891953 z m -4.26697,1.047249 c -0.453125,0.05176 -0.67975,0.193812 -0.67975,0.426462 v 0.116281 l 0.67975,-0.116281 z m -0.830599,1.124502 -0.188841,0.193924 v 0.154909 l 0.188841,0.193911 h 0.150849 l 0.151223,-0.193911 v -0.154909 l -0.151223,-0.193924 z m -23.147275,0.310194 h 0.26445 v 0.581382 l -0.26445,-0.310194 z m 33.984548,2.791771 -0.151223,0.155285 v 0.193536 l 0.151223,0.193924 0.30207,-0.38746 v -0.155285 z m -12.272385,0.348821 v 0.543131 l 0.792978,-0.193911 v -0.34922 z m 1.585961,0.193924 v 0.349207 c -0.427951,0.180952 -0.641758,0.361793 -0.641758,0.542745 v 0.193923 l 0.150845,0.154908 1.133047,-0.697653 -0.490911,-0.54313 z m -1.132668,0.698039 -0.30207,0.387836 v 0.69804 l 0.150846,0.193923 0.340065,-0.349218 V 39.630836 Z M 3.0479796,42.112404 2.9347492,42.229062 v 0.154908 l 0.1132304,0.155285 0.2644483,-0.310193 v -0.116658 z m 47.3892234,3.877638 v 0.387845 h 1.58596 v -0.387845 z m -25.374995,1.473721 0.264453,0.581372 h -1.208282 c -0.453122,0 -0.843404,0.142501 -1.170662,0.42686 h -0.264452 c 0.528645,-0.672117 1.321652,-1.008232 2.378943,-1.008232 z m 0.906209,0 h 0.528528 l 0.264452,0.271178 0.151224,-0.154908 h 1.850037 v 0.154908 c -1.611107,0 -2.580217,0.103398 -2.907472,0.310194 z M 21.777056,48.3167 h 0.113229 v 0.155295 l -0.113229,0.11627 h -0.528527 v -0.11627 z m 2.076872,0 h 0.792979 v 0.155295 h -0.792979 z m 17.822871,0.58177 -0.264452,0.271167 v 0.155296 l 0.113231,0.116282 0.264452,-0.271578 v -0.116269 z m -6.343841,1.550977 v 0.154898 l 0.264452,0.310591 h 0.150846 v -0.155295 l -0.264075,-0.310194 z m 0.79298,0.310194 c 0,0.180951 0.302045,0.323065 0.90621,0.426473 V 50.914936 L 36.39039,50.759641 Z m -8.798019,0.504116 -0.490912,0.542745 v 0.155295 h 0.150848 l 0.490912,-0.543131 v -0.154909 z m 10.383979,0.659025 0.264451,0.271566 h 0.11323 v -0.271566 z m -26.772113,0.581759 -0.264075,0.271566 v 0.310192 h 0.150848 l 0.37768,-0.465489 V 52.504541 Z M 37.2966,54.210814 c -0.125867,0 -0.251815,0.193613 -0.377683,0.581372 0.226562,0.646274 0.490899,1.034265 0.792981,1.163528 h 0.528529 L 38.76933,55.52924 38.504878,54.675916 v -0.154909 l 0.113229,-0.155285 z m 19.974977,0.659014 -0.302069,0.387847 v 0.154897 H 57.4228 l 0.188842,-0.154897 z m -32.096139,2.249016 v 1.16353 h 0.264453 v -1.16353 z m 0.944199,0.581759 -0.792976,1.744912 h -0.151223 l -0.11323,-0.155295 -0.264453,0.271565 v 0.736667 l 0.113228,0.155297 -0.264076,0.271178 0.264076,0.891952 -0.528529,0.69804 c 0.151043,0.491166 0.46591,0.736667 0.944207,0.736667 0.352426,0.491166 0.792862,0.736668 1.321507,0.736668 l 0.906208,-0.581371 v -0.310205 l -0.906208,-0.426464 v -0.155295 h 0.264453 l -0.117746,-0.542744 h 1.476872 l 1.585959,-0.155296 v -0.387836 l -1.736808,0.193924 -0.642131,-0.193924 -0.64176,0.193924 h -0.07561 v -0.116281 l 0.26445,-0.426474 v -0.155285 c -0.528641,0 -0.79298,-0.142114 -0.79298,-0.426475 v -0.154909 c 3e-6,-0.155095 0.226629,-0.297209 0.679754,-0.426462 0,-0.180963 -0.138764,-0.271566 -0.415676,-0.271566 0,-0.491167 -0.08786,-0.736667 -0.264078,-0.736667 l 0.150849,-0.426474 -0.150849,-0.581771 z m 8.420339,0.736679 -0.792978,0.426464 v 0.11628 l 0.151221,0.155296 c 0.427948,0 0.692285,-0.142124 0.792981,-0.426474 v -0.155296 z m 26.583277,0.620387 -0.641762,0.193923 v 0.34882 h 0.302068 l 0.339694,-0.34882 z m -29.679588,0.891963 -0.150845,0.193911 v 0.193925 l 0.150845,0.193923 h 0.151224 l 0.188466,-0.193923 v -0.193925 l -0.188466,-0.193911 z m 5.437634,1.124503 v 0.348832 h 3.020702 v -0.348832 z m 11.781098,0 v 0.348832 l 1.585962,0.193912 H 53.11821 V 61.229043 Z M 33.52054,61.229043 v 0.387836 l 0.641755,0.155296 0.944203,-0.155296 h 0.981823 v -0.387836 z m 8.307107,0 v 0.387836 h 4.455811 v -0.387836 z m 13.065365,0 v 0.387836 h 3.171545 v -0.387836 z m 5.73933,0 v 0.387836 h 3.289291 v -0.387836 z m -3.0207,2.171751 -0.188842,0.193536 v 0.193924 l 0.188842,0.193923 h 0.150845 l 0.151224,-0.193923 V 63.59433 l -0.151224,-0.193536 z"
       id="path4391-0"
       inkscape:connector-curvature="0" />
  </g>
</svg>
