<?xml version="1.0" encoding="UTF-8" standalone="no"?>
<svg
   xmlns:freecad="http://www.freecadweb.org/wiki/index.php?title=Svg_Namespace"
   xmlns:dc="http://purl.org/dc/elements/1.1/"
   xmlns:cc="http://creativecommons.org/ns#"
   xmlns:rdf="http://www.w3.org/1999/02/22-rdf-syntax-ns#"
   xmlns:svg="http://www.w3.org/2000/svg"
   xmlns="http://www.w3.org/2000/svg"
   xmlns:sodipodi="http://sodipodi.sourceforge.net/DTD/sodipodi-0.dtd"
   xmlns:inkscape="http://www.inkscape.org/namespaces/inkscape"
   width="841"
   height="594"
   id="svg2"
   version="1.1"
   inkscape:version="1.0.1 (3bc2e813f5, 2020-09-07)"
   sodipodi:docname="A1 2020.svg"
   viewBox="0 0 841 594">

  <g>

    <!-- marcas dobra -->

    <path
       style="fill:none;stroke:#000000;stroke-width:0.3"
       d="M 210,0 v 5"/>
    <path
       style="fill:none;stroke:#000000;stroke-width:0.3"
       d="M 210,589 v 5"/>
    <path
       style="fill:none;stroke:#000000;stroke-width:0.3"
       d="M 420,0 v 5"/>
    <path
       style="fill:none;stroke:#000000;stroke-width:0.3"
       d="M 420,589 v 5"/>
    <path
       style="fill:none;stroke:#000000;stroke-width:0.3"
       d="M 630,0 v 5"/>
    <path
       style="fill:none;stroke:#000000;stroke-width:0.3"
       d="M 630,589 v 5"/>
    <path
       style="fill:none;stroke:#000000;stroke-width:0.3"
       d="M 0,297 h 5"/>
    <path
       style="fill:none;stroke:#000000;stroke-width:0.3"
       d="M 836,297 h 5"/>

    <!-- cantos -->

    <path
       style="fill:none;stroke:#000000;stroke-width:0.3"
       d="M 10,20 v -10 h 10"/>
    <path
       style="fill:none;stroke:#000000;stroke-width:0.3"
       d="M 826,20 v -10 h -10"/>
    <path
       style="fill:none;stroke:#000000;stroke-width:0.3"
       d="M 10,574 v 10 h 10"/>

    <!-- logo -->

    <g
       id="g4160"
       transform="matrix(0.11848704,0,0,0.11848704,724.8684,451.36551)">
      <rect
         ry="0"
         rx="0"
         y="831.36908"
         x="603.69025"
         height="244.54779"
         width="251.19089"
         style="color:#000000;clip-rule:nonzero;display:inline;overflow:visible;visibility:visible;opacity:1;isolation:auto;mix-blend-mode:normal;color-interpolation:sRGB;color-interpolation-filters:linearRGB;solid-color:#000000;solid-opacity:1;fill:#000000;fill-opacity:1;fill-rule:evenodd;stroke:#000000;stroke-width:1;stroke-linecap:butt;stroke-linejoin:miter;stroke-miterlimit:4;stroke-dasharray:none;stroke-dashoffset:0;stroke-opacity:1;marker:none;marker-start:none;marker-mid:none;marker-end:none;color-rendering:auto;image-rendering:auto;shape-rendering:auto;text-rendering:auto;enable-background:accumulate" />
      <path
         d="m 696.03475,829.73574 c 0,0.49603 -2.57828,0.84376 -7.73695,1.04217 v 1.19041 l 6.24856,-0.59595 h 9.82128 v -1.04068 h -5.6541 z m -44.04679,0.59595 -31.10049,0.44622 h -17.26174 v 1.19041 l 0.59446,0.59447 7.73843,-0.59447 h 1.04217 l 0.59447,-0.59595 0.44622,0.59595 h 14.13672 l 0.44622,-0.59595 0.59595,0.59595 h 45.08895 v -1.19041 l -2.08285,-0.44622 -5.80383,0.44622 z m 64.87976,0.44622 v 1.19041 h 3.63054 l -0.35579,0.44622 v 0.59447 l 0.59447,0.74419 2.53056,-0.74419 9.96953,0.74419 h 5.6541 l 4.46516,0.7442 0.59446,-0.7442 2.53056,0.7442 h 10.71372 v -1.48839 h -4.46368 l -0.59595,0.74419 c -1.17341,-0.86462 -5.43021,-1.45864 -12.75506,-1.78488 h 0.4047 v -1.19041 h -9.97101 v 0.93988 c -0.99633,-0.0129 -2.06283,-0.0195 -3.12502,-0.0267 v -0.9132 h -9.82129 z m 30.65427,0 v 1.19041 h 5.20936 v -1.19041 z m 10.86346,0.59446 v 1.19042 h 9.96953 v -1.19042 z m 11.01169,0 v 1.19042 h 8.7806 v -1.19042 z m 10.86346,0 v 1.19042 h 5.20787 v -1.19042 z m 11.45792,0 v 1.19042 h 10.86345 v -1.19042 z m -33.33307,1.63664 v 1.48839 h 7.5887 v -1.48839 z m -55.20823,0.74419 -1.93461,2.08434 c 0,3.7698 4.61415,13.04415 13.84024,27.82574 0.89285,0 1.33866,-0.69397 1.33866,-2.08286 3.869,0 6.99414,-2.08342 9.37506,-6.25004 v -1.33865 c 0,-0.89285 -0.64493,-1.34015 -1.93461,-1.34015 l 1.19041,-1.4869 c 0,-1.19047 -2.03289,-2.33175 -6.1003,-3.423 v -3.57124 c -2.97616,-6.05152 -5.70452,-9.07709 -8.18466,-9.07709 h -6.25004 z m 63.98735,13.24428 v 0.7442 c 0,1.68648 3.37329,3.52175 10.11925,5.50585 v 1.48838 h 1.19042 v -1.48838 l -6.84451,-4.91139 -1.93461,0.7442 z m 52.23292,0.7442 -1.34014,1.33866 v 0.74419 h 0.74419 l 1.19042,-1.48839 v -0.59446 z m 28.86791,2.6788 -1.19042,1.48838 h 0.59595 l 1.19041,-1.48838 z m -76.3377,2.08286 -1.04217,1.04217 v 0.59446 H 771.48 l 1.04217,-1.04069 v -0.59594 z m 73.21268,0.74419 -13.83875,11.90414 h 3.12502 v 0.74419 c -1.68649,0.19842 -2.53056,0.89239 -2.53056,2.08285 5.45629,-1.9841 8.18465,-4.11656 8.18465,-6.39829 0,-1.09125 1.88578,-3.62049 5.65558,-7.58869 v -0.7442 z m 9.83759,1.95684 -1.057,0.87021 c -4.16662,2.57933 -7.73905,6.30036 -10.7152,11.16142 h 0.74419 c 1.88489,0 4.8109,-1.88577 8.77912,-5.65558 v -0.59446 l -0.74271,-0.7442 2.9916,-2.20441 z m -75.16359,0.12601 1.78487,3.57125 1.34015,-1.48691 -1.93461,-2.08434 z m 60.26636,0 -1.19041,1.48839 v 0.59595 h 0.59595 l 1.19041,-1.34014 v -0.7442 z m -14.43469,3.57125 -1.19041,1.34013 h 0.59594 l 1.19042,-1.34013 z m 5.05963,0 c -2.28172,0 -3.76925,0.8931 -4.46368,2.67879 2.28172,0 3.76925,-0.8931 4.46368,-2.67879 z m -70.38562,0.59594 -1.93461,2.08285 v 0.7442 h 1.34013 l 1.19042,-1.33866 v -0.7442 z m 56.54688,0.74419 c -4.76186,2.77775 -7.88699,4.16571 -9.37507,4.16571 -1.19046,1.58729 -3.91883,3.47306 -8.18465,5.65558 0.29762,1.38887 1.53845,2.08285 3.72097,2.08285 0.79364,0 1.19042,-1.38944 1.19042,-4.16719 l 3.86921,1.34014 h 1.93461 c 0.39682,-2.77774 1.43852,-4.16718 3.12502,-4.16718 v -0.7442 l -0.7442,-0.74419 4.46369,-2.08286 z m 3.12502,2.08286 -3.7195,2.82705 1.19042,1.34014 h 0.59447 c 0.89284,0 1.34014,-0.69546 1.34014,-2.08434 1.68649,0 2.52907,-0.44581 2.52907,-1.33866 v -0.74419 l -0.59594,0.74419 h -0.74272 z m -42.70814,0.74419 c -2.28172,0 -3.76924,0.94215 -4.46368,2.82705 l 1.33866,1.34014 h 2.53055 l 1.78489,-2.08433 v -0.7442 z m -31.39846,0.59447 -1.33866,1.48839 v 1.34014 h 0.7442 l 1.19041,-1.34014 v -1.48839 z m 77.23161,0.74419 c -7.34118,3.6706 -12.99555,7.83744 -16.96376,12.50009 v 0.74419 l 0.59447,3.57125 -0.59447,0.59595 v 0.74418 h 0.59447 l 1.9346,-1.34013 h 1.34015 l -1.34015,5.50584 3.12502,-3.42151 h 0.59595 l 0.7442,0.59447 c 0,-1.38888 0.39677,-2.08286 1.19041,-2.08285 h 3.71949 v 0.74418 l -1.78489,2.82705 h 0.59448 c 2.57933,-2.77774 4.4651,-4.16718 5.65557,-4.16718 h 1.93313 v 0.59595 h -0.74271 l -3.12503,2.08285 v 1.48838 c 4.96026,-2.77774 8.33209,-4.16718 10.11778,-4.16718 h 0.59595 v 0.59595 l -0.59595,0.74418 h 1.19041 l 0.7442,-0.74418 v 0.74418 l 22.33768,-1.69148 v -1.87975 h -2.9916 l -0.59596,-0.59595 v 0.59595 l -3.71948,-1.34015 h -0.59595 l -0.74419,0.7442 -2.38083,-0.7442 1.19042,-1.33866 v -0.74419 l -0.59448,-0.7442 -3.12501,3.57125 -3.12502,-0.7442 -0.7442,2.08286 h -3.12502 l -1.19042,-3.42152 c 0.29762,-1.48807 2.57869,-3.37386 6.84451,-5.65557 l 3.86922,0.74419 1.78636,-0.74419 c 0,-0.89285 -1.24084,-1.33867 -3.72097,-1.33867 v -0.74419 l 0.59595,-0.59595 c -2.48014,0 -6.64697,2.08342 -12.50008,6.25005 v -0.74419 h -1.34015 v -0.74272 l 0.59595,-0.59595 v -0.74419 l -3.12502,2.08286 -0.59595,-0.74272 h -1.93312 l -0.59596,0.74272 c 0,-1.28968 -0.59589,-2.67762 -1.78635,-4.16572 1.78569,0 3.02653,-0.94214 3.72096,-2.82704 h -1.33865 l -1.78637,1.4869 h -0.59594 c 0,-1.38887 0.59589,-2.08285 1.78635,-2.08285 z m 6.99425,1.48839 c -1.6865,0 -2.97637,0.89311 -3.86922,2.6788 v 0.74419 c 2.57933,-1.09125 3.86922,-2.03339 3.86922,-2.82704 z m -53.42187,2.08285 -1.34014,1.34014 v 0.7442 h 1.93461 l 0.59595,-0.7442 z m 9.96954,0 -0.59447,0.59595 1.19042,1.48839 h 0.74418 l 0.59448,-0.7442 -1.33866,-1.34014 z m -69.04697,1.34014 0.74419,3.423 h 1.19042 v -3.423 z m 78.57028,1.33867 c -2.57934,0.49602 -3.86774,1.19148 -3.86774,2.08433 l 1.33866,2.82705 v 0.74419 c 0.99205,0 2.43054,-1.19031 4.31544,-3.57124 h 0.59446 l -1.19041,2.08285 h 1.93461 v -4.16718 l -1.93461,0.74419 h -0.59447 z m -166.06939,1.19041 v 1.19042 l 2.08433,0.59594 v 0.44622 l -0.4477,0.59595 v 5.05815 h 0.89392 l -0.89392,1.04217 0.4477,2.23257 -1.04216,12.20212 0.59446,0.59446 -3.57124,0.4477 v 1.19042 l 2.97678,0.59447 h 0.59446 l 0.4477,-0.59447 0.44622,2.82705 v 1.63663 l -0.89392,3.27327 0.89392,26.6368 h 1.04069 l 0.59595,-5.50584 v -1.63663 l -0.59595,-20.0888 v -0.44622 H 634.28 c 0,2.97616 0.49633,4.46369 1.48838,4.46369 v 7.73843 l -0.44622,0.44621 h 0.44622 l 0.59447,0.59447 -1.04069,15.03064 c 0,0.69444 1.7357,1.04069 5.20788,1.04069 v 0.59595 h -3.72097 c -1.38888,2.08331 -2.08285,3.91856 -2.08285,5.50584 l 1.04217,1.78489 c 2.77774,0.79364 4.1657,2.23212 4.1657,4.31543 l 0.59595,-0.44622 h 2.08285 v 0.44622 h -1.63663 v 1.19041 l 0.59447,0.59595 h -5.20788 v 1.04217 l 1.48839,0.59447 3.71949,-1.19042 2.08433,1.63664 h 8.3329 l 0.44621,-0.44622 0.59595,0.44622 h 3.57124 v -1.04069 h 0.59446 v 1.04069 l -0.59446,0.59595 h 2.6788 l 2.97529,-0.59595 1.63664,0.59595 h 0.44622 l -0.44622,-2.67881 v -16.21957 l 1.04217,-10.41723 c -0.59524,0 -0.94297,-0.94215 -1.04217,-2.82705 v -12.20211 l 1.48839,-12.20211 -12.94631,-8.33438 v -2.23111 h 1.63664 c -0.69444,-0.89285 -1.04069,-2.18272 -1.04069,-3.86921 h -0.59595 c -0.69444,0 -1.04217,0.54537 -1.04217,1.63664 h -0.44621 l -0.59447,-0.59448 h -0.44623 l 0.44623,2.82705 v 1.04069 l -8.33289,-3.86774 -10.26899,-8.33437 z m 127.67817,0.29797 -1.19041,1.33867 h 1.78488 v -0.74272 z m 47.17181,0 -3.86921,2.08286 v 1.34014 l 4.46368,-2.08433 v -0.74272 z m -178.42122,0.29798 -0.44623,0.59447 0.44623,1.63811 -2.08286,0.59446 v 0.59595 h 1.04069 v 0.44622 h -0.44622 l -3.71949,-1.63663 h -2.08285 l -1.04217,1.19041 c 0,1.09126 2.7774,1.63664 8.3329,1.63664 1.09125,0 1.63663,-0.39678 1.63663,-1.19042 v -2.6788 l -1.04069,-1.19041 z m 151.93267,0.29797 v 0.74272 c 0,0.89284 0.64494,1.34013 1.9346,1.34013 v 1.48839 l -2.52907,0.59447 v 0.74419 l 0.59447,0.7442 5.65557,-1.48839 v -1.33866 z m 32.14265,1.48691 v 0.59594 l -1.33866,1.48839 h -1.19041 c 0,-0.69444 0.84258,-1.3899 2.52907,-2.08433 z m -201.18734,1.04216 c -3.47218,0 -5.20936,0.54538 -5.20936,1.63664 v 0.59595 l 0.44622,0.44622 9.37507,-1.04217 v -1.04069 l -0.44622,-0.59595 -3.71949,1.04217 v -0.44622 z m 222.46654,1.04217 h 0.7442 v 1.33866 c -0.39682,1.38888 -1.68671,2.08286 -3.86922,2.08286 v -1.33866 z m -32.58887,0.59447 -1.33866,1.48839 h 0.59446 l 1.34015,-1.48839 z m -10.71372,1.48839 c -1.58729,0 -3.27394,0.94214 -5.05964,2.82705 1.7857,3.17456 3.27471,4.76165 4.46516,4.76165 3.27379,-0.69444 4.90991,-2.28152 4.90991,-4.76165 h 1.33866 v -1.48839 l -3.71949,-1.33866 z m -85.71276,0.74419 -1.63813,1.63664 v 1.19041 h 0.59596 l 2.08285,-1.19041 v -0.59448 z m 59.96839,2.08286 c -3.6706,3.67059 -6.84477,5.50585 -9.52332,5.50584 h -8.03491 v -1.33866 c -1.6865,0 -2.53056,-0.69398 -2.53056,-2.08285 h -1.33866 l -0.59595,2.67732 0.59595,0.74419 v 0.74419 l -1.19042,-1.48838 c -0.89284,0 -1.34013,0.69546 -1.34013,2.08434 h -1.78489 l -5.05962,2.08285 h -0.59596 l -0.7427,-0.59595 c -1.19047,0 -1.78637,0.4473 -1.78637,1.34014 v 0.7442 h 1.19042 l -1.78637,2.08285 h -3.86773 v 1.33866 h 3.12502 c -0.19841,3.27378 -0.79431,4.91138 -1.78636,4.91138 l 1.78636,20.23852 -1.19041,6.99276 0.59446,2.67879 v 7.12174 l -6.99423,-3.99671 c 0,-5.7539 -1.04171,-8.92808 -3.12503,-9.52331 h -0.44621 l -0.59447,0.59446 v -2.82704 h -1.04217 l -0.44622,0.59595 v 0.59446 l 0.44622,0.44622 -8.24098,-4.37177 2.88338,-2.47274 v -0.74419 l -0.59447,-0.7442 -3.12502,1.48839 0.59447,0.59447 -0.59447,0.74419 v 0.68935 l -5.50585,-2.92045 c -3.17456,-3.17457 -7.14228,-6.10206 -11.90413,-8.7806 h -0.44771 v 1.63664 l 5.05963,2.23258 v 0.44622 h -0.44622 c -0.49603,0 -1.0414,4.2664 -1.63663,12.79806 0,1.28966 -1.68665,3.32257 -5.05963,6.10032 1.68649,0 3.37314,-0.54538 5.05963,-1.63664 h 0.59446 l -0.59446,34.37524 1.04216,1.19041 h 0.59447 c 0,7.34118 -0.34773,11.0117 -1.04217,11.0117 -4.16661,12.59907 -8.67971,18.89838 -13.54077,18.89838 l -4.61341,-1.63664 c -6.64675,-3.96821 -9.96953,-9.5245 -9.96953,-16.66728 v -12.20211 l 1.04069,-4.46368 -1.04069,-1.63663 v -0.59595 h 1.63664 v -1.04069 l -4.1672,-2.23257 h -0.44622 l -0.59446,0.59446 c 0,-1.88489 -0.49634,-2.82705 -1.48839,-2.82705 l -1.04217,1.04217 h -0.59446 l -0.44622,-0.44622 h -1.63811 c -0.69444,0 -1.04069,0.54538 -1.04069,1.63664 h -1.04217 l -0.44621,-0.59596 -1.04217,1.19042 c -0.29762,-1.88489 -0.84299,-2.82705 -1.63664,-2.82705 h -1.04068 l -2.53056,1.63663 c 0,-1.09125 -0.34773,-1.63663 -1.04217,-1.63663 h -2.08285 c -0.69444,0 -1.04216,0.54538 -1.04216,1.63663 h -0.59447 c 0,-0.79363 -0.69398,-1.53665 -2.08286,-2.23109 h -0.44769 c -1.09126,0.29761 -1.98289,1.58749 -2.67732,3.86921 0,2.57934 0.89162,3.86774 2.67732,3.86774 v 0.59594 c -1.8849,0 -3.27287,0.54538 -4.16571,1.63663 l -1.04217,-3.27326 c -0.59523,0 -1.09156,1.09075 -1.48839,3.27326 l 0.4477,5.05964 v 4.46368 l 0.44622,2.67879 -1.48838,1.19042 2.08285,6.69627 c 0,4.86105 4.51457,12.2526 13.54225,22.17316 1.38887,3.2737 5.90196,6.9442 13.54076,11.0117 v 0.5944 l -3.12502,3.8692 v 0.596 h 1.48839 l 2.53056,-3.8692 12.4986,4.9099 11.4594,-1.0407 h 11.45792 l 2.52907,-0.596 2.67881,0.596 v 0.5945 l -0.59596,0.4462 v 0.5959 l 2.67881,0.4462 -0.59446,2.8271 c 0,1.2897 -1.88578,2.2333 -5.65558,2.8285 v 1.0407 h 4.61341 v 0.596 h -1.04218 v 1.0406 l 0.59596,0.596 -1.04217,2.2326 0.44621,0.5944 v 7.1425 l 1.04218,1.6367 v 3.4229 h 1.04217 l 0.59446,-0.5944 v 1.0407 l 1.48839,-0.4463 3.12502,1.0422 c 0,-0.6944 0.54537,-1.0422 1.63664,-1.0422 v -1.1904 h -1.04069 l -3.72097,0.596 v -0.596 l -0.44622,-0.5944 c 2.77775,-0.2976 4.16719,-0.8445 4.16719,-1.6381 v -0.4463 l -0.59595,-0.5944 0.59595,-0.596 -1.63812,-1.6366 -2.52907,0.5959 v -1.1904 l 0.59594,-0.5959 h 0.14825 l 1.93461,-2.2326 v -1.3387 l -2.03393,2.2726 -0.64487,-1.3801 2.52907,-1.6367 v -1.1904 c -1.68648,0 -2.52907,-0.3477 -2.52907,-1.0421 v -0.5945 c 1.58728,0 2.62899,-0.7445 3.12502,-2.2326 v -0.5945 l -0.59595,-0.4462 c -0.99205,0 -1.48691,-0.3982 -1.48691,-1.1919 v -3.2732 h 1.04069 v -1.1905 h -1.04069 l 1.04069,-1.0421 10.2675,2.2326 h 0.59596 l 0.44621,-0.5945 c 6.05152,0.7936 9.72203,1.7358 11.0117,2.827 h 0.44622 l 2.6788,-0.5959 -0.59446,0.5959 c 0,0.7937 1.93334,1.3391 5.80234,1.6367 v -0.596 c 0,-1.3889 -8.48081,-3.7695 -25.44491,-7.1425 v -0.5944 l 3.57124,-0.4462 h 3.12503 c 0,-1.0913 0.84257,-1.6382 2.52907,-1.6382 h 6.31527 c 0.45665,2.1755 1.66854,3.2748 3.65425,3.2748 h 8.7806 l 1.78488,-2.0843 v -2.0829 l -1.78488,-4.1657 h 1.19042 v -1.3401 l -5.05963,-0.7442 v -0.7442 c 3.27377,0 5.15807,-0.8917 5.65409,-2.6774 0,-3.1745 -0.79354,-8.285 -2.38082,-15.32858 l 3.12502,-27.23127 v -4.9099 l 0.59595,-0.74419 -4.46516,-0.59595 v -0.74419 l 14.43468,-1.33867 h 0.7442 v -1.48838 h -2.52907 l -0.59595,0.7442 -0.74419,-0.7442 h -6.84451 v -7.3441 c 1.66574,-0.59719 2.52907,-1.22347 2.52907,-1.88124 l -2.52907,-2.23258 v -6.54802 l 3.71948,-0.74419 v -2.08286 h -2.52907 c 0,-0.89284 1.48753,-2.28229 4.46368,-4.16718 v -0.7442 l -0.59447,-0.74271 -5.05962,3.57124 h -0.59595 l -1.33866,-9.07709 1.93461,-2.82853 v -9.07709 l 1.19041,-2.82705 3.12502,2.23259 0.74419,-0.7442 h 6.25005 l 0.59446,0.7442 0.59595,-0.7442 h 12.05239 l 0.59594,8.3329 v 20.98271 l -3.12502,0.59447 v 1.48839 l 3.12502,-0.7442 v 14.58294 h -8.77912 v 1.48838 l 3.12355,0.59447 1.19041,-1.33865 2.53055,2.08285 h 1.33867 l 0.59594,-0.7442 2.52908,5.65558 -0.7442,4.9099 1.34015,17.41147 c -0.39683,16.56728 -1.43854,25.59493 -3.12503,27.08303 v 1.4869 l 0.59447,0.596 h -0.59447 l 0.59447,9.077 v 0.596 h 1.19041 l 0.7442,-2.6788 3.12502,0.7442 h 10.71521 l 1.78488,-2.0844 c 1.28967,0 1.93461,-0.4458 1.93461,-1.3386 h 9.37506 v -1.4884 h -10.71372 l 0.74418,-3.423 v -0.7427 l -0.74418,-0.7442 4.46368,-0.5959 h 1.19041 v -1.4884 h -1.78488 c -3.07536,0 -4.76202,-0.694 -5.05963,-2.0829 v -5.50584 c -0.79364,-8.33325 -1.63771,-13.2446 -2.53056,-14.73267 l 1.34015,-1.33866 c 0.39681,-14.38476 0.99124,-21.57718 1.78488,-21.57718 l 0.59595,-2.08285 -0.59595,-0.7442 0.59595,-3.42299 h 0.74418 l 0.59448,0.59595 c 1.28966,0 1.9346,-0.89311 1.9346,-2.67881 h 0.59595 l 0.59447,0.59447 h 0.59594 l 0.59447,-0.59447 v 3.423 h 1.33866 v -4.91138 l 2.53055,0.7442 h 0.59447 l 0.59595,-0.7442 v 0.7442 l 0.59446,-0.7442 7.59019,0.7442 2.52907,-0.7442 v -1.33867 l -3.12502,-0.74418 -3.71948,0.74418 h -3.86922 l -3.12503,-0.74418 -0.59594,0.74418 -0.59447,-0.74418 h -1.33866 l -1.19041,1.48838 -1.34014,-1.48838 -3.12502,1.48838 h -0.59447 v -8.48262 l 0.59447,-3.423 -0.59447,-0.74419 c 0.99206,-2.28172 2.03376,-3.42151 3.12502,-3.42151 l -0.59594,-2.08434 c 3.7698,-2.77774 5.65409,-5.55515 5.65409,-8.3329 l -0.59447,-4.9099 c 1.68649,0 2.52908,-0.94363 2.52908,-2.82853 2.48012,-4.76186 3.72097,-8.23324 3.72097,-10.41575 h 1.93461 c 0,1.8849 1.0417,2.82705 3.12501,2.82705 0,2.28172 0.39678,3.42299 1.19042,3.42299 h 0.59447 v -2.08433 l -0.59447,-3.42151 0.59447,0.59446 3.27475,-0.59446 h 3.12502 l 0.59446,0.59446 -0.59446,4.91138 1.78488,0.7442 1.93461,-4.16719 1.9346,0.59594 c 0,1.88491 0.39677,2.82705 1.19042,2.82705 h 0.59594 v -4.91138 c 0.69444,0 1.73615,1.63761 3.12503,4.91138 v 14.58294 l 1.33865,1.48839 c 0.79364,0 1.43859,-1.38944 1.93461,-4.16719 v -0.74419 h -1.34014 l 1.93461,-15.32713 h 1.19041 v 5.50584 h 1.34015 v -4.76165 l 1.19041,-2.82705 1.33866,1.33866 0.59594,-0.59446 1.78489,0.59446 6.99423,-1.33866 v -0.74419 c -7.14278,-0.69444 -10.71372,-2.08388 -10.71372,-4.1672 h -1.19041 l -0.7442,0.7442 -0.59595,-0.7442 c -0.79364,0 -1.19041,0.69547 -1.19041,2.08434 h -0.59447 v -0.74419 l 0.59447,-2.6788 v -2.82705 l -0.59447,-0.7442 c -0.89285,0 -1.34014,2.33159 -1.34014,6.99424 h -0.59447 v -1.34014 c -1.28967,0 -1.93461,-0.69397 -1.93461,-2.08285 h -1.19041 v 2.6788 h -0.59594 v -2.08433 h -1.33866 c 0,1.88489 -0.84259,3.07521 -2.52908,3.57123 v -0.74271 l -0.59594,-0.74419 c -1.6865,0.29762 -2.52908,0.9916 -2.52908,2.08285 l -2.53056,-0.59595 h -0.59446 l -0.59595,0.59595 -1.93461,-2.08285 v 2.08285 h -2.52907 v -3.423 l 0.59447,-3.42151 -0.59447,-0.74419 v -0.7442 l 0.59447,-0.59594 -0.59447,-4.31544 1.93461,-4.1657 v -0.59596 l -1.34014,1.34015 -0.59447,-0.74419 -1.9346,0.74419 v 5.6541 l -0.59596,3.42299 0.59596,2.08285 -1.19042,1.33867 0.59446,3.57123 v 0.59595 l -3.71948,-0.59595 h -0.59595 l 0.59595,-2.08285 v -2.08285 c -3.07536,2.97616 -6.00137,4.56325 -8.77912,4.76165 h -0.59595 l 1.19042,-2.6788 h 0.59594 l -0.59594,-2.08285 v -0.7442 l 0.59594,-0.74419 v -0.59447 l -0.59594,-0.74419 c -1.28967,0.29762 -2.13226,1.23977 -2.52908,2.82705 v 0.59447 l 0.59447,0.74418 h -0.59447 l -0.59594,0.7442 h -0.59448 v -0.7442 l 0.59448,-2.82704 v -0.59447 l -1.93461,0.59447 h -0.59447 l 3.71949,-4.16719 c -1.58729,0 -4.06748,1.63761 -7.44046,4.91138 v -0.74419 c 2.97616,-3.67059 5.05959,-5.50585 6.25005,-5.50585 v -1.48839 l -0.59448,-0.59446 c -1.98409,0.19841 -4.11804,1.58637 -6.39977,4.1657 h -0.59446 l -0.59595,-0.74419 3.12502,-3.42151 h -1.19041 v -2.82705 c 1.19046,0 2.23217,-0.94363 3.12502,-2.82853 h -1.33866 l -0.59595,0.74419 c -4.16661,2.48014 -6.25004,4.11774 -6.25004,4.91139 -3.6706,-1.98411 -9.5226,-3.37355 -17.55824,-4.1672 l 3.12355,-5.65408 z m 20.68473,10.41723 c 2.18252,0 3.86918,-1.19032 5.05964,-3.57124 -3.37298,1.19046 -5.05964,2.38077 -5.05964,3.57124 z m 14.4347,-8.3329 -5.05963,4.1657 v 0.59596 l 0.74419,0.74419 6.25005,-5.50585 z m 6.99423,0 -3.12501,0.59447 v 1.48838 l 1.19041,2.08285 1.9346,-2.08285 z m 10.71373,2.67732 c -2.18252,0.39682 -3.27327,1.09228 -3.27327,2.08434 h 1.33866 z m -154.90946,0.29797 4.1672,3.423 h 1.48838 c -1.68649,-2.28172 -3.42218,-3.423 -5.20787,-3.423 z m 157.29029,0.44622 c -2.28172,10e-6 -3.91785,1.14127 -4.9099,3.423 3.27377,-1.09127 4.9099,-2.23253 4.9099,-3.423 z m -20.68474,1.34015 -1.9346,2.08285 h 1.34013 l 1.19042,-1.33866 v -0.74419 z m 44.64274,0 -1.93461,1.4869 v 0.59595 l 0.59595,0.74419 1.93461,-2.08285 v -0.74419 z m -50.29683,0.74419 -1.19042,1.33866 v 0.74419 h 1.19042 l 0.59594,-0.74419 v -0.59595 z m 8.18465,0.74271 -5.65558,4.16719 1.93461,3.42299 c 2.48012,-1.28966 4.11774,-3.12492 4.91138,-5.50584 v -0.7442 l -0.59595,0.7442 h -0.59446 l 0.59446,-0.7442 v -0.74419 z m 20.68473,0 -1.19041,1.34014 v 1.33866 l 1.19041,1.48839 h 1.93461 l 1.19042,-1.48839 v -1.33866 l -1.19042,-1.34014 z m -9.37506,1.34014 -3.12502,2.82705 v 0.7442 h 0.59446 l 3.72097,-3.57125 z m -142.1114,0.44622 -0.59595,0.59595 1.04217,2.2311 c 1.78569,0.69443 2.67881,1.3899 2.67881,2.08433 0,1.58729 3.27374,4.01697 9.82128,7.29073 l 1.04069,-1.04216 v -0.59447 l -5.6541,-2.82705 v -2.82705 l -7.29221,-4.91138 z m 124.55168,3.12503 c -2.57933,0.39681 -3.86921,1.0908 -3.86921,2.08285 v 1.34014 c 1.78569,-0.59523 3.07557,-1.73651 3.86921,-3.42299 z m -125.59385,2.38082 v 0.59595 c 0.69444,1.58729 3.1256,3.42254 7.29222,5.50585 h 0.44622 v -0.4477 l -6.69627,-5.6541 z m -43.60056,1.63664 -1.48839,0.59594 v 1.19042 h 0.44622 l 1.04217,-1.19042 z m 162.20018,2.82705 v 0.74418 l -2.52908,2.82705 -1.19041,-2.82705 z m -102.52829,3.27474 2.08286,2.2311 h 0.59595 v -0.44622 l -1.63664,-1.78488 z m 101.33787,2.38083 c 2.08331,0.29761 3.12503,0.9916 3.12503,2.08286 l -3.12503,1.34013 z m -170.38482,0.44622 -2.08286,0.59447 v 1.63811 l 2.67732,-1.04216 v -0.59595 z m 142.11138,11.30967 -2.52907,1.48839 v 1.33866 h 0.59446 l 2.53056,-1.33866 v -1.48839 z m -147.76548,8.63087 -0.59595,0.59447 1.04217,1.19041 h 1.04069 l 0.59595,-0.59446 -1.04217,-1.19042 z m 35.7139,3.86922 h 1.63663 l -1.04217,1.19041 h -1.63663 z m 36.9043,0 -0.4477,0.59446 v 0.59595 l 0.4477,0.59447 1.04069,-1.19042 v -0.59446 z m 66.96263,0.14824 v 2.08286 h 1.93461 l 1.19041,-1.4869 v -0.59596 z m -115.32633,2.08286 -1.04069,1.19041 v 3.86922 l -0.44622,6.69626 h 0.44622 c 0.59524,0 1.14061,-1.28988 1.63664,-3.86921 l -1.04217,-4.01746 c 0.69444,0 1.04217,-1.28988 1.04217,-3.86922 z m 21.42892,0.59595 h 0.44622 v 1.19041 h -1.48838 z m 147.91522,2.82705 v 0.74419 l 1.19042,1.33866 h 1.33865 v -2.08285 z m -6.25005,4.16718 -1.34013,1.48691 v 0.59595 h 0.74419 l 1.19041,-1.33866 v -0.7442 z m -164.13478,6.84451 v 0.59595 l -0.44622,6.10032 v 0.59594 l 0.44622,0.59447 1.04069,-1.19041 v -6.69627 z m 94.0753,3.87663 c -0.19773,1.25265 -0.50223,2.1018 -0.92209,2.52166 v 17.41147 l 1.19041,1.48839 -0.59446,5.50585 0.59446,9.07709 -0.59446,13.98698 0.0282,0.2683 -0.77236,0.7739 0.97397,1.1148 0.96064,9.0044 c 0,0.1588 0.0159,0.2944 0.0207,0.4463 h -0.31873 c -6.44834,-1.0913 -13.74032,-1.6367 -21.87515,-1.6367 v -2.2325 l 0.59594,-0.4463 h -0.59594 c 0,-4.861 1.24084,-7.2922 3.72097,-7.2922 1.28967,-3.67058 3.37309,-7.53874 6.25004,-11.60615 0,-1.09126 2.23203,-4.06779 6.69626,-8.92884 v -0.59596 l -3.12501,1.1919 v -2.23258 l 2.52907,-20.53501 -1.04217,-2.82853 v -0.44622 l 0.59595,-0.59447 -0.59595,-0.59594 1.98798,-0.89245 h 2.62543 l 1.34014,-1.48838 h -0.64932 l 0.97546,-0.43881 z m -50.32649,3.41558 -1.04068,1.04069 v 0.59595 h 3.57124 v -0.59595 l -1.04217,-1.04069 z m -29.16587,1.63664 h 1.63663 v 1.04069 h -2.6788 z m 121.2784,1.04069 v 2.08433 l 1.19042,1.33866 h 0.59446 l -0.59446,-3.42299 z m -16.81552,4.01894 c -1.7857,0.19841 -2.6788,0.74378 -2.6788,1.63663 v 0.44622 l 2.6788,-0.44622 z m -3.27327,4.31543 -0.74419,0.74419 v 0.59448 l 0.74419,0.74418 h 0.59447 l 0.59595,-0.74418 v -0.59448 l -0.59595,-0.74419 z m -91.22009,1.19041 h 1.04217 v 2.23111 l -1.04217,-1.19042 z m 133.92823,10.71373 -0.59595,0.59595 v 0.74271 l 0.59595,0.7442 1.19041,-1.48691 v -0.59595 z m -48.36371,1.33866 v 2.08433 l 3.12502,-0.74418 v -1.34015 z m 6.25004,0.7442 v 1.34013 c -1.68649,0.69444 -2.52907,1.38842 -2.52907,2.08286 v 0.74419 l 0.59446,0.59447 4.46517,-2.67732 -1.93461,-2.08433 z m -4.46368,2.6788 -1.19041,1.48838 v 2.67881 l 0.59446,0.74419 1.34015,-1.34015 v -3.57123 z m -129.46305,9.52331 -0.44622,0.4477 v 0.59447 l 0.44622,0.59594 1.04216,-1.19041 v -0.4477 z m 186.75413,14.88095 v 1.4884 h 6.25004 v -1.4884 z m -99.99921,5.6555 1.04217,2.2311 h -4.76166 c -1.78569,0 -3.32374,0.5469 -4.61341,1.6382 h -1.04217 c 2.08331,-2.5794 5.20844,-3.8693 9.37507,-3.8693 z m 3.57124,0 h 2.08285 l 1.04217,1.0407 0.59595,-0.5944 h 7.29073 v 0.5944 c -6.34914,0 -10.16826,0.3968 -11.45792,1.1904 z m -16.51755,3.2733 h 0.44622 v 0.596 l -0.44622,0.4462 h -2.08285 v -0.4462 z m 8.18465,0 h 3.12502 v 0.596 h -3.12502 z m 70.23738,2.2326 -1.04217,1.0407 v 0.5959 l 0.44623,0.4462 1.04216,-1.0421 v -0.4462 z m -25.00017,5.9521 v 0.5944 l 1.04217,1.1919 h 0.59446 v -0.5959 l -1.04068,-1.1904 z m 3.12502,1.1904 c 0,0.6944 1.19032,1.2398 3.57124,1.6366 v -1.0407 l -2.52907,-0.5959 z m -34.67173,1.9346 -1.93461,2.0828 v 0.596 h 0.59447 l 1.93461,-2.0844 v -0.5944 z m 40.92177,2.5291 1.04217,1.0421 h 0.44622 v -1.0421 z m -105.50505,2.2325 -1.04068,1.0422 v 1.1904 h 0.59446 l 1.48839,-1.7863 v -0.4463 z m 103.86842,6.5481 c -0.49602,0 -0.99236,0.743 -1.48839,2.2311 0.89285,2.4801 1.93456,3.9691 3.12502,4.4651 h 2.08286 l 2.08433,-1.6366 -1.04217,-3.2748 v -0.5944 l 0.44622,-0.596 z m 78.71852,2.529 -1.19041,1.4884 v 0.5945 h 1.78636 l 0.7442,-0.5945 z m -126.48628,8.6309 v 4.4652 h 1.04217 v -4.4652 z m 3.72096,2.2326 -3.12501,6.6962 h -0.59595 l -0.44622,-0.5959 -1.04217,1.0422 v 2.827 l 0.44621,0.596 -1.04068,1.0406 1.04068,3.423 -2.08285,2.6788 c 0.59524,1.8849 1.83608,2.8271 3.72098,2.8271 1.38886,1.8849 3.12456,2.827 5.20787,2.827 l 3.57124,-2.2311 v -1.1904 l -3.57124,-1.6366 v -0.596 h 1.04217 l -0.46402,-2.0828 h 5.82014 l 6.25004,-0.596 v -1.4883 l -6.84451,0.7442 -2.53055,-0.7442 -2.52908,0.7442 h -0.29797 v -0.4463 l 1.04216,-1.6366 v -0.596 c -2.0833,0 -3.12502,-0.5453 -3.12502,-1.6366 v -0.5945 c 1e-5,-0.5952 0.89311,-1.1406 2.67881,-1.6366 0,-0.6944 -0.54685,-1.0422 -1.63812,-1.0422 0,-1.8849 -0.34625,-2.827 -1.04069,-2.827 l 0.59447,-1.6366 -0.59447,-2.2326 z m 33.18334,2.827 -3.12501,1.6367 v 0.4462 l 0.59594,0.5959 c 1.68649,0 2.7282,-0.5453 3.12502,-1.6366 v -0.596 z m 104.76087,2.3809 -2.52907,0.7442 v 1.3386 h 1.19041 l 1.33866,-1.3386 z m -116.96298,3.423 -0.59446,0.7441 v 0.7442 l 0.59446,0.7442 h 0.59595 l 0.74271,-0.7442 v -0.7442 l -0.74271,-0.7441 z m 21.42893,4.3154 v 1.3387 h 11.90415 v -1.3387 z m 46.42762,0 v 1.3387 l 6.25005,0.7441 h 11.30967 v -1.4883 z m -59.67189,0.5945 v 1.4883 l 2.52907,0.596 3.72097,-0.596 h 3.86922 v -1.4883 z m 32.73712,0 v 1.4883 h 17.55971 v -1.4883 z m 51.48873,0 v 1.4883 h 12.4986 v -1.4883 z m 22.61786,0 v 1.4883 h 12.96262 v -1.4883 z m -11.90413,8.3343 -0.7442,0.7427 v 0.7442 l 0.7442,0.7442 h 0.59446 l 0.59595,-0.7442 v -0.7442 l -0.59595,-0.7427 z"
         style="font-style:normal;font-variant:normal;font-weight:normal;font-stretch:normal;font-size:medium;line-height:125%;font-family:'Cocaine Sans';-inkscape-font-specification:'Cocaine Sans';letter-spacing:0px;word-spacing:0px;fill:#ffffff;fill-opacity:1;stroke:none;stroke-width:1px;stroke-linecap:butt;stroke-linejoin:miter;stroke-opacity:1" />
    </g>

    <!-- linhas -->

    <path
       style="fill:none;stroke:#000000;stroke-width:0.3"
       d="M 722,240 H 826"/>
    <path
       style="fill:none;stroke:#000000;stroke-width:0.3"
       d="M 722,320 H 826"/>
    <rect
       style="fill:none;stroke:#000000;stroke-width:0.3"
       width="104"
       height="100"
       x="722"
       y="334"/>
    <path
       style="fill:none;stroke:#000000;stroke-width:0.3"
       d="M 722,452 H 826"/>
    <path
       style="fill:none;stroke:#000000;stroke-width:0.3"
       d="M 722,482 H 826"/>
    <path
       style="fill:none;stroke:#000000;stroke-width:0.3"
       d="M 722,522 H 826"/>
    <path
       style="fill:none;stroke:#000000;stroke-width:0.3"
       d="M 722,547 H 826"/>

    <!-- textos -->

    <text
       x="722"
       y="216">
       <tspan
         style="font-size:5.5px;font-family:Gnuolane;">TODAS AS MEDIDAS DEVEM SER CONFERIDAS NA OBRA</tspan>
    </text>
    <text
       x="722"
       y="224">
       <tspan
         style="font-size:5.5px;font-family:Gnuolane;">ANTES DA EXECUÇÃO. EM CASO DE DIVERGÊNCIA,</tspan>
    </text>
    <text
       x="722"
       y="232">
       <tspan
         style="font-size:5.5px;font-family:Gnuolane;">VERIFICAR COM OS/AS ARQUITETOS/AS.</tspan>
    </text>
    <text
       x="722"
       y="248">
       <tspan
         style="font-size:5.5px;font-family:Gnuolane;font-weight:bold;">NOTAS</tspan>
    </text>
    <text
       x="722"
       y="328">
       <tspan
         style="font-size:5.5px;font-family:Gnuolane;font-weight:bold;">LEGENDA</tspan>
    </text>
    <text
       x="722"
       y="442">
       <tspan
         style="font-size:5.5px;font-family:Gnuolane;font-weight:bold;">SITUAÇÃO</tspan>
    </text>
    <text
       freecad:editable="titulo1"
       x="722"
       y="464">
       <tspan
         style="font-size:9px;font-family:Gnuolane;font-weight:bold;">TÍTULO 1</tspan>
    </text>
    <text
       freecad:editable="número"
       x="808"
       y="464">
       <tspan
         style="font-size:9px;font-family:Gnuolane;font-weight:bold;">00/00</tspan>
    </text>
    <text
       freecad:editable="titulo2"
       x="722"
       y="474">
       <tspan
         style="font-size:9px;font-family:Gnuolane;font-weight:bold;">TÍTULO 2</tspan>
    </text>
    <text
       x="722"
       y="490"><tspan
         style="font-size:5.5px;font-family:Gnuolane;font-weight:bold;">ETAPA DO PROJETO</tspan>
    </text>
    <text
       freecad:editable="etapa"
       x="772"
       y="490">
       <tspan
         style="font-size:5.5px;font-family:Gnuolane;">ETAPA</tspan>
    </text>
    <text
       x="722"
       y="498"><tspan
         style="font-size:5.5px;font-family:Gnuolane;font-weight:bold;">REVISÃO</tspan>
    </text>
    <text
       freecad:editable="revisão"
       x="772"
       y="498">
       <tspan
         style="font-size:5.5px;font-family:Gnuolane;">REVISÃO</tspan>
    </text>
    <text
       x="722"
       y="506"><tspan
         style="font-size:5.5px;font-family:Gnuolane;font-weight:bold;">DATA</tspan>
    </text>
    <text
       freecad:editable="data"
       x="772"
       y="506">
       <tspan
         style="font-size:5.5px;font-family:Gnuolane;">00.00.0000</tspan>
    </text>
    <text
       x="722"
       y="514"><tspan
         style="font-size:5.5px;font-family:Gnuolane;font-weight:bold;">ESCALA</tspan>
    </text>
    <text
       freecad:editable="escala"
       x="772"
       y="514">
       <tspan
         style="font-size:5.5px;font-family:Gnuolane;">1:50</tspan>
    </text>
    <text
       freecad:editable="projeto"
       x="722"
       y="534">
       <tspan
         style="font-size:9px;font-family:Gnuolane;font-weight:bold;">PROJETO</tspan>
    </text>
    <text
       freecad:editable="endereço"
       x="722"
       y="540">
       <tspan
         style="font-size:5.5px;font-family:Gnuolane;">ENDEREÇO</tspan>
    </text>
    <text
       x="722"
       y="556">
       <tspan
         style="font-size:8px;font-family:Gnuolane;font-weight:bold;text-align:start;text-anchor:start;">UNCREATED.NET ARQUITETOS</tspan>
    </text>
    <text
       x="722"
       y="564">
       <tspan
         style="font-size:5.5px;font-family:Gnuolane;text-align:start;text-anchor:start;">http://www.uncreated.net</tspan>
    </text>
    <text
       x="722"
       y="571">
       <tspan
         style="font-size:5.5px;font-family:Gnuolane;text-align:start;text-anchor:start;">+5511 3214 6330</tspan>
    </text>
    <text
       x="722"
       y="578">
       <tspan
         style="font-size:5.5px;font-family:Gnuolane;text-align:start;text-anchor:start;">coletivo@uncreated.net</tspan>
    </text>
  </g>

  <!-- DrawingContent -->

</svg>
