  0
SECTION
  2
HEADER
  9
$ACADVER
  1
AC1009
  9
$DWGCODEPAGE
  3
ansi_1252
  9
$INSBASE
 10
0.0
 20
0.0
 30
0.0
  9
$EXTMIN
 10
0.0
 20
0.0
 30
0.0
  9
$EXTMAX
 10
420.0
 20
297.0
 30
0.0
  9
$LIMMIN
 10
0.0
 20
0.0
  9
$LIMMAX
 10
12.0
 20
9.0
  9
$ORTHOMODE
 70
     0
  9
$REGENMODE
 70
     1
  9
$FILLMODE
 70
     1
  9
$QTEXTMODE
 70
     0
  9
$MIRRTEXT
 70
     1
  9
$DRAGMODE
 70
     2
  9
$LTSCALE
 40
1.0
  9
$OSMODE
 70
   511
  9
$ATTMODE
 70
     1
  9
$TEXTSIZE
 40
2.5
  9
$TRACEWID
 40
0.05
  9
$TEXTSTYLE
  7
STANDARD
  9
$CLAYER
  8
0
  9
$CELTYPE
  6
BYBLOCK
  9
$CECOLOR
 62
   256
  9
$DIMSCALE
 40
1.0
  9
$DIMASZ
 40
0.18
  9
$DIMEXO
 40
0.0625
  9
$DIMDLI
 40
0.38
  9
$DIMRND
 40
0.0
  9
$DIMDLE
 40
0.0
  9
$DIMEXE
 40
0.18
  9
$DIMTP
 40
0.0
  9
$DIMTM
 40
0.0
  9
$DIMTXT
 40
0.18
  9
$DIMCEN
 40
0.09
  9
$DIMTSZ
 40
0.0
  9
$DIMTOL
 70
     0
  9
$DIMLIM
 70
     0
  9
$DIMTIH
 70
     1
  9
$DIMTOH
 70
     1
  9
$DIMSE1
 70
     0
  9
$DIMSE2
 70
     0
  9
$DIMTAD
 70
     0
  9
$DIMZIN
 70
     0
  9
$DIMBLK
  1

  9
$DIMASO
 70
     1
  9
$DIMSHO
 70
     1
  9
$DIMPOST
  1

  9
$DIMAPOST
  1

  9
$DIMALT
 70
     0
  9
$DIMALTD
 70
     2
  9
$DIMALTF
 40
25.4
  9
$DIMLFAC
 40
1.0
  9
$DIMTOFL
 70
     0
  9
$DIMTVP
 40
0.0
  9
$DIMTIX
 70
     0
  9
$DIMSOXD
 70
     0
  9
$DIMSAH
 70
     0
  9
$DIMBLK1
  1

  9
$DIMBLK2
  1

  9
$DIMSTYLE
  2
ISO-25
  9
$DIMCLRD
 70
     0
  9
$DIMCLRE
 70
     0
  9
$DIMCLRT
 70
     0
  9
$DIMTFAC
 40
1.0
  9
$DIMGAP
 40
0.09
  9
$LUNITS
 70
     2
  9
$LUPREC
 70
     4
  9
$SKETCHINC
 40
0.1
  9
$FILLETRAD
 40
0.5
  9
$AUNITS
 70
     0
  9
$AUPREC
 70
     0
  9
$MENU
  1
.
  9
$ELEVATION
 40
0.0
  9
$PELEVATION
 40
0.0
  9
$THICKNESS
 40
0.0
  9
$LIMCHECK
 70
     0
  9
$CHAMFERA
 40
0.0
  9
$CHAMFERB
 40
0.0
  9
$SKPOLY
 70
     0
  9
$TDCREATE
 40
0.0
  9
$TDUPDATE
 40
2456884.747986111
  9
$TDINDWG
 40
0.0
  9
$TDUSRTIMER
 40
2456884.871458333
  9
$USRTIMER
 70
     1
  9
$ANGBASE
 50
0.0
  9
$ANGDIR
 70
     0
  9
$PDMODE
 70
     0
  9
$PDSIZE
 40
0.0
  9
$PLINEWID
 40
0.0
  9
$COORDS
 70
     1
  9
$SPLFRAME
 70
     0
  9
$SPLINETYPE
 70
     6
  9
$SPLINESEGS
 70
     8
  9
$ATTDIA
 70
     0
  9
$ATTREQ
 70
     1
  9
$HANDLING
 70
     1
  9
$HANDSEED
  5
102B7
  9
$SURFTAB1
 70
     6
  9
$SURFTAB2
 70
     6
  9
$SURFTYPE
 70
     6
  9
$SURFU
 70
     6
  9
$SURFV
 70
     6
  9
$UCSNAME
  2

  9
$UCSORG
 10
0.0
 20
0.0
 30
0.0
  9
$UCSXDIR
 10
1.0
 20
0.0
 30
0.0
  9
$UCSYDIR
 10
0.0
 20
1.0
 30
0.0
  9
$PUCSNAME
  2

  9
$PUCSORG
 10
0.0
 20
0.0
 30
0.0
  9
$PUCSXDIR
 10
1.0
 20
0.0
 30
0.0
  9
$PUCSYDIR
 10
0.0
 20
1.0
 30
0.0
  9
$USERI1
 70
     0
  9
$USERI2
 70
     0
  9
$USERI3
 70
     0
  9
$USERI4
 70
     0
  9
$USERI5
 70
     0
  9
$USERR1
 40
0.0
  9
$USERR2
 40
0.0
  9
$USERR3
 40
0.0
  9
$USERR4
 40
0.0
  9
$USERR5
 40
0.0
  9
$WORLDVIEW
 70
     1
  9
$SHADEDGE
 70
     3
  9
$SHADEDIF
 70
    70
  9
$TILEMODE
 70
     1
  9
$MAXACTVP
 70
    64
  9
$PLIMCHECK
 70
     0
  9
$PEXTMIN
 10
1.000000000000000E+20
 20
1.000000000000000E+20
 30
1.000000000000000E+20
  9
$PEXTMAX
 10
-1.000000000000000E+20
 20
-1.000000000000000E+20
 30
-1.000000000000000E+20
  9
$PLIMMIN
 10
0.0
 20
0.0
  9
$PLIMMAX
 10
0.0
 20
0.0
  9
$UNITMODE
 70
     0
  9
$VISRETAIN
 70
     1
  9
$PLINEGEN
 70
     0
  9
$PSLTSCALE
 70
     1
  0
ENDSEC
  0
SECTION
  2
TABLES
  0
TABLE
  2
VPORT
 70
     1
  0
VPORT
  2
*ACTIVE
 70
     0
 10
0.0
 20
0.0
 11
1.0
 21
1.0
 12
211.9791376306622
 22
-147.2738724956446
 13
0.0
 23
0.0
 14
10.0
 24
10.0
 15
10.0
 25
10.0
 16
0.0
 26
0.0
 36
1.0
 17
0.0
 27
0.0
 37
0.0
 40
378.675
 41
1.728222996515679
 42
50.0
 43
0.0
 44
0.0
 50
0.0
 51
0.0
 71
    16
 72
   100
 73
     1
 74
     3
 75
     0
 76
     0
 77
     0
 78
     0
  0
ENDTAB
  0
TABLE
  2
LTYPE
 70
     1
  0
LTYPE
  2
CONTINUOUS
 70
     0
  3
Solid line
 72
    65
 73
     0
 40
0.0
  0
ENDTAB
  0
TABLE
  2
LAYER
 70
     2
  0
LAYER
  2
0
 70
     0
 62
     7
  6
CONTINUOUS
  0
LAYER
  2
LAYER_1
 70
     0
 62
     7
  6
CONTINUOUS
  0
ENDTAB
  0
TABLE
  2
STYLE
 70
     1
  0
STYLE
  2
STANDARD
 70
     0
 40
0.0
 41
1.0
 50
0.0
 71
     0
 42
2.5
  3
txt
  4

  0
ENDTAB
  0
TABLE
  2
VIEW
 70
     0
  0
ENDTAB
  0
TABLE
  2
UCS
 70
     0
  0
ENDTAB
  0
TABLE
  2
APPID
 70
     1
  0
APPID
  2
ACAD
 70
     0
  0
ENDTAB
  0
TABLE
  2
DIMSTYLE
 70
     1
  0
DIMSTYLE
  2
ISO-25
 70
     0
  3

  4

  5

  6

  7

 40
1.0
 41
2.5
 42
0.625
 43
3.75
 44
1.25
 45
0.0
 46
0.0
 47
0.0
 48
0.0
140
2.5
141
2.5
142
0.0
143
0.03937007874016
144
1.0
145
0.0
146
1.0
147
0.625
 71
     0
 72
     0
 73
     0
 74
     0
 75
     0
 76
     0
 77
     1
 78
     8
170
     0
171
     3
172
     1
173
     0
174
     0
175
     0
176
     0
177
     0
178
     0
  0
ENDTAB
  0
ENDSEC
  0
SECTION
  2
BLOCKS
  0
BLOCK
  8
0
  2
$MODEL_SPACE
 70
     0
 10
0.0
 20
0.0
 30
0.0
  3
$MODEL_SPACE
  1

  0
ENDBLK
  5
21
  8
0
  0
BLOCK
 67
     1
  8
0
  2
$PAPER_SPACE
 70
     0
 10
0.0
 20
0.0
 30
0.0
  3
$PAPER_SPACE
  1

  0
ENDBLK
  5
1D
 67
     1
  8
0
  0
BLOCK
  8
0
  2
*U0
 70
     1
 10
0.0
 20
0.0
 30
0.0
  3
*U0
  1

  0
SOLID
  5
100BC
  8
0
 10
390.00024
 20
-292.0017
 30
0.0
 11
389.99997
 21
-292.0017
 31
0.0
 12
390.00024
 22
-279.5396
 32
0.0
 13
390.00024
 23
-279.5396
 33
0.0
  0
SOLID
  5
100BD
  8
0
 10
390.00024
 20
-292.0017
 30
0.0
 11
390.00024
 21
-279.5379
 31
0.0
 12
390.0005
 22
-292.0017
 32
0.0
 13
390.0005
 23
-292.0017
 33
0.0
  0
SOLID
  5
100BE
  8
0
 10
390.0005
 20
-292.0017
 30
0.0
 11
390.00024
 21
-279.5379
 31
0.0
 12
390.0005
 22
-267.0758
 32
0.0
 13
390.0005
 23
-267.0758
 33
0.0
  0
SOLID
  5
100BF
  8
0
 10
390.0005
 20
-292.0017
 30
0.0
 11
390.0005
 21
-267.0758
 31
0.0
 12
393.9717
 22
-292.0017
 32
0.0
 13
393.9717
 23
-292.0017
 33
0.0
  0
SOLID
  5
100C0
  8
0
 10
393.9717
 20
-292.0017
 30
0.0
 11
390.0005
 21
-267.0758
 31
0.0
 12
393.9717
 22
-267.0605502748057
 32
0.0
 13
393.9717
 23
-267.0605502748057
 33
0.0
  0
SOLID
  5
100C1
  8
0
 10
393.9717
 20
-292.0017
 30
0.0
 11
393.9717
 21
-282.1647
 31
0.0
 12
394.08252
 22
-292.0017
 32
0.0
 13
394.08252
 23
-292.0017
 33
0.0
  0
SOLID
  5
100C2
  8
0
 10
394.08252
 20
-292.0017
 30
0.0
 11
393.9717
 21
-282.1647
 31
0.0
 12
394.08252
 22
-282.372824789905
 32
0.0
 13
394.08252
 23
-282.372824789905
 33
0.0
  0
SOLID
  5
100C3
  8
0
 10
393.9717
 20
-282.1647
 30
0.0
 11
393.9717
 21
-267.0605502748057
 31
0.0
 12
394.08252
 22
-281.3154374704627
 32
0.0
 13
394.08252
 23
-281.3154374704627
 33
0.0
  0
SOLID
  5
100C4
  8
0
 10
394.08252
 20
-281.3154374704627
 30
0.0
 11
393.9717
 21
-267.0605502748057
 31
0.0
 12
394.08252
 22
-267.0601247171541
 32
0.0
 13
394.08252
 23
-267.0601247171541
 33
0.0
  0
SOLID
  5
100C5
  8
0
 10
394.08252
 20
-292.0017
 30
0.0
 11
394.08252
 21
-282.372824789905
 31
0.0
 12
394.08552
 22
-292.0017
 32
0.0
 13
394.08552
 23
-292.0017
 33
0.0
  0
SOLID
  5
100C6
  8
0
 10
394.08552
 20
-292.0017
 30
0.0
 11
394.08252
 21
-282.372824789905
 31
0.0
 12
394.08552
 22
-282.378458920655
 32
0.0
 13
394.08552
 23
-282.378458920655
 33
0.0
  0
SOLID
  5
100C7
  8
0
 10
394.08252
 20
-281.3154374704627
 30
0.0
 11
394.08252
 21
-276.1669
 31
0.0
 12
394.08552
 22
-281.2924471475192
 32
0.0
 13
394.08552
 23
-281.2924471475192
 33
0.0
  0
SOLID
  5
100C8
  8
0
 10
394.08552
 20
-281.2924471475192
 30
0.0
 11
394.08252
 21
-276.1669
 31
0.0
 12
394.08552
 22
-276.2062397088382
 32
0.0
 13
394.08552
 23
-276.2062397088382
 33
0.0
  0
SOLID
  5
100C9
  8
0
 10
394.08252
 20
-276.1669
 30
0.0
 11
394.08252
 21
-267.0601247171541
 31
0.0
 12
394.08552
 22
-271.6972
 32
0.0
 13
394.08552
 23
-271.6972
 33
0.0
  0
SOLID
  5
100CA
  8
0
 10
394.08552
 20
-271.6972
 30
0.0
 11
394.08252
 21
-267.0601247171541
 31
0.0
 12
394.08552
 22
-267.0601131969145
 32
0.0
 13
394.08552
 23
-267.0601131969145
 33
0.0
  0
SOLID
  5
100CB
  8
0
 10
394.08552
 20
-292.0017
 30
0.0
 11
394.08552
 21
-282.378458920655
 31
0.0
 12
394.14944
 22
-292.0017
 32
0.0
 13
394.14944
 23
-292.0017
 33
0.0
  0
SOLID
  5
100CC
  8
0
 10
394.14944
 20
-292.0017
 30
0.0
 11
394.08552
 21
-282.378458920655
 31
0.0
 12
394.14944
 22
-282.4985034665018
 32
0.0
 13
394.14944
 23
-282.4985034665018
 33
0.0
  0
SOLID
  5
100CD
  8
0
 10
394.08552
 20
-281.2924471475192
 30
0.0
 11
394.08552
 21
-276.2062397088382
 31
0.0
 12
394.14944
 22
-280.8026
 32
0.0
 13
394.14944
 23
-280.8026
 33
0.0
  0
SOLID
  5
100CE
  8
0
 10
394.14944
 20
-280.8026
 30
0.0
 11
394.08552
 21
-276.2062397088382
 31
0.0
 12
394.14944
 22
-277.0444377718223
 32
0.0
 13
394.14944
 23
-277.0444377718223
 33
0.0
  0
SOLID
  5
100CF
  8
0
 10
394.08552
 20
-271.6972
 30
0.0
 11
394.08552
 21
-267.0601131969145
 31
0.0
 12
394.14944
 22
-271.7306655694694
 32
0.0
 13
394.14944
 23
-271.7306655694694
 33
0.0
  0
SOLID
  5
100D0
  8
0
 10
394.14944
 20
-271.7306655694694
 30
0.0
 11
394.08552
 21
-267.0601131969145
 31
0.0
 12
394.14944
 22
-267.059867739009
 32
0.0
 13
394.14944
 23
-267.059867739009
 33
0.0
  0
SOLID
  5
100D1
  8
0
 10
394.14944
 20
-292.0017
 30
0.0
 11
394.14944
 21
-282.4985034665018
 31
0.0
 12
394.24669
 22
-292.0017
 32
0.0
 13
394.24669
 23
-292.0017
 33
0.0
  0
SOLID
  5
100D2
  8
0
 10
394.24669
 20
-292.0017
 30
0.0
 11
394.14944
 21
-282.4985034665018
 31
0.0
 12
394.24669
 22
-282.681143204981
 32
0.0
 13
394.24669
 23
-282.681143204981
 33
0.0
  0
SOLID
  5
100D3
  8
0
 10
394.14944
 20
-280.8026
 30
0.0
 11
394.14944
 21
-277.0444377718223
 31
0.0
 12
394.24669
 22
-280.6032696756801
 32
0.0
 13
394.24669
 23
-280.6032696756801
 33
0.0
  0
SOLID
  5
100D4
  8
0
 10
394.24669
 20
-280.6032696756801
 30
0.0
 11
394.14944
 21
-277.0444377718223
 31
0.0
 12
394.24669
 22
-278.3197
 32
0.0
 13
394.24669
 23
-278.3197
 33
0.0
  0
SOLID
  5
100D5
  8
0
 10
394.14944
 20
-271.7306655694694
 30
0.0
 11
394.14944
 21
-267.059867739009
 31
0.0
 12
394.24669
 22
-271.7815811926059
 32
0.0
 13
394.24669
 23
-271.7815811926059
 33
0.0
  0
SOLID
  5
100D6
  8
0
 10
394.24669
 20
-271.7815811926059
 30
0.0
 11
394.14944
 21
-267.059867739009
 31
0.0
 12
394.24669
 22
-267.0594942912413
 32
0.0
 13
394.24669
 23
-267.0594942912413
 33
0.0
  0
SOLID
  5
100D7
  8
0
 10
394.24669
 20
-292.0017
 30
0.0
 11
394.24669
 21
-282.681143204981
 31
0.0
 12
394.39426
 22
-292.0017
 32
0.0
 13
394.39426
 23
-292.0017
 33
0.0
  0
SOLID
  5
100D8
  8
0
 10
394.39426
 20
-292.0017
 30
0.0
 11
394.24669
 21
-282.681143204981
 31
0.0
 12
394.39426
 22
-282.9582860965735
 32
0.0
 13
394.39426
 23
-282.9582860965735
 33
0.0
  0
SOLID
  5
100D9
  8
0
 10
394.24669
 20
-280.6032696756801
 30
0.0
 11
394.24669
 21
-278.3197
 31
0.0
 12
394.39426
 22
-280.3008
 32
0.0
 13
394.39426
 23
-280.3008
 33
0.0
  0
SOLID
  5
100DA
  8
0
 10
394.39426
 20
-280.3008
 30
0.0
 11
394.24669
 21
-278.3197
 31
0.0
 12
394.39426
 22
-278.6594569286094
 32
0.0
 13
394.39426
 23
-278.6594569286094
 33
0.0
  0
SOLID
  5
100DB
  8
0
 10
394.24669
 20
-271.7815811926059
 30
0.0
 11
394.24669
 21
-267.0594942912413
 31
0.0
 12
394.39426
 22
-271.8588420512821
 32
0.0
 13
394.39426
 23
-271.8588420512821
 33
0.0
  0
SOLID
  5
100DC
  8
0
 10
394.39426
 20
-271.8588420512821
 30
0.0
 11
394.24669
 21
-267.0594942912413
 31
0.0
 12
394.39426
 22
-267.0589276106543
 32
0.0
 13
394.39426
 23
-267.0589276106543
 33
0.0
  0
SOLID
  5
100DD
  8
0
 10
394.39426
 20
-292.0017
 30
0.0
 11
394.39426
 21
-282.9582860965735
 31
0.0
 12
394.62209
 22
-292.0017
 32
0.0
 13
394.62209
 23
-292.0017
 33
0.0
  0
SOLID
  5
100DE
  8
0
 10
394.62209
 20
-292.0017
 30
0.0
 11
394.39426
 21
-282.9582860965735
 31
0.0
 12
394.62209
 22
-283.3861607661645
 32
0.0
 13
394.62209
 23
-283.3861607661645
 33
0.0
  0
SOLID
  5
100DF
  8
0
 10
394.39426
 20
-280.3008
 30
0.0
 11
394.39426
 21
-278.6594569286094
 31
0.0
 12
394.62209
 22
-280.0166797577797
 32
0.0
 13
394.62209
 23
-280.0166797577797
 33
0.0
  0
SOLID
  5
100E0
  8
0
 10
394.62209
 20
-280.0166797577797
 30
0.0
 11
394.39426
 21
-278.6594569286094
 31
0.0
 12
394.62209
 22
-279.184
 32
0.0
 13
394.62209
 23
-279.184
 33
0.0
  0
SOLID
  5
100E1
  8
0
 10
394.39426
 20
-271.8588420512821
 30
0.0
 11
394.39426
 21
-267.0589276106543
 31
0.0
 12
394.62209
 22
-271.9781233512225
 32
0.0
 13
394.62209
 23
-271.9781233512225
 33
0.0
  0
SOLID
  5
100E2
  8
0
 10
394.62209
 20
-271.9781233512225
 30
0.0
 11
394.39426
 21
-267.0589276106543
 31
0.0
 12
394.62209
 22
-267.0580527252567
 32
0.0
 13
394.62209
 23
-267.0580527252567
 33
0.0
  0
SOLID
  5
100E3
  8
0
 10
394.62209
 20
-292.0017
 30
0.0
 11
394.62209
 21
-283.3861607661645
 31
0.0
 12
394.69729
 22
-292.0017
 32
0.0
 13
394.69729
 23
-292.0017
 33
0.0
  0
SOLID
  5
100E4
  8
0
 10
394.69729
 20
-292.0017
 30
0.0
 11
394.62209
 21
-283.3861607661645
 31
0.0
 12
394.69729
 22
-283.5273896436312
 32
0.0
 13
394.69729
 23
-283.5273896436312
 33
0.0
  0
SOLID
  5
100E5
  8
0
 10
394.62209
 20
-280.0166797577797
 30
0.0
 11
394.62209
 21
-279.184
 31
0.0
 12
394.69729
 22
-279.9229
 32
0.0
 13
394.69729
 23
-279.9229
 33
0.0
  0
SOLID
  5
100E6
  8
0
 10
394.62209
 20
-271.9781233512225
 30
0.0
 11
394.62209
 21
-267.0580527252567
 31
0.0
 12
394.69729
 22
-272.0174946094216
 32
0.0
 13
394.69729
 23
-272.0174946094216
 33
0.0
  0
SOLID
  5
100E7
  8
0
 10
394.69729
 20
-272.0174946094216
 30
0.0
 11
394.62209
 21
-267.0580527252567
 31
0.0
 12
394.69729
 22
-267.0577639512502
 32
0.0
 13
394.69729
 23
-267.0577639512502
 33
0.0
  0
SOLID
  5
100E8
  8
0
 10
394.69729
 20
-292.0017
 30
0.0
 11
394.69729
 21
-283.5273896436312
 31
0.0
 12
394.92402
 22
-292.0017
 32
0.0
 13
394.92402
 23
-292.0017
 33
0.0
  0
SOLID
  5
100E9
  8
0
 10
394.92402
 20
-292.0017
 30
0.0
 11
394.69729
 21
-283.5273896436312
 31
0.0
 12
394.92402
 22
-283.9531984652804
 32
0.0
 13
394.92402
 23
-283.9531984652804
 33
0.0
  0
SOLID
  5
100EA
  8
0
 10
394.69729
 20
-272.0174946094216
 30
0.0
 11
394.69729
 21
-267.0577639512502
 31
0.0
 12
394.92402
 22
-272.1362
 32
0.0
 13
394.92402
 23
-272.1362
 33
0.0
  0
SOLID
  5
100EB
  8
0
 10
394.92402
 20
-272.1362
 30
0.0
 11
394.69729
 21
-267.0577639512502
 31
0.0
 12
394.92402
 22
-267.0568932899404
 32
0.0
 13
394.92402
 23
-267.0568932899404
 33
0.0
  0
SOLID
  5
100EC
  8
0
 10
394.92402
 20
-292.0017
 30
0.0
 11
394.92402
 21
-283.9531984652804
 31
0.0
 12
395.68179
 22
-292.0017
 32
0.0
 13
395.68179
 23
-292.0017
 33
0.0
  0
SOLID
  5
100ED
  8
0
 10
395.68179
 20
-292.0017
 30
0.0
 11
394.92402
 21
-283.9531984652804
 31
0.0
 12
395.68179
 22
-285.3763235514232
 32
0.0
 13
395.68179
 23
-285.3763235514232
 33
0.0
  0
SOLID
  5
100EE
  8
0
 10
394.92402
 20
-272.1362
 30
0.0
 11
394.92402
 21
-267.0568932899404
 31
0.0
 12
395.68179
 22
-272.4196549185033
 32
0.0
 13
395.68179
 23
-272.4196549185033
 33
0.0
  0
SOLID
  5
100EF
  8
0
 10
395.68179
 20
-272.4196549185033
 30
0.0
 11
394.92402
 21
-267.0568932899404
 31
0.0
 12
395.68179
 22
-267.0539833926146
 32
0.0
 13
395.68179
 23
-267.0539833926146
 33
0.0
  0
SOLID
  5
100F0
  8
0
 10
395.68179
 20
-292.0017
 30
0.0
 11
395.68179
 21
-285.3763235514232
 31
0.0
 12
395.89583
 22
-291.9940226445048
 32
0.0
 13
395.89583
 23
-291.9940226445048
 33
0.0
  0
SOLID
  5
100F1
  8
0
 10
395.89583
 20
-291.9940226445048
 30
0.0
 11
395.68179
 21
-285.3763235514232
 31
0.0
 12
395.89583
 22
-285.7783
 32
0.0
 13
395.89583
 23
-285.7783
 33
0.0
  0
SOLID
  5
100F2
  8
0
 10
395.68179
 20
-272.4196549185033
 30
0.0
 11
395.68179
 21
-267.0539833926146
 31
0.0
 12
395.89583
 22
-272.4997197016914
 32
0.0
 13
395.89583
 23
-272.4997197016914
 33
0.0
  0
SOLID
  5
100F3
  8
0
 10
395.89583
 20
-272.4997197016914
 30
0.0
 11
395.68179
 21
-267.0539833926146
 31
0.0
 12
395.89583
 22
-267.0531614619184
 32
0.0
 13
395.89583
 23
-267.0531614619184
 33
0.0
  0
SOLID
  5
100F4
  8
0
 10
395.89583
 20
-291.9940226445048
 30
0.0
 11
395.89583
 21
-285.7783
 31
0.0
 12
395.89952
 22
-291.9938902886751
 32
0.0
 13
395.89952
 23
-291.9938902886751
 33
0.0
  0
SOLID
  5
100F5
  8
0
 10
395.89952
 20
-291.9938902886751
 30
0.0
 11
395.89583
 21
-285.7783
 31
0.0
 12
395.89952
 22
-285.7796394229864
 32
0.0
 13
395.89952
 23
-285.7796394229864
 33
0.0
  0
SOLID
  5
100F6
  8
0
 10
395.89583
 20
-272.4997197016914
 30
0.0
 11
395.89583
 21
-267.0531614619184
 31
0.0
 12
395.89952
 22
-272.5011
 32
0.0
 13
395.89952
 23
-272.5011
 33
0.0
  0
SOLID
  5
100F7
  8
0
 10
395.89952
 20
-272.5011
 30
0.0
 11
395.89583
 21
-267.0531614619184
 31
0.0
 12
395.89952
 22
-267.0531472920237
 32
0.0
 13
395.89952
 23
-267.0531472920237
 33
0.0
  0
SOLID
  5
100F8
  8
0
 10
395.89952
 20
-291.9938902886751
 30
0.0
 11
395.89952
 21
-285.7796394229864
 31
0.0
 12
396.27227
 22
-291.9805201977535
 32
0.0
 13
396.27227
 23
-291.9805201977535
 33
0.0
  0
SOLID
  5
100F9
  8
0
 10
396.27227
 20
-291.9805201977535
 30
0.0
 11
395.89952
 21
-285.7796394229864
 31
0.0
 12
396.27227
 22
-285.9149429238477
 32
0.0
 13
396.27227
 23
-285.9149429238477
 33
0.0
  0
SOLID
  5
100FA
  8
0
 10
395.89952
 20
-272.5011
 30
0.0
 11
395.89952
 21
-267.0531472920237
 31
0.0
 12
396.27227
 22
-272.709
 32
0.0
 13
396.27227
 23
-272.709
 33
0.0
  0
SOLID
  5
100FB
  8
0
 10
396.27227
 20
-272.709
 30
0.0
 11
395.89952
 21
-267.0531472920237
 31
0.0
 12
396.27227
 22
-267.0517159022508
 32
0.0
 13
396.27227
 23
-267.0517159022508
 33
0.0
  0
SOLID
  5
100FC
  8
0
 10
396.27227
 20
-291.9805201977535
 30
0.0
 11
396.27227
 21
-285.9149429238477
 31
0.0
 12
396.89294
 22
-291.9582575167816
 32
0.0
 13
396.89294
 23
-291.9582575167816
 33
0.0
  0
SOLID
  5
100FD
  8
0
 10
396.89294
 20
-291.9582575167816
 30
0.0
 11
396.27227
 21
-285.9149429238477
 31
0.0
 12
396.89294
 22
-286.1402382260063
 32
0.0
 13
396.89294
 23
-286.1402382260063
 33
0.0
  0
SOLID
  5
100FE
  8
0
 10
396.27227
 20
-272.709
 30
0.0
 11
396.27227
 21
-267.0517159022508
 31
0.0
 12
396.89294
 22
-273.277
 32
0.0
 13
396.89294
 23
-273.277
 33
0.0
  0
SOLID
  5
100FF
  8
0
 10
396.89294
 20
-273.277
 30
0.0
 11
396.27227
 21
-267.0517159022508
 31
0.0
 12
396.89294
 22
-267.0493324798756
 32
0.0
 13
396.89294
 23
-267.0493324798756
 33
0.0
  0
SOLID
  5
10100
  8
0
 10
396.89294
 20
-291.9582575167816
 30
0.0
 11
396.89294
 21
-286.1402382260063
 31
0.0
 12
397.2397
 22
-291.9458196556737
 32
0.0
 13
397.2397
 23
-291.9458196556737
 33
0.0
  0
SOLID
  5
10101
  8
0
 10
397.2397
 20
-291.9458196556737
 30
0.0
 11
396.89294
 21
-286.1402382260063
 31
0.0
 12
397.2397
 22
-286.2661076880015
 32
0.0
 13
397.2397
 23
-286.2661076880015
 33
0.0
  0
SOLID
  5
10102
  8
0
 10
396.89294
 20
-273.277
 30
0.0
 11
396.89294
 21
-267.0493324798756
 31
0.0
 12
397.2397
 22
-273.5634139295839
 32
0.0
 13
397.2397
 23
-273.5634139295839
 33
0.0
  0
SOLID
  5
10103
  8
0
 10
397.2397
 20
-273.5634139295839
 30
0.0
 11
396.89294
 21
-267.0493324798756
 31
0.0
 12
397.2397
 22
-267.0480008937786
 32
0.0
 13
397.2397
 23
-267.0480008937786
 33
0.0
  0
SOLID
  5
10104
  8
0
 10
397.2397
 20
-291.9458196556737
 30
0.0
 11
397.2397
 21
-286.2661076880015
 31
0.0
 12
397.2487
 22
-291.945496836577
 32
0.0
 13
397.2487
 23
-291.945496836577
 33
0.0
  0
SOLID
  5
10105
  8
0
 10
397.2487
 20
-291.945496836577
 30
0.0
 11
397.2397
 21
-286.2661076880015
 31
0.0
 12
397.2487
 22
-286.2693745733341
 32
0.0
 13
397.2487
 23
-286.2693745733341
 33
0.0
  0
SOLID
  5
10106
  8
0
 10
397.2487
 20
-280.2187
 30
0.0
 11
397.2397
 21
-279.8429
 31
0.0
 12
397.2487
 22
-279.5677427421383
 32
0.0
 13
397.2487
 23
-279.5677427421383
 33
0.0
  0
SOLID
  5
10107
  8
0
 10
397.2397
 20
-273.5634139295839
 30
0.0
 11
397.2397
 21
-267.0480008937786
 31
0.0
 12
397.2487
 22
-273.5708476744399
 32
0.0
 13
397.2487
 23
-273.5708476744399
 33
0.0
  0
SOLID
  5
10108
  8
0
 10
397.2487
 20
-273.5708476744399
 30
0.0
 11
397.2397
 21
-267.0480008937786
 31
0.0
 12
397.2487
 22
-267.0479663330597
 32
0.0
 13
397.2487
 23
-267.0479663330597
 33
0.0
  0
SOLID
  5
10109
  8
0
 10
397.2487
 20
-291.945496836577
 30
0.0
 11
397.2487
 21
-286.2693745733341
 31
0.0
 12
397.42409
 22
-291.9392058097582
 32
0.0
 13
397.42409
 23
-291.9392058097582
 33
0.0
  0
SOLID
  5
1010A
  8
0
 10
397.42409
 20
-291.9392058097582
 30
0.0
 11
397.2487
 21
-286.2693745733341
 31
0.0
 12
397.42409
 22
-286.3330389087226
 32
0.0
 13
397.42409
 23
-286.3330389087226
 33
0.0
  0
SOLID
  5
1010B
  8
0
 10
397.2487
 20
-280.2187
 30
0.0
 11
397.2487
 21
-279.5677427421383
 31
0.0
 12
397.42409
 22
-281.735
 32
0.0
 13
397.42409
 23
-281.735
 33
0.0
  0
SOLID
  5
1010C
  8
0
 10
397.42409
 20
-281.735
 30
0.0
 11
397.2487
 21
-279.5677427421383
 31
0.0
 12
397.42409
 22
-274.2055392469626
 32
0.0
 13
397.42409
 23
-274.2055392469626
 33
0.0
  0
SOLID
  5
1010D
  8
0
 10
397.2487
 20
-273.5708476744399
 30
0.0
 11
397.2487
 21
-267.0479663330597
 31
0.0
 12
397.42409
 22
-273.7157148422497
 32
0.0
 13
397.42409
 23
-273.7157148422497
 33
0.0
  0
SOLID
  5
1010E
  8
0
 10
397.42409
 20
-273.7157148422497
 30
0.0
 11
397.2487
 21
-267.0479663330597
 31
0.0
 12
397.42409
 22
-267.0472928214507
 32
0.0
 13
397.42409
 23
-267.0472928214507
 33
0.0
  0
SOLID
  5
1010F
  8
0
 10
397.42409
 20
-291.9392058097582
 30
0.0
 11
397.42409
 21
-286.3330389087226
 31
0.0
 12
397.43969
 22
-291.9386462566573
 32
0.0
 13
397.43969
 23
-291.9386462566573
 33
0.0
  0
SOLID
  5
10110
  8
0
 10
397.43969
 20
-291.9386462566573
 30
0.0
 11
397.42409
 21
-286.3330389087226
 31
0.0
 12
397.43969
 22
-286.3387015099659
 32
0.0
 13
397.43969
 23
-286.3387015099659
 33
0.0
  0
SOLID
  5
10111
  8
0
 10
397.42409
 20
-281.735
 30
0.0
 11
397.42409
 21
-274.2055392469626
 31
0.0
 12
397.43969
 22
-281.86045091787
 32
0.0
 13
397.43969
 23
-281.86045091787
 33
0.0
  0
SOLID
  5
10112
  8
0
 10
397.43969
 20
-281.86045091787
 30
0.0
 11
397.42409
 21
-274.2055392469626
 31
0.0
 12
397.43969
 22
-273.7286
 32
0.0
 13
397.43969
 23
-273.7286
 33
0.0
  0
SOLID
  5
10113
  8
0
 10
397.42409
 20
-273.7157148422497
 30
0.0
 11
397.42409
 21
-267.0472928214507
 31
0.0
 12
397.43969
 22
-273.7286
 32
0.0
 13
397.43969
 23
-273.7286
 33
0.0
  0
SOLID
  5
10114
  8
0
 10
397.43969
 20
-273.7286
 30
0.0
 11
397.42409
 21
-267.0472928214507
 31
0.0
 12
397.43969
 22
-267.0472329162047
 32
0.0
 13
397.43969
 23
-267.0472329162047
 33
0.0
  0
SOLID
  5
10115
  8
0
 10
397.43969
 20
-291.9386462566573
 30
0.0
 11
397.43969
 21
-286.3387015099659
 31
0.0
 12
397.64362
 22
-291.9313315346139
 32
0.0
 13
397.64362
 23
-291.9313315346139
 33
0.0
  0
SOLID
  5
10116
  8
0
 10
397.64362
 20
-291.9313315346139
 30
0.0
 11
397.43969
 21
-286.3387015099659
 31
0.0
 12
397.64362
 22
-286.4127255017316
 32
0.0
 13
397.64362
 23
-286.4127255017316
 33
0.0
  0
SOLID
  5
10117
  8
0
 10
397.43969
 20
-281.86045091787
 30
0.0
 11
397.43969
 21
-267.0472329162047
 31
0.0
 12
397.64362
 22
-283.5004
 32
0.0
 13
397.64362
 23
-283.5004
 33
0.0
  0
SOLID
  5
10118
  8
0
 10
397.64362
 20
-283.5004
 30
0.0
 11
397.43969
 21
-267.0472329162047
 31
0.0
 12
397.64362
 22
-267.046449808716
 32
0.0
 13
397.64362
 23
-267.046449808716
 33
0.0
  0
SOLID
  5
10119
  8
0
 10
397.64362
 20
-291.9313315346139
 30
0.0
 11
397.64362
 21
-286.4127255017316
 31
0.0
 12
398.92045
 22
-291.8855331893654
 32
0.0
 13
398.92045
 23
-291.8855331893654
 33
0.0
  0
SOLID
  5
1011A
  8
0
 10
398.92045
 20
-291.8855331893654
 30
0.0
 11
397.64362
 21
-286.4127255017316
 31
0.0
 12
398.92045
 22
-286.8761985238772
 32
0.0
 13
398.92045
 23
-286.8761985238772
 33
0.0
  0
SOLID
  5
1011B
  8
0
 10
397.64362
 20
-283.5004
 30
0.0
 11
397.64362
 21
-267.046449808716
 31
0.0
 12
398.92045
 22
-284.4244
 32
0.0
 13
398.92045
 23
-284.4244
 33
0.0
  0
SOLID
  5
1011C
  8
0
 10
398.92045
 20
-284.4244
 30
0.0
 11
397.64362
 21
-267.046449808716
 31
0.0
 12
398.92045
 22
-267.0415466795309
 32
0.0
 13
398.92045
 23
-267.0415466795309
 33
0.0
  0
SOLID
  5
1011D
  8
0
 10
398.92045
 20
-291.8855331893654
 30
0.0
 11
398.92045
 21
-286.8761985238772
 31
0.0
 12
399.82572
 22
-291.8530622511801
 32
0.0
 13
399.82572
 23
-291.8530622511801
 33
0.0
  0
SOLID
  5
1011E
  8
0
 10
399.82572
 20
-291.8530622511801
 30
0.0
 11
398.92045
 21
-286.8761985238772
 31
0.0
 12
399.82572
 22
-287.2048
 32
0.0
 13
399.82572
 23
-287.2048
 33
0.0
  0
SOLID
  5
1011F
  8
0
 10
398.92045
 20
-284.4244
 30
0.0
 11
398.92045
 21
-267.0415466795309
 31
0.0
 12
399.82572
 22
-282.5348046226864
 32
0.0
 13
399.82572
 23
-282.5348046226864
 33
0.0
  0
SOLID
  5
10120
  8
0
 10
399.82572
 20
-282.5348046226864
 30
0.0
 11
398.92045
 21
-267.0415466795309
 31
0.0
 12
399.82572
 22
-267.0380703704237
 32
0.0
 13
399.82572
 23
-267.0380703704237
 33
0.0
  0
SOLID
  5
10121
  8
0
 10
399.82572
 20
-291.8530622511801
 30
0.0
 11
399.82572
 21
-287.2048
 31
0.0
 12
400.36405
 22
-291.8337530062551
 32
0.0
 13
400.36405
 23
-291.8337530062551
 33
0.0
  0
SOLID
  5
10122
  8
0
 10
400.36405
 20
-291.8337530062551
 30
0.0
 11
399.82572
 21
-287.2048
 31
0.0
 12
400.36405
 22
-287.3952263259084
 32
0.0
 13
400.36405
 23
-287.3952263259084
 33
0.0
  0
SOLID
  5
10123
  8
0
 10
399.82572
 20
-282.5348046226864
 30
0.0
 11
399.82572
 21
-267.0380703704237
 31
0.0
 12
400.36405
 22
-281.4111333649739
 32
0.0
 13
400.36405
 23
-281.4111333649739
 33
0.0
  0
SOLID
  5
10124
  8
0
 10
400.36405
 20
-281.4111333649739
 30
0.0
 11
399.82572
 21
-267.0380703704237
 31
0.0
 12
400.36405
 22
-267.0360031402253
 32
0.0
 13
400.36405
 23
-267.0360031402253
 33
0.0
  0
SOLID
  5
10125
  8
0
 10
400.36405
 20
-291.8337530062551
 30
0.0
 11
400.36405
 21
-287.3952263259084
 31
0.0
 12
400.39535
 22
-291.8326303131743
 32
0.0
 13
400.39535
 23
-291.8326303131743
 33
0.0
  0
SOLID
  5
10126
  8
0
 10
400.39535
 20
-291.8326303131743
 30
0.0
 11
400.36405
 21
-287.3952263259084
 31
0.0
 12
400.39535
 22
-287.4062982409066
 32
0.0
 13
400.39535
 23
-287.4062982409066
 33
0.0
  0
SOLID
  5
10127
  8
0
 10
400.36405
 20
-281.4111333649739
 30
0.0
 11
400.36405
 21
-275.9775
 31
0.0
 12
400.39535
 22
-281.3458
 32
0.0
 13
400.39535
 23
-281.3458
 33
0.0
  0
SOLID
  5
10128
  8
0
 10
400.36405
 20
-275.9775
 30
0.0
 11
400.36405
 21
-267.0360031402253
 31
0.0
 12
400.39535
 22
-275.9760972733277
 32
0.0
 13
400.39535
 23
-275.9760972733277
 33
0.0
  0
SOLID
  5
10129
  8
0
 10
400.39535
 20
-275.9760972733277
 30
0.0
 11
400.36405
 21
-267.0360031402253
 31
0.0
 12
400.39535
 22
-267.0358829457253
 32
0.0
 13
400.39535
 23
-267.0358829457253
 33
0.0
  0
SOLID
  5
1012A
  8
0
 10
400.39535
 20
-291.8326303131743
 30
0.0
 11
400.39535
 21
-287.4062982409066
 31
0.0
 12
401.21197
 22
-291.8033391430915
 32
0.0
 13
401.21197
 23
-291.8033391430915
 33
0.0
  0
SOLID
  5
1012B
  8
0
 10
401.21197
 20
-291.8033391430915
 30
0.0
 11
400.39535
 21
-287.4062982409066
 31
0.0
 12
401.21197
 22
-287.6951655644132
 32
0.0
 13
401.21197
 23
-287.6951655644132
 33
0.0
  0
SOLID
  5
1012C
  8
0
 10
400.39535
 20
-275.9760972733277
 30
0.0
 11
400.39535
 21
-267.0358829457253
 31
0.0
 12
401.21197
 22
-275.9395
 32
0.0
 13
401.21197
 23
-275.9395
 33
0.0
  0
SOLID
  5
1012D
  8
0
 10
401.21197
 20
-275.9395
 30
0.0
 11
400.39535
 21
-267.0358829457253
 31
0.0
 12
401.21197
 22
-267.0327470596989
 32
0.0
 13
401.21197
 23
-267.0327470596989
 33
0.0
  0
SOLID
  5
1012E
  8
0
 10
401.21197
 20
-291.8033391430915
 30
0.0
 11
401.21197
 21
-287.6951655644132
 31
0.0
 12
401.36361
 22
-291.7979
 32
0.0
 13
401.36361
 23
-291.7979
 33
0.0
  0
SOLID
  5
1012F
  8
0
 10
401.36361
 20
-291.7979
 30
0.0
 11
401.21197
 21
-287.6951655644132
 31
0.0
 12
401.36361
 22
-287.748805985829
 32
0.0
 13
401.36361
 23
-287.748805985829
 33
0.0
  0
SOLID
  5
10130
  8
0
 10
401.21197
 20
-275.9395
 30
0.0
 11
401.21197
 21
-267.0327470596989
 31
0.0
 12
401.36361
 22
-276.0204434474406
 32
0.0
 13
401.36361
 23
-276.0204434474406
 33
0.0
  0
SOLID
  5
10131
  8
0
 10
401.36361
 20
-276.0204434474406
 30
0.0
 11
401.21197
 21
-267.0327470596989
 31
0.0
 12
401.36361
 22
-267.0321647499868
 32
0.0
 13
401.36361
 23
-267.0321647499868
 33
0.0
  0
SOLID
  5
10132
  8
0
 10
401.36361
 20
-291.7979
 30
0.0
 11
401.36361
 21
-287.748805985829
 31
0.0
 12
401.49533
 22
-291.585494124796
 32
0.0
 13
401.49533
 23
-291.585494124796
 33
0.0
  0
SOLID
  5
10133
  8
0
 10
401.49533
 20
-291.585494124796
 30
0.0
 11
401.36361
 21
-287.748805985829
 31
0.0
 12
401.49533
 22
-287.7954
 32
0.0
 13
401.49533
 23
-287.7954
 33
0.0
  0
SOLID
  5
10134
  8
0
 10
401.36361
 20
-276.0204434474406
 30
0.0
 11
401.36361
 21
-267.0321647499868
 31
0.0
 12
401.49533
 22
-276.0907538595804
 32
0.0
 13
401.49533
 23
-276.0907538595804
 33
0.0
  0
SOLID
  5
10135
  8
0
 10
401.49533
 20
-276.0907538595804
 30
0.0
 11
401.36361
 21
-267.0321647499868
 31
0.0
 12
401.49533
 22
-267.0316589346659
 32
0.0
 13
401.49533
 23
-267.0316589346659
 33
0.0
  0
SOLID
  5
10136
  8
0
 10
401.49533
 20
-291.585494124796
 30
0.0
 11
401.49533
 21
-287.7954
 31
0.0
 12
401.51513
 22
-291.5535655161638
 32
0.0
 13
401.51513
 23
-291.5535655161638
 33
0.0
  0
SOLID
  5
10137
  8
0
 10
401.51513
 20
-291.5535655161638
 30
0.0
 11
401.49533
 21
-287.7954
 31
0.0
 12
401.51513
 22
-288.0249239733627
 32
0.0
 13
401.51513
 23
-288.0249239733627
 33
0.0
  0
SOLID
  5
10138
  8
0
 10
401.49533
 20
-276.0907538595804
 30
0.0
 11
401.49533
 21
-267.0316589346659
 31
0.0
 12
401.51513
 22
-276.1013228404516
 32
0.0
 13
401.51513
 23
-276.1013228404516
 33
0.0
  0
SOLID
  5
10139
  8
0
 10
401.51513
 20
-276.1013228404516
 30
0.0
 11
401.49533
 21
-267.0316589346659
 31
0.0
 12
401.51513
 22
-267.0315829010843
 32
0.0
 13
401.51513
 23
-267.0315829010843
 33
0.0
  0
SOLID
  5
1013A
  8
0
 10
401.51513
 20
-291.5535655161638
 30
0.0
 11
401.51513
 21
-288.0249239733627
 31
0.0
 12
401.6516
 22
-291.3335
 32
0.0
 13
401.6516
 23
-291.3335
 33
0.0
  0
SOLID
  5
1013B
  8
0
 10
401.6516
 20
-291.3335
 30
0.0
 11
401.51513
 21
-288.0249239733627
 31
0.0
 12
401.6516
 22
-289.6069005715869
 32
0.0
 13
401.6516
 23
-289.6069005715869
 33
0.0
  0
SOLID
  5
1013C
  8
0
 10
401.51513
 20
-276.1013228404516
 30
0.0
 11
401.51513
 21
-267.7626
 31
0.0
 12
401.6516
 22
-276.1741687404267
 32
0.0
 13
401.6516
 23
-276.1741687404267
 33
0.0
  0
SOLID
  5
1013D
  8
0
 10
401.6516
 20
-276.1741687404267
 30
0.0
 11
401.51513
 21
-267.7626
 31
0.0
 12
401.6516
 22
-268.0598180987078
 32
0.0
 13
401.6516
 23
-268.0598180987078
 33
0.0
  0
SOLID
  5
1013E
  8
0
 10
401.51513
 20
-267.7626
 30
0.0
 11
401.51513
 21
-267.0315829010843
 31
0.0
 12
401.6516
 22
-267.6833135317079
 32
0.0
 13
401.6516
 23
-267.6833135317079
 33
0.0
  0
SOLID
  5
1013F
  8
0
 10
401.6516
 20
-267.6833135317079
 30
0.0
 11
401.51513
 21
-267.0315829010843
 31
0.0
 12
401.6516
 22
-267.031058845384
 32
0.0
 13
401.6516
 23
-267.031058845384
 33
0.0
  0
SOLID
  5
10140
  8
0
 10
401.6516
 20
-291.3335
 30
0.0
 11
401.6516
 21
-289.6069005715869
 31
0.0
 12
401.67553
 22
-291.3552292552251
 32
0.0
 13
401.67553
 23
-291.3552292552251
 33
0.0
  0
SOLID
  5
10141
  8
0
 10
401.67553
 20
-291.3552292552251
 30
0.0
 11
401.6516
 21
-289.6069005715869
 31
0.0
 12
401.67553
 22
-289.8843
 32
0.0
 13
401.67553
 23
-289.8843
 33
0.0
  0
SOLID
  5
10142
  8
0
 10
401.6516
 20
-276.1741687404267
 30
0.0
 11
401.6516
 21
-268.0598180987078
 31
0.0
 12
401.67553
 22
-276.1869422612475
 32
0.0
 13
401.67553
 23
-276.1869422612475
 33
0.0
  0
SOLID
  5
10143
  8
0
 10
401.67553
 20
-276.1869422612475
 30
0.0
 11
401.6516
 21
-268.0598180987078
 31
0.0
 12
401.67553
 22
-268.1119352607366
 32
0.0
 13
401.67553
 23
-268.1119352607366
 33
0.0
  0
SOLID
  5
10144
  8
0
 10
401.6516
 20
-267.6833135317079
 30
0.0
 11
401.6516
 21
-267.031058845384
 31
0.0
 12
401.67553
 22
-267.6694106579171
 32
0.0
 13
401.67553
 23
-267.6694106579171
 33
0.0
  0
SOLID
  5
10145
  8
0
 10
401.67553
 20
-267.6694106579171
 30
0.0
 11
401.6516
 21
-267.031058845384
 31
0.0
 12
401.67553
 22
-267.0309669522726
 32
0.0
 13
401.67553
 23
-267.0309669522726
 33
0.0
  0
SOLID
  5
10146
  8
0
 10
401.67553
 20
-291.3552292552251
 30
0.0
 11
401.67553
 21
-289.8843
 31
0.0
 12
401.77343
 22
-291.4441257903915
 32
0.0
 13
401.77343
 23
-291.4441257903915
 33
0.0
  0
SOLID
  5
10147
  8
0
 10
401.77343
 20
-291.4441257903915
 30
0.0
 11
401.67553
 21
-289.8843
 31
0.0
 12
401.77343
 22
-289.7820805905272
 32
0.0
 13
401.77343
 23
-289.7820805905272
 33
0.0
  0
SOLID
  5
10148
  8
0
 10
401.67553
 20
-276.1869422612475
 30
0.0
 11
401.67553
 21
-268.1119352607366
 31
0.0
 12
401.77343
 22
-276.2392
 32
0.0
 13
401.77343
 23
-276.2392
 33
0.0
  0
SOLID
  5
10149
  8
0
 10
401.77343
 20
-276.2392
 30
0.0
 11
401.67553
 21
-268.1119352607366
 31
0.0
 12
401.77343
 22
-268.3251517322212
 32
0.0
 13
401.77343
 23
-268.3251517322212
 33
0.0
  0
SOLID
  5
1014A
  8
0
 10
401.67553
 20
-267.6694106579171
 30
0.0
 11
401.67553
 21
-267.0309669522726
 31
0.0
 12
401.77343
 22
-267.6125326243141
 32
0.0
 13
401.77343
 23
-267.6125326243141
 33
0.0
  0
SOLID
  5
1014B
  8
0
 10
401.77343
 20
-267.6125326243141
 30
0.0
 11
401.67553
 21
-267.0309669522726
 31
0.0
 12
401.77343
 22
-267.030591008453
 32
0.0
 13
401.77343
 23
-267.030591008453
 33
0.0
  0
SOLID
  5
1014C
  8
0
 10
401.77343
 20
-291.4441257903915
 30
0.0
 11
401.77343
 21
-289.7820805905272
 31
0.0
 12
401.96963
 22
-291.6222820743511
 32
0.0
 13
401.96963
 23
-291.6222820743511
 33
0.0
  0
SOLID
  5
1014D
  8
0
 10
401.96963
 20
-291.6222820743511
 30
0.0
 11
401.77343
 21
-289.7820805905272
 31
0.0
 12
401.96963
 22
-289.5772241233306
 32
0.0
 13
401.96963
 23
-289.5772241233306
 33
0.0
  0
SOLID
  5
1014E
  8
0
 10
401.77343
 20
-276.2392
 30
0.0
 11
401.77343
 21
-268.3251517322212
 31
0.0
 12
401.96963
 22
-276.3969132717028
 32
0.0
 13
401.96963
 23
-276.3969132717028
 33
0.0
  0
SOLID
  5
1014F
  8
0
 10
401.96963
 20
-276.3969132717028
 30
0.0
 11
401.77343
 21
-268.3251517322212
 31
0.0
 12
401.96963
 22
-268.7524558354414
 32
0.0
 13
401.96963
 23
-268.7524558354414
 33
0.0
  0
SOLID
  5
10150
  8
0
 10
401.77343
 20
-267.6125326243141
 30
0.0
 11
401.77343
 21
-267.030591008453
 31
0.0
 12
401.96963
 22
-267.4985441647339
 32
0.0
 13
401.96963
 23
-267.4985441647339
 33
0.0
  0
SOLID
  5
10151
  8
0
 10
401.96963
 20
-267.4985441647339
 30
0.0
 11
401.77343
 21
-267.030591008453
 31
0.0
 12
401.96963
 22
-267.0298375847818
 32
0.0
 13
401.96963
 23
-267.0298375847818
 33
0.0
  0
SOLID
  5
10152
  8
0
 10
401.96963
 20
-291.6222820743511
 30
0.0
 11
401.96963
 21
-289.5772241233306
 31
0.0
 12
402.01939
 22
-291.6674658495286
 32
0.0
 13
402.01939
 23
-291.6674658495286
 33
0.0
  0
SOLID
  5
10153
  8
0
 10
402.01939
 20
-291.6674658495286
 30
0.0
 11
401.96963
 21
-289.5772241233306
 31
0.0
 12
402.01939
 22
-289.5252686808856
 32
0.0
 13
402.01939
 23
-289.5252686808856
 33
0.0
  0
SOLID
  5
10154
  8
0
 10
402.01939
 20
-286.195965910552
 30
0.0
 11
401.96963
 21
-286.1735
 31
0.0
 12
402.01939
 22
-286.0775524307593
 32
0.0
 13
402.01939
 23
-286.0775524307593
 33
0.0
  0
SOLID
  5
10155
  8
0
 10
401.96963
 20
-276.3969132717028
 30
0.0
 11
401.96963
 21
-268.7524558354414
 31
0.0
 12
402.01939
 22
-276.4369123155353
 32
0.0
 13
402.01939
 23
-276.4369123155353
 33
0.0
  0
SOLID
  5
10156
  8
0
 10
402.01939
 20
-276.4369123155353
 30
0.0
 11
401.96963
 21
-268.7524558354414
 31
0.0
 12
402.01939
 22
-268.8608281706924
 32
0.0
 13
402.01939
 23
-268.8608281706924
 33
0.0
  0
SOLID
  5
10157
  8
0
 10
401.96963
 20
-267.4985441647339
 30
0.0
 11
401.96963
 21
-267.0298375847818
 31
0.0
 12
402.01939
 22
-267.4696345533744
 32
0.0
 13
402.01939
 23
-267.4696345533744
 33
0.0
  0
SOLID
  5
10158
  8
0
 10
402.01939
 20
-267.4696345533744
 30
0.0
 11
401.96963
 21
-267.0298375847818
 31
0.0
 12
402.01939
 22
-267.0296465024073
 32
0.0
 13
402.01939
 23
-267.0296465024073
 33
0.0
  0
SOLID
  5
10159
  8
0
 10
402.01939
 20
-291.6674658495286
 30
0.0
 11
402.01939
 21
-289.5252686808856
 31
0.0
 12
402.04544
 22
-291.6911201369759
 32
0.0
 13
402.04544
 23
-291.6911201369759
 33
0.0
  0
SOLID
  5
1015A
  8
0
 10
402.04544
 20
-291.6911201369759
 30
0.0
 11
402.01939
 21
-289.5252686808856
 31
0.0
 12
402.04544
 22
-289.4980693385284
 32
0.0
 13
402.04544
 23
-289.4980693385284
 33
0.0
  0
SOLID
  5
1015B
  8
0
 10
402.04544
 20
-288.6204824649298
 30
0.0
 11
402.01939
 21
-288.3379
 31
0.0
 12
402.04544
 22
-287.8931224101481
 32
0.0
 13
402.04544
 23
-287.8931224101481
 33
0.0
  0
SOLID
  5
1015C
  8
0
 10
402.01939
 20
-286.195965910552
 30
0.0
 11
402.01939
 21
-286.0775524307593
 31
0.0
 12
402.04544
 22
-286.2077271036766
 32
0.0
 13
402.04544
 23
-286.2077271036766
 33
0.0
  0
SOLID
  5
1015D
  8
0
 10
402.04544
 20
-286.2077271036766
 30
0.0
 11
402.01939
 21
-286.0775524307593
 31
0.0
 12
402.04544
 22
-286.0273226442095
 32
0.0
 13
402.04544
 23
-286.0273226442095
 33
0.0
  0
SOLID
  5
1015E
  8
0
 10
402.01939
 20
-276.4369123155353
 30
0.0
 11
402.01939
 21
-268.8608281706924
 31
0.0
 12
402.04544
 22
-276.4578523294387
 32
0.0
 13
402.04544
 23
-276.4578523294387
 33
0.0
  0
SOLID
  5
1015F
  8
0
 10
402.04544
 20
-276.4578523294387
 30
0.0
 11
402.01939
 21
-268.8608281706924
 31
0.0
 12
402.04544
 22
-268.9175624820527
 32
0.0
 13
402.04544
 23
-268.9175624820527
 33
0.0
  0
SOLID
  5
10160
  8
0
 10
402.01939
 20
-267.4696345533744
 30
0.0
 11
402.01939
 21
-267.0296465024073
 31
0.0
 12
402.04544
 22
-267.4545
 32
0.0
 13
402.04544
 23
-267.4545
 33
0.0
  0
SOLID
  5
10161
  8
0
 10
402.04544
 20
-267.4545
 30
0.0
 11
402.01939
 21
-267.0296465024073
 31
0.0
 12
402.04544
 22
-267.0295464683265
 32
0.0
 13
402.04544
 23
-267.0295464683265
 33
0.0
  0
SOLID
  5
10162
  8
0
 10
402.04544
 20
-291.6911201369759
 30
0.0
 11
402.04544
 21
-289.4980693385284
 31
0.0
 12
402.04729
 22
-291.6928
 32
0.0
 13
402.04729
 23
-291.6928
 33
0.0
  0
SOLID
  5
10163
  8
0
 10
402.04729
 20
-291.6928
 30
0.0
 11
402.04544
 21
-289.4980693385284
 31
0.0
 12
402.04729
 22
-289.4961377153668
 32
0.0
 13
402.04729
 23
-289.4961377153668
 33
0.0
  0
SOLID
  5
10164
  8
0
 10
402.04544
 20
-288.6204824649298
 30
0.0
 11
402.04544
 21
-287.8931224101481
 31
0.0
 12
402.04729
 22
-288.6405507014026
 32
0.0
 13
402.04729
 23
-288.6405507014026
 33
0.0
  0
SOLID
  5
10165
  8
0
 10
402.04729
 20
-288.6405507014026
 30
0.0
 11
402.04544
 21
-287.8931224101481
 31
0.0
 12
402.04729
 22
-287.8615355179707
 32
0.0
 13
402.04729
 23
-287.8615355179707
 33
0.0
  0
SOLID
  5
10166
  8
0
 10
402.04544
 20
-286.2077271036766
 30
0.0
 11
402.04544
 21
-286.0273226442095
 31
0.0
 12
402.04729
 22
-286.2085623515569
 32
0.0
 13
402.04729
 23
-286.2085623515569
 33
0.0
  0
SOLID
  5
10167
  8
0
 10
402.04729
 20
-286.2085623515569
 30
0.0
 11
402.04544
 21
-286.0273226442095
 31
0.0
 12
402.04729
 22
-286.0237554616714
 32
0.0
 13
402.04729
 23
-286.0237554616714
 33
0.0
  0
SOLID
  5
10168
  8
0
 10
402.04544
 20
-276.4578523294387
 30
0.0
 11
402.04544
 21
-268.9175624820527
 31
0.0
 12
402.04729
 22
-276.4593394321535
 32
0.0
 13
402.04729
 23
-276.4593394321535
 33
0.0
  0
SOLID
  5
10169
  8
0
 10
402.04729
 20
-276.4593394321535
 30
0.0
 11
402.04544
 21
-268.9175624820527
 31
0.0
 12
402.04729
 22
-268.9215915982145
 32
0.0
 13
402.04729
 23
-268.9215915982145
 33
0.0
  0
SOLID
  5
1016A
  8
0
 10
402.04544
 20
-267.4545
 30
0.0
 11
402.04544
 21
-267.0295464683265
 31
0.0
 12
402.04729
 22
-267.4559000181806
 32
0.0
 13
402.04729
 23
-267.4559000181806
 33
0.0
  0
SOLID
  5
1016B
  8
0
 10
402.04729
 20
-267.4559000181806
 30
0.0
 11
402.04544
 21
-267.0295464683265
 31
0.0
 12
402.04729
 22
-267.0295393641788
 32
0.0
 13
402.04729
 23
-267.0295393641788
 33
0.0
  0
SOLID
  5
1016C
  8
0
 10
402.04729
 20
-291.6928
 30
0.0
 11
402.04729
 21
-289.4961377153668
 31
0.0
 12
402.06669
 22
-291.6937169531014
 32
0.0
 13
402.06669
 23
-291.6937169531014
 33
0.0
  0
SOLID
  5
1016D
  8
0
 10
402.06669
 20
-291.6937169531014
 30
0.0
 11
402.04729
 21
-289.4961377153668
 31
0.0
 12
402.06669
 22
-289.4758817751853
 32
0.0
 13
402.06669
 23
-289.4758817751853
 33
0.0
  0
SOLID
  5
1016E
  8
0
 10
402.04729
 20
-288.6405507014026
 30
0.0
 11
402.04729
 21
-287.8615355179707
 31
0.0
 12
402.06669
 22
-288.850995991984
 32
0.0
 13
402.06669
 23
-288.850995991984
 33
0.0
  0
SOLID
  5
1016F
  8
0
 10
402.06669
 20
-288.850995991984
 30
0.0
 11
402.04729
 21
-287.8615355179707
 31
0.0
 12
402.06669
 22
-287.5303
 32
0.0
 13
402.06669
 23
-287.5303
 33
0.0
  0
SOLID
  5
10170
  8
0
 10
402.04729
 20
-286.2085623515569
 30
0.0
 11
402.04729
 21
-286.0237554616714
 31
0.0
 12
402.06669
 22
-286.217321167166
 32
0.0
 13
402.06669
 23
-286.217321167166
 33
0.0
  0
SOLID
  5
10171
  8
0
 10
402.06669
 20
-286.217321167166
 30
0.0
 11
402.04729
 21
-286.0237554616714
 31
0.0
 12
402.06669
 22
-285.9863482501909
 32
0.0
 13
402.06669
 23
-285.9863482501909
 33
0.0
  0
SOLID
  5
10172
  8
0
 10
402.04729
 20
-276.4593394321535
 30
0.0
 11
402.04729
 21
-268.9215915982145
 31
0.0
 12
402.06669
 22
-276.4749339146766
 32
0.0
 13
402.06669
 23
-276.4749339146766
 33
0.0
  0
SOLID
  5
10173
  8
0
 10
402.06669
 20
-276.4749339146766
 30
0.0
 11
402.04729
 21
-268.9215915982145
 31
0.0
 12
402.06669
 22
-268.9638428703984
 32
0.0
 13
402.06669
 23
-268.9638428703984
 33
0.0
  0
SOLID
  5
10174
  8
0
 10
402.04729
 20
-267.4559000181806
 30
0.0
 11
402.04729
 21
-267.0295393641788
 31
0.0
 12
402.06669
 22
-267.470581289912
 32
0.0
 13
402.06669
 23
-267.470581289912
 33
0.0
  0
SOLID
  5
10175
  8
0
 10
402.06669
 20
-267.470581289912
 30
0.0
 11
402.04729
 21
-267.0295393641788
 31
0.0
 12
402.06669
 22
-267.0294648666292
 32
0.0
 13
402.06669
 23
-267.0294648666292
 33
0.0
  0
SOLID
  5
10176
  8
0
 10
402.06669
 20
-291.6937169531014
 30
0.0
 11
402.06669
 21
-289.4758817751853
 31
0.0
 12
402.11919
 22
-291.6961983983501
 32
0.0
 13
402.11919
 23
-291.6961983983501
 33
0.0
  0
SOLID
  5
10177
  8
0
 10
402.11919
 20
-291.6961983983501
 30
0.0
 11
402.06669
 21
-289.4758817751853
 31
0.0
 12
402.11919
 22
-289.4210654422197
 32
0.0
 13
402.11919
 23
-289.4210654422197
 33
0.0
  0
SOLID
  5
10178
  8
0
 10
402.06669
 20
-288.850995991984
 30
0.0
 11
402.06669
 21
-287.5303
 31
0.0
 12
402.11919
 22
-289.4205
 32
0.0
 13
402.11919
 23
-289.4205
 33
0.0
  0
SOLID
  5
10179
  8
0
 10
402.11919
 20
-289.4205
 30
0.0
 11
402.06669
 21
-287.5303
 31
0.0
 12
402.11919
 22
-287.5264381008731
 32
0.0
 13
402.11919
 23
-287.5264381008731
 33
0.0
  0
SOLID
  5
1017A
  8
0
 10
402.06669
 20
-286.217321167166
 30
0.0
 11
402.06669
 21
-285.9863482501909
 31
0.0
 12
402.11919
 22
-286.2410241475515
 32
0.0
 13
402.11919
 23
-286.2410241475515
 33
0.0
  0
SOLID
  5
1017B
  8
0
 10
402.11919
 20
-286.2410241475515
 30
0.0
 11
402.06669
 21
-285.9863482501909
 31
0.0
 12
402.11919
 22
-285.8851173943803
 32
0.0
 13
402.11919
 23
-285.8851173943803
 33
0.0
  0
SOLID
  5
1017C
  8
0
 10
402.06669
 20
-276.4749339146766
 30
0.0
 11
402.06669
 21
-268.9638428703984
 31
0.0
 12
402.11919
 22
-276.5171354782057
 32
0.0
 13
402.11919
 23
-276.5171354782057
 33
0.0
  0
SOLID
  5
1017D
  8
0
 10
402.11919
 20
-276.5171354782057
 30
0.0
 11
402.06669
 21
-268.9638428703984
 31
0.0
 12
402.11919
 22
-269.0781826533702
 32
0.0
 13
402.11919
 23
-269.0781826533702
 33
0.0
  0
SOLID
  5
1017E
  8
0
 10
402.06669
 20
-267.470581289912
 30
0.0
 11
402.06669
 21
-267.0294648666292
 31
0.0
 12
402.11919
 22
-267.5103115355772
 32
0.0
 13
402.11919
 23
-267.5103115355772
 33
0.0
  0
SOLID
  5
1017F
  8
0
 10
402.11919
 20
-267.5103115355772
 30
0.0
 11
402.06669
 21
-267.0294648666292
 31
0.0
 12
402.11919
 22
-267.0292632624358
 32
0.0
 13
402.11919
 23
-267.0292632624358
 33
0.0
  0
SOLID
  5
10180
  8
0
 10
402.11919
 20
-291.6961983983501
 30
0.0
 11
402.11919
 21
-289.4210654422197
 31
0.0
 12
402.11954
 22
-291.6962149413184
 32
0.0
 13
402.11954
 23
-291.6962149413184
 33
0.0
  0
SOLID
  5
10181
  8
0
 10
402.11954
 20
-291.6962149413184
 30
0.0
 11
402.11919
 21
-289.4210654422197
 31
0.0
 12
402.11954
 22
-289.4207
 32
0.0
 13
402.11954
 23
-289.4207
 33
0.0
  0
SOLID
  5
10182
  8
0
 10
402.11919
 20
-289.4205
 30
0.0
 11
402.11919
 21
-287.5264381008731
 31
0.0
 12
402.11954
 22
-289.4207
 32
0.0
 13
402.11954
 23
-289.4207
 33
0.0
  0
SOLID
  5
10183
  8
0
 10
402.11954
 20
-289.4207
 30
0.0
 11
402.11919
 21
-287.5264381008731
 31
0.0
 12
402.11954
 22
-287.526412354879
 32
0.0
 13
402.11954
 23
-287.526412354879
 33
0.0
  0
SOLID
  5
10184
  8
0
 10
402.11919
 20
-286.2410241475515
 30
0.0
 11
402.11919
 21
-285.8851173943803
 31
0.0
 12
402.11954
 22
-286.2411821674207
 32
0.0
 13
402.11954
 23
-286.2411821674207
 33
0.0
  0
SOLID
  5
10185
  8
0
 10
402.11954
 20
-286.2411821674207
 30
0.0
 11
402.11919
 21
-285.8851173943803
 31
0.0
 12
402.11954
 22
-285.8844425220083
 32
0.0
 13
402.11954
 23
-285.8844425220083
 33
0.0
  0
SOLID
  5
10186
  8
0
 10
402.11919
 20
-276.5171354782057
 30
0.0
 11
402.11919
 21
-269.0781826533702
 31
0.0
 12
402.11954
 22
-276.5174168219625
 32
0.0
 13
402.11954
 23
-276.5174168219625
 33
0.0
  0
SOLID
  5
10187
  8
0
 10
402.11954
 20
-276.5174168219625
 30
0.0
 11
402.11919
 21
-269.0781826533702
 31
0.0
 12
402.11954
 22
-269.07894491859
 32
0.0
 13
402.11954
 23
-269.07894491859
 33
0.0
  0
SOLID
  5
10188
  8
0
 10
402.11919
 20
-267.5103115355772
 30
0.0
 11
402.11919
 21
-267.0292632624358
 31
0.0
 12
402.11954
 22
-267.5105764038815
 32
0.0
 13
402.11954
 23
-267.5105764038815
 33
0.0
  0
SOLID
  5
10189
  8
0
 10
402.11954
 20
-267.5105764038815
 30
0.0
 11
402.11919
 21
-267.0292632624358
 31
0.0
 12
402.11954
 22
-267.0292619184079
 32
0.0
 13
402.11954
 23
-267.0292619184079
 33
0.0
  0
SOLID
  5
1018A
  8
0
 10
402.11954
 20
-291.6962149413184
 30
0.0
 11
402.11954
 21
-287.526412354879
 31
0.0
 12
402.53896
 22
-291.7160390892463
 32
0.0
 13
402.53896
 23
-291.7160390892463
 33
0.0
  0
SOLID
  5
1018B
  8
0
 10
402.53896
 20
-291.7160390892463
 30
0.0
 11
402.11954
 21
-287.526412354879
 31
0.0
 12
402.53896
 22
-287.4955598266543
 32
0.0
 13
402.53896
 23
-287.4955598266543
 33
0.0
  0
SOLID
  5
1018C
  8
0
 10
402.11954
 20
-286.2411821674207
 30
0.0
 11
402.11954
 21
-285.8844425220083
 31
0.0
 12
402.53896
 22
-286.4305441490071
 32
0.0
 13
402.53896
 23
-286.4305441490071
 33
0.0
  0
SOLID
  5
1018D
  8
0
 10
402.53896
 20
-286.4305441490071
 30
0.0
 11
402.11954
 21
-285.8844425220083
 31
0.0
 12
402.53896
 22
-285.0757140354545
 32
0.0
 13
402.53896
 23
-285.0757140354545
 33
0.0
  0
SOLID
  5
1018E
  8
0
 10
402.11954
 20
-276.5174168219625
 30
0.0
 11
402.11954
 21
-269.07894491859
 31
0.0
 12
402.53896
 22
-276.8545631033978
 32
0.0
 13
402.53896
 23
-276.8545631033978
 33
0.0
  0
SOLID
  5
1018F
  8
0
 10
402.53896
 20
-276.8545631033978
 30
0.0
 11
402.11954
 21
-269.07894491859
 31
0.0
 12
402.53896
 22
-269.9924
 32
0.0
 13
402.53896
 23
-269.9924
 33
0.0
  0
SOLID
  5
10190
  8
0
 10
402.11954
 20
-267.5105764038815
 30
0.0
 11
402.11954
 21
-267.0292619184079
 31
0.0
 12
402.53896
 22
-267.8279794445833
 32
0.0
 13
402.53896
 23
-267.8279794445833
 33
0.0
  0
SOLID
  5
10191
  8
0
 10
402.53896
 20
-267.8279794445833
 30
0.0
 11
402.11954
 21
-267.0292619184079
 31
0.0
 12
402.53896
 22
-267.0276513121073
 32
0.0
 13
402.53896
 23
-267.0276513121073
 33
0.0
  0
SOLID
  5
10192
  8
0
 10
402.53896
 20
-291.7160390892463
 30
0.0
 11
402.53896
 21
-287.4955598266543
 31
0.0
 12
402.69203
 22
-291.723274038279
 32
0.0
 13
402.69203
 23
-291.723274038279
 33
0.0
  0
SOLID
  5
10193
  8
0
 10
402.69203
 20
-291.723274038279
 30
0.0
 11
402.53896
 21
-287.4955598266543
 31
0.0
 12
402.69203
 22
-287.4843
 32
0.0
 13
402.69203
 23
-287.4843
 33
0.0
  0
SOLID
  5
10194
  8
0
 10
402.53896
 20
-286.4305441490071
 30
0.0
 11
402.53896
 21
-285.0757140354545
 31
0.0
 12
402.69203
 22
-286.4996530101045
 32
0.0
 13
402.69203
 23
-286.4996530101045
 33
0.0
  0
SOLID
  5
10195
  8
0
 10
402.69203
 20
-286.4996530101045
 30
0.0
 11
402.53896
 21
-285.0757140354545
 31
0.0
 12
402.69203
 22
-284.7805634240463
 32
0.0
 13
402.69203
 23
-284.7805634240463
 33
0.0
  0
SOLID
  5
10196
  8
0
 10
402.53896
 20
-276.8545631033978
 30
0.0
 11
402.53896
 21
-269.9924
 31
0.0
 12
402.69203
 22
-276.9776067858623
 32
0.0
 13
402.69203
 23
-276.9776067858623
 33
0.0
  0
SOLID
  5
10197
  8
0
 10
402.69203
 20
-276.9776067858623
 30
0.0
 11
402.53896
 21
-269.9924
 31
0.0
 12
402.69203
 22
-269.9847500165246
 32
0.0
 13
402.69203
 23
-269.9847500165246
 33
0.0
  0
SOLID
  5
10198
  8
0
 10
402.53896
 20
-267.8279794445833
 30
0.0
 11
402.53896
 21
-267.0276513121073
 31
0.0
 12
402.69203
 22
-267.943817705611
 32
0.0
 13
402.69203
 23
-267.943817705611
 33
0.0
  0
SOLID
  5
10199
  8
0
 10
402.69203
 20
-267.943817705611
 30
0.0
 11
402.53896
 21
-267.0276513121073
 31
0.0
 12
402.69203
 22
-267.0270635110811
 32
0.0
 13
402.69203
 23
-267.0270635110811
 33
0.0
  0
SOLID
  5
1019A
  8
0
 10
402.69203
 20
-291.723274038279
 30
0.0
 11
402.69203
 21
-287.4843
 31
0.0
 12
402.79402
 22
-291.7280946592489
 32
0.0
 13
402.79402
 23
-291.7280946592489
 33
0.0
  0
SOLID
  5
1019B
  8
0
 10
402.79402
 20
-291.7280946592489
 30
0.0
 11
402.69203
 21
-287.4843
 31
0.0
 12
402.79402
 22
-287.4323047262248
 32
0.0
 13
402.79402
 23
-287.4323047262248
 33
0.0
  0
SOLID
  5
1019C
  8
0
 10
402.69203
 20
-286.4996530101045
 30
0.0
 11
402.69203
 21
-284.7805634240463
 31
0.0
 12
402.79402
 22
-286.5457
 32
0.0
 13
402.79402
 23
-286.5457
 33
0.0
  0
SOLID
  5
1019D
  8
0
 10
402.79402
 20
-286.5457
 30
0.0
 11
402.69203
 21
-284.7805634240463
 31
0.0
 12
402.79402
 22
-284.583905614825
 32
0.0
 13
402.79402
 23
-284.583905614825
 33
0.0
  0
SOLID
  5
1019E
  8
0
 10
402.69203
 20
-276.9776067858623
 30
0.0
 11
402.69203
 21
-269.9847500165246
 31
0.0
 12
402.79402
 22
-277.0595903566115
 32
0.0
 13
402.79402
 23
-277.0595903566115
 33
0.0
  0
SOLID
  5
1019F
  8
0
 10
402.79402
 20
-277.0595903566115
 30
0.0
 11
402.69203
 21
-269.9847500165246
 31
0.0
 12
402.79402
 22
-269.9796528595726
 32
0.0
 13
402.79402
 23
-269.9796528595726
 33
0.0
  0
SOLID
  5
101A0
  8
0
 10
402.69203
 20
-267.943817705611
 30
0.0
 11
402.69203
 21
-267.0270635110811
 31
0.0
 12
402.79402
 22
-268.021000329523
 32
0.0
 13
402.79402
 23
-268.021000329523
 33
0.0
  0
SOLID
  5
101A1
  8
0
 10
402.79402
 20
-268.021000329523
 30
0.0
 11
402.69203
 21
-267.0270635110811
 31
0.0
 12
402.79402
 22
-267.0266718613347
 32
0.0
 13
402.79402
 23
-267.0266718613347
 33
0.0
  0
SOLID
  5
101A2
  8
0
 10
402.79402
 20
-291.7280946592489
 30
0.0
 11
402.79402
 21
-287.4323047262248
 31
0.0
 12
403.21348
 22
-291.7479206978017
 32
0.0
 13
403.21348
 23
-291.7479206978017
 33
0.0
  0
SOLID
  5
101A3
  8
0
 10
403.21348
 20
-291.7479206978017
 30
0.0
 11
402.79402
 21
-287.4323047262248
 31
0.0
 12
403.21348
 22
-287.2184608441015
 32
0.0
 13
403.21348
 23
-287.2184608441015
 33
0.0
  0
SOLID
  5
101A4
  8
0
 10
402.79402
 20
-286.5457
 30
0.0
 11
402.79402
 21
-284.583905614825
 31
0.0
 12
403.21348
 22
-286.766590450865
 32
0.0
 13
403.21348
 23
-286.766590450865
 33
0.0
  0
SOLID
  5
101A5
  8
0
 10
403.21348
 20
-286.766590450865
 30
0.0
 11
402.79402
 21
-284.583905614825
 31
0.0
 12
403.21348
 22
-283.7751
 32
0.0
 13
403.21348
 23
-283.7751
 33
0.0
  0
SOLID
  5
101A6
  8
0
 10
402.79402
 20
-277.0595903566115
 30
0.0
 11
402.79402
 21
-269.9796528595726
 31
0.0
 12
403.21348
 22
-277.3967687916189
 32
0.0
 13
403.21348
 23
-277.3967687916189
 33
0.0
  0
SOLID
  5
101A7
  8
0
 10
403.21348
 20
-277.3967687916189
 30
0.0
 11
402.79402
 21
-269.9796528595726
 31
0.0
 12
403.21348
 22
-269.9586894959575
 32
0.0
 13
403.21348
 23
-269.9586894959575
 33
0.0
  0
SOLID
  5
101A8
  8
0
 10
402.79402
 20
-268.021000329523
 30
0.0
 11
402.79402
 21
-267.0266718613347
 31
0.0
 12
403.21348
 22
-268.3384336408882
 32
0.0
 13
403.21348
 23
-268.3384336408882
 33
0.0
  0
SOLID
  5
101A9
  8
0
 10
403.21348
 20
-268.3384336408882
 30
0.0
 11
402.79402
 21
-267.0266718613347
 31
0.0
 12
403.21348
 22
-267.0250611014309
 32
0.0
 13
403.21348
 23
-267.0250611014309
 33
0.0
  0
SOLID
  5
101AA
  8
0
 10
403.21348
 20
-291.7479206978017
 30
0.0
 11
403.21348
 21
-287.2184608441015
 31
0.0
 12
403.22988
 22
-291.7486958540318
 32
0.0
 13
403.22988
 23
-291.7486958540318
 33
0.0
  0
SOLID
  5
101AB
  8
0
 10
403.22988
 20
-291.7486958540318
 30
0.0
 11
403.21348
 21
-287.2184608441015
 31
0.0
 12
403.22988
 22
-287.2101
 32
0.0
 13
403.22988
 23
-287.2101
 33
0.0
  0
SOLID
  5
101AC
  8
0
 10
403.21348
 20
-286.766590450865
 30
0.0
 11
403.21348
 21
-283.7751
 31
0.0
 12
403.22988
 22
-286.7752268009202
 32
0.0
 13
403.22988
 23
-286.7752268009202
 33
0.0
  0
SOLID
  5
101AD
  8
0
 10
403.22988
 20
-286.7752268009202
 30
0.0
 11
403.21348
 21
-283.7751
 31
0.0
 12
403.22988
 22
-283.7260861382455
 32
0.0
 13
403.22988
 23
-283.7260861382455
 33
0.0
  0
SOLID
  5
101AE
  8
0
 10
403.21348
 20
-277.3967687916189
 30
0.0
 11
403.21348
 21
-269.9586894959575
 31
0.0
 12
403.22988
 22
-277.4099517562261
 32
0.0
 13
403.22988
 23
-277.4099517562261
 33
0.0
  0
SOLID
  5
101AF
  8
0
 10
403.22988
 20
-277.4099517562261
 30
0.0
 11
403.21348
 21
-269.9586894959575
 31
0.0
 12
403.22988
 22
-269.9578698727198
 32
0.0
 13
403.22988
 23
-269.9578698727198
 33
0.0
  0
SOLID
  5
101B0
  8
0
 10
403.21348
 20
-268.3384336408882
 30
0.0
 11
403.21348
 21
-267.0250611014309
 31
0.0
 12
403.22988
 22
-268.3508446128673
 32
0.0
 13
403.22988
 23
-268.3508446128673
 33
0.0
  0
SOLID
  5
101B1
  8
0
 10
403.22988
 20
-268.3508446128673
 30
0.0
 11
403.21348
 21
-267.0250611014309
 31
0.0
 12
403.22988
 22
-267.024998124121
 32
0.0
 13
403.22988
 23
-267.024998124121
 33
0.0
  0
SOLID
  5
101B2
  8
0
 10
403.22988
 20
-291.7486958540318
 30
0.0
 11
403.22988
 21
-287.2101
 31
0.0
 12
403.36553
 22
-291.7551074358982
 32
0.0
 13
403.36553
 23
-291.7551074358982
 33
0.0
  0
SOLID
  5
101B3
  8
0
 10
403.36553
 20
-291.7551074358982
 30
0.0
 11
403.22988
 21
-287.2101
 31
0.0
 12
403.36553
 22
-287.0289196514217
 32
0.0
 13
403.36553
 23
-287.0289196514217
 33
0.0
  0
SOLID
  5
101B4
  8
0
 10
403.22988
 20
-286.7752268009202
 30
0.0
 11
403.22988
 21
-283.7260861382455
 31
0.0
 12
403.36553
 22
-286.846661001225
 32
0.0
 13
403.36553
 23
-286.846661001225
 33
0.0
  0
SOLID
  5
101B5
  8
0
 10
403.36553
 20
-286.846661001225
 30
0.0
 11
403.22988
 21
-283.7260861382455
 31
0.0
 12
403.36553
 22
-283.3206757512327
 32
0.0
 13
403.36553
 23
-283.3206757512327
 33
0.0
  0
SOLID
  5
101B6
  8
0
 10
403.22988
 20
-277.4099517562261
 30
0.0
 11
403.22988
 21
-269.9578698727198
 31
0.0
 12
403.36553
 22
-277.518992557992
 32
0.0
 13
403.36553
 23
-277.518992557992
 33
0.0
  0
SOLID
  5
101B7
  8
0
 10
403.36553
 20
-277.518992557992
 30
0.0
 11
403.22988
 21
-269.9578698727198
 31
0.0
 12
403.36553
 22
-269.9510904890494
 32
0.0
 13
403.36553
 23
-269.9510904890494
 33
0.0
  0
SOLID
  5
101B8
  8
0
 10
403.22988
 20
-268.3508446128673
 30
0.0
 11
403.22988
 21
-267.024998124121
 31
0.0
 12
403.36553
 22
-268.4535
 32
0.0
 13
403.36553
 23
-268.4535
 33
0.0
  0
SOLID
  5
101B9
  8
0
 10
403.36553
 20
-268.4535
 30
0.0
 11
403.22988
 21
-267.024998124121
 31
0.0
 12
403.36553
 22
-267.0244772172861
 32
0.0
 13
403.36553
 23
-267.0244772172861
 33
0.0
  0
SOLID
  5
101BA
  8
0
 10
403.36553
 20
-291.7551074358982
 30
0.0
 11
403.36553
 21
-287.0289196514217
 31
0.0
 12
403.41331
 22
-291.7573657874026
 32
0.0
 13
403.41331
 23
-291.7573657874026
 33
0.0
  0
SOLID
  5
101BB
  8
0
 10
403.41331
 20
-291.7573657874026
 30
0.0
 11
403.36553
 21
-287.0289196514217
 31
0.0
 12
403.41331
 22
-286.9651024965741
 32
0.0
 13
403.41331
 23
-286.9651024965741
 33
0.0
  0
SOLID
  5
101BC
  8
0
 10
403.36553
 20
-286.846661001225
 30
0.0
 11
403.36553
 21
-283.3206757512327
 31
0.0
 12
403.41331
 22
-286.8718222698616
 32
0.0
 13
403.41331
 23
-286.8718222698616
 33
0.0
  0
SOLID
  5
101BD
  8
0
 10
403.41331
 20
-286.8718222698616
 30
0.0
 11
403.36553
 21
-283.3206757512327
 31
0.0
 12
403.41331
 22
-283.1778780491207
 32
0.0
 13
403.41331
 23
-283.1778780491207
 33
0.0
  0
SOLID
  5
101BE
  8
0
 10
403.36553
 20
-277.518992557992
 30
0.0
 11
403.36553
 21
-269.9510904890494
 31
0.0
 12
403.41331
 22
-277.5574
 32
0.0
 13
403.41331
 23
-277.5574
 33
0.0
  0
SOLID
  5
101BF
  8
0
 10
403.41331
 20
-277.5574
 30
0.0
 11
403.36553
 21
-269.9510904890494
 31
0.0
 12
403.41331
 22
-269.9487025867142
 32
0.0
 13
403.41331
 23
-269.9487025867142
 33
0.0
  0
SOLID
  5
101C0
  8
0
 10
403.36553
 20
-268.4535
 30
0.0
 11
403.36553
 21
-267.0244772172861
 31
0.0
 12
403.41331
 22
-268.5266045870449
 32
0.0
 13
403.41331
 23
-268.5266045870449
 33
0.0
  0
SOLID
  5
101C1
  8
0
 10
403.41331
 20
-268.5266045870449
 30
0.0
 11
403.36553
 21
-267.0244772172861
 31
0.0
 12
403.41331
 22
-267.0242937382698
 32
0.0
 13
403.41331
 23
-267.0242937382698
 33
0.0
  0
SOLID
  5
101C2
  8
0
 10
403.41331
 20
-291.7573657874026
 30
0.0
 11
403.41331
 21
-286.9651024965741
 31
0.0
 12
403.42846
 22
-291.758081861603
 32
0.0
 13
403.42846
 23
-291.758081861603
 33
0.0
  0
SOLID
  5
101C3
  8
0
 10
403.42846
 20
-291.758081861603
 30
0.0
 11
403.41331
 21
-286.9651024965741
 31
0.0
 12
403.42846
 22
-286.9448674631723
 32
0.0
 13
403.42846
 23
-286.9448674631723
 33
0.0
  0
SOLID
  5
101C4
  8
0
 10
403.41331
 20
-286.8718222698616
 30
0.0
 11
403.41331
 21
-283.1778780491207
 31
0.0
 12
403.42846
 22
-286.8798003615286
 32
0.0
 13
403.42846
 23
-286.8798003615286
 33
0.0
  0
SOLID
  5
101C5
  8
0
 10
403.42846
 20
-286.8798003615286
 30
0.0
 11
403.41331
 21
-283.1778780491207
 31
0.0
 12
403.42846
 22
-283.1326
 32
0.0
 13
403.42846
 23
-283.1326
 33
0.0
  0
SOLID
  5
101C6
  8
0
 10
403.41331
 20
-277.5574
 30
0.0
 11
403.41331
 21
-269.9487025867142
 31
0.0
 12
403.42846
 22
-277.5770701829307
 32
0.0
 13
403.42846
 23
-277.5770701829307
 33
0.0
  0
SOLID
  5
101C7
  8
0
 10
403.42846
 20
-277.5770701829307
 30
0.0
 11
403.41331
 21
-269.9487025867142
 31
0.0
 12
403.42846
 22
-269.9479454347598
 32
0.0
 13
403.42846
 23
-269.9479454347598
 33
0.0
  0
SOLID
  5
101C8
  8
0
 10
403.41331
 20
-268.5266045870449
 30
0.0
 11
403.41331
 21
-267.0242937382698
 31
0.0
 12
403.42846
 22
-268.5497844634309
 32
0.0
 13
403.42846
 23
-268.5497844634309
 33
0.0
  0
SOLID
  5
101C9
  8
0
 10
403.42846
 20
-268.5497844634309
 30
0.0
 11
403.41331
 21
-267.0242937382698
 31
0.0
 12
403.42846
 22
-267.0242355610597
 32
0.0
 13
403.42846
 23
-267.0242355610597
 33
0.0
  0
SOLID
  5
101CA
  8
0
 10
403.42846
 20
-291.758081861603
 30
0.0
 11
403.42846
 21
-286.9448674631723
 31
0.0
 12
403.4634
 22
-291.7597333224981
 32
0.0
 13
403.4634
 23
-291.7597333224981
 33
0.0
  0
SOLID
  5
101CB
  8
0
 10
403.4634
 20
-291.7597333224981
 30
0.0
 11
403.42846
 21
-286.9448674631723
 31
0.0
 12
403.4634
 22
-286.8982
 32
0.0
 13
403.4634
 23
-286.8982
 33
0.0
  0
SOLID
  5
101CC
  8
0
 10
403.42846
 20
-286.8798003615286
 30
0.0
 11
403.42846
 21
-283.1326
 31
0.0
 12
403.4634
 22
-286.8982
 32
0.0
 13
403.4634
 23
-286.8982
 33
0.0
  0
SOLID
  5
101CD
  8
0
 10
403.4634
 20
-286.8982
 30
0.0
 11
403.42846
 21
-283.1326
 31
0.0
 12
403.4634
 22
-282.8687092415207
 32
0.0
 13
403.4634
 23
-282.8687092415207
 33
0.0
  0
SOLID
  5
101CE
  8
0
 10
403.42846
 20
-277.5770701829307
 30
0.0
 11
403.42846
 21
-269.9479454347598
 31
0.0
 12
403.4634
 22
-277.6224349480527
 32
0.0
 13
403.4634
 23
-277.6224349480527
 33
0.0
  0
SOLID
  5
101CF
  8
0
 10
403.4634
 20
-277.6224349480527
 30
0.0
 11
403.42846
 21
-269.9479454347598
 31
0.0
 12
403.4634
 22
-269.9461992374473
 32
0.0
 13
403.4634
 23
-269.9461992374473
 33
0.0
  0
SOLID
  5
101D0
  8
0
 10
403.42846
 20
-268.5497844634309
 30
0.0
 11
403.42846
 21
-267.0242355610597
 31
0.0
 12
403.4634
 22
-268.6032435314792
 32
0.0
 13
403.4634
 23
-268.6032435314792
 33
0.0
  0
SOLID
  5
101D1
  8
0
 10
403.4634
 20
-268.6032435314792
 30
0.0
 11
403.42846
 21
-267.0242355610597
 31
0.0
 12
403.4634
 22
-267.0241013886689
 32
0.0
 13
403.4634
 23
-267.0241013886689
 33
0.0
  0
SOLID
  5
101D2
  8
0
 10
403.4634
 20
-291.7597333224981
 30
0.0
 11
403.4634
 21
-282.8687092415207
 31
0.0
 12
403.77952
 22
-291.7746749314889
 32
0.0
 13
403.77952
 23
-291.7746749314889
 33
0.0
  0
SOLID
  5
101D3
  8
0
 10
403.77952
 20
-291.7746749314889
 30
0.0
 11
403.4634
 21
-282.8687092415207
 31
0.0
 12
403.77952
 22
-280.4811549607403
 32
0.0
 13
403.77952
 23
-280.4811549607403
 33
0.0
  0
SOLID
  5
101D4
  8
0
 10
403.4634
 20
-277.6224349480527
 30
0.0
 11
403.4634
 21
-269.9461992374473
 31
0.0
 12
403.77952
 22
-278.0328731149212
 32
0.0
 13
403.77952
 23
-278.0328731149212
 33
0.0
  0
SOLID
  5
101D5
  8
0
 10
403.77952
 20
-278.0328731149212
 30
0.0
 11
403.4634
 21
-269.9461992374473
 31
0.0
 12
403.77952
 22
-269.9304004997703
 32
0.0
 13
403.77952
 23
-269.9304004997703
 33
0.0
  0
SOLID
  5
101D6
  8
0
 10
403.4634
 20
-268.6032435314792
 30
0.0
 11
403.4634
 21
-267.0241013886689
 31
0.0
 12
403.77952
 22
-269.0869149851542
 32
0.0
 13
403.77952
 23
-269.0869149851542
 33
0.0
  0
SOLID
  5
101D7
  8
0
 10
403.77952
 20
-269.0869149851542
 30
0.0
 11
403.4634
 21
-267.0241013886689
 31
0.0
 12
403.77952
 22
-267.0228874626192
 32
0.0
 13
403.77952
 23
-267.0228874626192
 33
0.0
  0
SOLID
  5
101D8
  8
0
 10
403.77952
 20
-291.7746749314889
 30
0.0
 11
403.77952
 21
-280.4811549607403
 31
0.0
 12
403.77953
 22
-291.7746754041452
 32
0.0
 13
403.77953
 23
-291.7746754041452
 33
0.0
  0
SOLID
  5
101D9
  8
0
 10
403.77953
 20
-291.7746754041452
 30
0.0
 11
403.77952
 21
-280.4811549607403
 31
0.0
 12
403.77953
 22
-280.4810794339059
 32
0.0
 13
403.77953
 23
-280.4810794339059
 33
0.0
  0
SOLID
  5
101DA
  8
0
 10
403.77952
 20
-278.0328731149212
 30
0.0
 11
403.77952
 21
-269.9307
 31
0.0
 12
403.77953
 22
-278.0328860985404
 32
0.0
 13
403.77953
 23
-278.0328860985404
 33
0.0
  0
SOLID
  5
101DB
  8
0
 10
403.77953
 20
-278.0328860985404
 30
0.0
 11
403.77952
 21
-269.9307
 31
0.0
 12
403.77953
 22
-269.9306112577062
 32
0.0
 13
403.77953
 23
-269.9306112577062
 33
0.0
  0
SOLID
  5
101DC
  8
0
 10
403.77952
 20
-269.9307
 30
0.0
 11
403.77952
 21
-269.9304004997703
 31
0.0
 12
403.77953
 22
-269.9304
 32
0.0
 13
403.77953
 23
-269.9304
 33
0.0
  0
SOLID
  5
101DD
  8
0
 10
403.77952
 20
-269.0869149851542
 30
0.0
 11
403.77952
 21
-267.0228874626192
 31
0.0
 12
403.77953
 22
-269.0869302854027
 32
0.0
 13
403.77953
 23
-269.0869302854027
 33
0.0
  0
SOLID
  5
101DE
  8
0
 10
403.77953
 20
-269.0869302854027
 30
0.0
 11
403.77952
 21
-267.0228874626192
 31
0.0
 12
403.77953
 22
-267.0228874242184
 32
0.0
 13
403.77953
 23
-267.0228874242184
 33
0.0
  0
SOLID
  5
101DF
  8
0
 10
403.77953
 20
-291.7746754041452
 30
0.0
 11
403.77953
 21
-280.4810794339059
 31
0.0
 12
403.79907
 22
-291.7755989744339
 32
0.0
 13
403.79907
 23
-291.7755989744339
 33
0.0
  0
SOLID
  5
101E0
  8
0
 10
403.79907
 20
-291.7755989744339
 30
0.0
 11
403.77953
 21
-280.4810794339059
 31
0.0
 12
403.79907
 22
-280.3335
 32
0.0
 13
403.79907
 23
-280.3335
 33
0.0
  0
SOLID
  5
101E1
  8
0
 10
403.77953
 20
-278.0328860985404
 30
0.0
 11
403.77953
 21
-269.9306112577062
 31
0.0
 12
403.79907
 22
-278.0582560902542
 32
0.0
 13
403.79907
 23
-278.0582560902542
 33
0.0
  0
SOLID
  5
101E2
  8
0
 10
403.79907
 20
-278.0582560902542
 30
0.0
 11
403.77953
 21
-269.9306112577062
 31
0.0
 12
403.79907
 22
-269.7572088162764
 32
0.0
 13
403.79907
 23
-269.7572088162764
 33
0.0
  0
SOLID
  5
101E3
  8
0
 10
403.77953
 20
-269.0869302854027
 30
0.0
 11
403.77953
 21
-267.0228874242184
 31
0.0
 12
403.79907
 22
-269.1168269708538
 32
0.0
 13
403.79907
 23
-269.1168269708538
 33
0.0
  0
SOLID
  5
101E4
  8
0
 10
403.79907
 20
-269.1168269708538
 30
0.0
 11
403.77953
 21
-267.0228874242184
 31
0.0
 12
403.79907
 22
-267.0228123890577
 32
0.0
 13
403.79907
 23
-267.0228123890577
 33
0.0
  0
SOLID
  5
101E5
  8
0
 10
403.79907
 20
-291.7755989744339
 30
0.0
 11
403.79907
 21
-280.3335
 31
0.0
 12
403.86062
 22
-291.7785081735779
 32
0.0
 13
403.86062
 23
-291.7785081735779
 33
0.0
  0
SOLID
  5
101E6
  8
0
 10
403.86062
 20
-291.7785081735779
 30
0.0
 11
403.79907
 21
-280.3335
 31
0.0
 12
403.86062
 22
-280.9928685754852
 32
0.0
 13
403.86062
 23
-280.9928685754852
 33
0.0
  0
SOLID
  5
101E7
  8
0
 10
403.79907
 20
-278.0582560902542
 30
0.0
 11
403.79907
 21
-269.7572088162764
 31
0.0
 12
403.86062
 22
-278.1381702657913
 32
0.0
 13
403.86062
 23
-278.1381702657913
 33
0.0
  0
SOLID
  5
101E8
  8
0
 10
403.86062
 20
-278.1381702657913
 30
0.0
 11
403.79907
 21
-269.7572088162764
 31
0.0
 12
403.86062
 22
-269.211
 32
0.0
 13
403.86062
 23
-269.211
 33
0.0
  0
SOLID
  5
101E9
  8
0
 10
403.79907
 20
-269.1168269708538
 30
0.0
 11
403.79907
 21
-267.0228123890577
 31
0.0
 12
403.86062
 22
-269.211
 32
0.0
 13
403.86062
 23
-269.211
 33
0.0
  0
SOLID
  5
101EA
  8
0
 10
403.86062
 20
-269.211
 30
0.0
 11
403.79907
 21
-267.0228123890577
 31
0.0
 12
403.86062
 22
-267.0225760321415
 32
0.0
 13
403.86062
 23
-267.0225760321415
 33
0.0
  0
SOLID
  5
101EB
  8
0
 10
403.86062
 20
-291.7785081735779
 30
0.0
 11
403.86062
 21
-280.9928685754852
 31
0.0
 12
403.88398
 22
-291.7796122985495
 32
0.0
 13
403.88398
 23
-291.7796122985495
 33
0.0
  0
SOLID
  5
101EC
  8
0
 10
403.88398
 20
-291.7796122985495
 30
0.0
 11
403.86062
 21
-280.9928685754852
 31
0.0
 12
403.88398
 22
-281.243117964979
 32
0.0
 13
403.88398
 23
-281.243117964979
 33
0.0
  0
SOLID
  5
101ED
  8
0
 10
403.86062
 20
-278.1381702657913
 30
0.0
 11
403.86062
 21
-267.0225760321415
 31
0.0
 12
403.88398
 22
-278.1685
 32
0.0
 13
403.88398
 23
-278.1685
 33
0.0
  0
SOLID
  5
101EE
  8
0
 10
403.88398
 20
-278.1685
 30
0.0
 11
403.86062
 21
-267.0225760321415
 31
0.0
 12
403.88398
 22
-267.0224863278756
 32
0.0
 13
403.88398
 23
-267.0224863278756
 33
0.0
  0
SOLID
  5
101EF
  8
0
 10
403.88398
 20
-291.7796122985495
 30
0.0
 11
403.88398
 21
-281.243117964979
 31
0.0
 12
404.11602
 22
-291.7905798138926
 32
0.0
 13
404.11602
 23
-291.7905798138926
 33
0.0
  0
SOLID
  5
101F0
  8
0
 10
404.11602
 20
-291.7905798138926
 30
0.0
 11
403.88398
 21
-281.243117964979
 31
0.0
 12
404.11602
 22
-283.7289
 32
0.0
 13
404.11602
 23
-283.7289
 33
0.0
  0
SOLID
  5
101F1
  8
0
 10
403.88398
 20
-278.1685
 30
0.0
 11
403.88398
 21
-267.0224863278756
 31
0.0
 12
404.11602
 22
-275.4677913290116
 32
0.0
 13
404.11602
 23
-275.4677913290116
 33
0.0
  0
SOLID
  5
101F2
  8
0
 10
404.11602
 20
-275.4677913290116
 30
0.0
 11
403.88398
 21
-267.0224863278756
 31
0.0
 12
404.11602
 22
-267.0215952757417
 32
0.0
 13
404.11602
 23
-267.0215952757417
 33
0.0
  0
SOLID
  5
101F3
  8
0
 10
404.11602
 20
-291.7905798138926
 30
0.0
 11
404.11602
 21
-283.7289
 31
0.0
 12
404.13078
 22
-291.7912774544996
 32
0.0
 13
404.13078
 23
-291.7912774544996
 33
0.0
  0
SOLID
  5
101F4
  8
0
 10
404.13078
 20
-291.7912774544996
 30
0.0
 11
404.11602
 21
-283.7289
 31
0.0
 12
404.13078
 22
-283.9506307298339
 32
0.0
 13
404.13078
 23
-283.9506307298339
 33
0.0
  0
SOLID
  5
101F5
  8
0
 10
404.11602
 20
-275.4677913290116
 30
0.0
 11
404.11602
 21
-267.0215952757417
 31
0.0
 12
404.13078
 22
-275.296
 32
0.0
 13
404.13078
 23
-275.296
 33
0.0
  0
SOLID
  5
101F6
  8
0
 10
404.13078
 20
-275.296
 30
0.0
 11
404.11602
 21
-267.0215952757417
 31
0.0
 12
404.13078
 22
-267.0215385961628
 32
0.0
 13
404.13078
 23
-267.0215385961628
 33
0.0
  0
SOLID
  5
101F7
  8
0
 10
404.13078
 20
-291.7912774544996
 30
0.0
 11
404.13078
 21
-283.9506307298339
 31
0.0
 12
404.3347
 22
-291.8009158605018
 32
0.0
 13
404.3347
 23
-291.8009158605018
 33
0.0
  0
SOLID
  5
101F8
  8
0
 10
404.3347
 20
-291.8009158605018
 30
0.0
 11
404.13078
 21
-283.9506307298339
 31
0.0
 12
404.3347
 22
-287.014
 32
0.0
 13
404.3347
 23
-287.014
 33
0.0
  0
SOLID
  5
101F9
  8
0
 10
404.13078
 20
-275.296
 30
0.0
 11
404.13078
 21
-267.0215385961628
 31
0.0
 12
404.3347
 22
-274.8731830244241
 32
0.0
 13
404.3347
 23
-274.8731830244241
 33
0.0
  0
SOLID
  5
101FA
  8
0
 10
404.3347
 20
-274.8731830244241
 30
0.0
 11
404.13078
 21
-267.0215385961628
 31
0.0
 12
404.3347
 22
-267.020755527075
 32
0.0
 13
404.3347
 23
-267.020755527075
 33
0.0
  0
SOLID
  5
101FB
  8
0
 10
404.3347
 20
-291.8009158605018
 30
0.0
 11
404.3347
 21
-287.014
 31
0.0
 12
405.103
 22
-291.8372300392558
 32
0.0
 13
405.103
 23
-291.8372300392558
 33
0.0
  0
SOLID
  5
101FC
  8
0
 10
405.103
 20
-291.8372300392558
 30
0.0
 11
404.3347
 21
-287.014
 31
0.0
 12
405.103
 22
-287.1236
 32
0.0
 13
405.103
 23
-287.1236
 33
0.0
  0
SOLID
  5
101FD
  8
0
 10
404.3347
 20
-274.8731830244241
 30
0.0
 11
404.3347
 21
-267.020755527075
 31
0.0
 12
405.103
 22
-273.2801549627576
 32
0.0
 13
405.103
 23
-273.2801549627576
 33
0.0
  0
SOLID
  5
101FE
  8
0
 10
405.103
 20
-273.2801549627576
 30
0.0
 11
404.3347
 21
-267.020755527075
 31
0.0
 12
405.103
 22
-267.0178051937081
 32
0.0
 13
405.103
 23
-267.0178051937081
 33
0.0
  0
SOLID
  5
101FF
  8
0
 10
405.103
 20
-291.8372300392558
 30
0.0
 11
405.103
 21
-287.1236
 31
0.0
 12
405.16992
 22
-291.8403930547995
 32
0.0
 13
405.16992
 23
-291.8403930547995
 33
0.0
  0
SOLID
  5
10200
  8
0
 10
405.16992
 20
-291.8403930547995
 30
0.0
 11
405.103
 21
-287.1236
 31
0.0
 12
405.16992
 22
-287.1180498315335
 32
0.0
 13
405.16992
 23
-287.1180498315335
 33
0.0
  0
SOLID
  5
10201
  8
0
 10
405.103
 20
-273.2801549627576
 30
0.0
 11
405.103
 21
-267.0178051937081
 31
0.0
 12
405.16992
 22
-273.1414
 32
0.0
 13
405.16992
 23
-273.1414
 33
0.0
  0
SOLID
  5
10202
  8
0
 10
405.16992
 20
-273.1414
 30
0.0
 11
405.103
 21
-267.0178051937081
 31
0.0
 12
405.16992
 22
-267.0175482155629
 32
0.0
 13
405.16992
 23
-267.0175482155629
 33
0.0
  0
SOLID
  5
10203
  8
0
 10
405.16992
 20
-291.8403930547995
 30
0.0
 11
405.16992
 21
-287.1180498315335
 31
0.0
 12
405.68175
 22
-291.8645850190213
 32
0.0
 13
405.68175
 23
-291.8645850190213
 33
0.0
  0
SOLID
  5
10204
  8
0
 10
405.68175
 20
-291.8645850190213
 30
0.0
 11
405.16992
 21
-287.1180498315335
 31
0.0
 12
405.68175
 22
-287.0756
 32
0.0
 13
405.68175
 23
-287.0756
 33
0.0
  0
SOLID
  5
10205
  8
0
 10
405.16992
 20
-273.1414
 30
0.0
 11
405.16992
 21
-267.0175482155629
 31
0.0
 12
405.68175
 22
-273.0412768994089
 32
0.0
 13
405.68175
 23
-273.0412768994089
 33
0.0
  0
SOLID
  5
10206
  8
0
 10
405.68175
 20
-273.0412768994089
 30
0.0
 11
405.16992
 21
-267.0175482155629
 31
0.0
 12
405.68175
 22
-267.0155827474812
 32
0.0
 13
405.68175
 23
-267.0155827474812
 33
0.0
  0
SOLID
  5
10207
  8
0
 10
405.68175
 20
-291.8645850190213
 30
0.0
 11
405.68175
 21
-287.0756
 31
0.0
 12
405.68775
 22
-291.864868612764
 32
0.0
 13
405.68775
 23
-291.864868612764
 33
0.0
  0
SOLID
  5
10208
  8
0
 10
405.68775
 20
-291.864868612764
 30
0.0
 11
405.68175
 21
-287.0756
 31
0.0
 12
405.68775
 22
-285.1059
 32
0.0
 13
405.68775
 23
-285.1059
 33
0.0
  0
SOLID
  5
10209
  8
0
 10
405.68175
 20
-273.0412768994089
 30
0.0
 11
405.68175
 21
-267.0155827474812
 31
0.0
 12
405.68775
 22
-273.0401031921164
 32
0.0
 13
405.68775
 23
-273.0401031921164
 33
0.0
  0
SOLID
  5
1020A
  8
0
 10
405.68775
 20
-273.0401031921164
 30
0.0
 11
405.68175
 21
-267.0155827474812
 31
0.0
 12
405.68775
 22
-267.0155597070019
 32
0.0
 13
405.68775
 23
-267.0155597070019
 33
0.0
  0
SOLID
  5
1020B
  8
0
 10
405.68775
 20
-291.864868612764
 30
0.0
 11
405.68775
 21
-285.1059
 31
0.0
 12
405.97327
 22
-291.8783638936671
 32
0.0
 13
405.97327
 23
-291.8783638936671
 33
0.0
  0
SOLID
  5
1020C
  8
0
 10
405.97327
 20
-291.8783638936671
 30
0.0
 11
405.68775
 21
-285.1059
 31
0.0
 12
405.97327
 22
-281.7704952517913
 32
0.0
 13
405.97327
 23
-281.7704952517913
 33
0.0
  0
SOLID
  5
1020D
  8
0
 10
405.68775
 20
-273.0401031921164
 30
0.0
 11
405.68775
 21
-267.0155597070019
 31
0.0
 12
405.97327
 22
-272.9842503744214
 32
0.0
 13
405.97327
 23
-272.9842503744214
 33
0.0
  0
SOLID
  5
1020E
  8
0
 10
405.97327
 20
-272.9842503744214
 30
0.0
 11
405.68775
 21
-267.0155597070019
 31
0.0
 12
405.97327
 22
-267.0144632873964
 32
0.0
 13
405.97327
 23
-267.0144632873964
 33
0.0
  0
SOLID
  5
1020F
  8
0
 10
405.97327
 20
-291.8783638936671
 30
0.0
 11
405.97327
 21
-281.7704952517913
 31
0.0
 12
406.08161
 22
-291.8834846513479
 32
0.0
 13
406.08161
 23
-291.8834846513479
 33
0.0
  0
SOLID
  5
10210
  8
0
 10
406.08161
 20
-291.8834846513479
 30
0.0
 11
405.97327
 21
-281.7704952517913
 31
0.0
 12
406.08161
 22
-280.5048825086528
 32
0.0
 13
406.08161
 23
-280.5048825086528
 33
0.0
  0
SOLID
  5
10211
  8
0
 10
406.08161
 20
-277.4597
 30
0.0
 11
405.97327
 21
-276.0807
 31
0.0
 12
406.08161
 22
-275.5982708691654
 32
0.0
 13
406.08161
 23
-275.5982708691654
 33
0.0
  0
SOLID
  5
10212
  8
0
 10
405.97327
 20
-272.9842503744214
 30
0.0
 11
405.97327
 21
-267.0144632873964
 31
0.0
 12
406.08161
 22
-272.9630571330756
 32
0.0
 13
406.08161
 23
-272.9630571330756
 33
0.0
  0
SOLID
  5
10213
  8
0
 10
406.08161
 20
-272.9630571330756
 30
0.0
 11
405.97327
 21
-267.0144632873964
 31
0.0
 12
406.08161
 22
-267.0140472531429
 32
0.0
 13
406.08161
 23
-267.0140472531429
 33
0.0
  0
SOLID
  5
10214
  8
0
 10
406.08161
 20
-291.8834846513479
 30
0.0
 11
406.08161
 21
-280.5048825086528
 31
0.0
 12
406.08461
 22
-291.8836264482193
 32
0.0
 13
406.08461
 23
-291.8836264482193
 33
0.0
  0
SOLID
  5
10215
  8
0
 10
406.08461
 20
-291.8836264482193
 30
0.0
 11
406.08161
 21
-280.5048825086528
 31
0.0
 12
406.08461
 22
-280.4698369278018
 32
0.0
 13
406.08461
 23
-280.4698369278018
 33
0.0
  0
SOLID
  5
10216
  8
0
 10
406.08161
 20
-277.4597
 30
0.0
 11
406.08161
 21
-275.5982708691654
 31
0.0
 12
406.08461
 22
-278.6296
 32
0.0
 13
406.08461
 23
-278.6296
 33
0.0
  0
SOLID
  5
10217
  8
0
 10
406.08461
 20
-278.6296
 30
0.0
 11
406.08161
 21
-275.5982708691654
 31
0.0
 12
406.08461
 22
-275.5849121153119
 32
0.0
 13
406.08461
 23
-275.5849121153119
 33
0.0
  0
SOLID
  5
10218
  8
0
 10
406.08161
 20
-272.9630571330756
 30
0.0
 11
406.08161
 21
-267.0140472531429
 31
0.0
 12
406.08461
 22
-272.9624702794293
 32
0.0
 13
406.08461
 23
-272.9624702794293
 33
0.0
  0
SOLID
  5
10219
  8
0
 10
406.08461
 20
-272.9624702794293
 30
0.0
 11
406.08161
 21
-267.0140472531429
 31
0.0
 12
406.08461
 22
-267.0140357329033
 32
0.0
 13
406.08461
 23
-267.0140357329033
 33
0.0
  0
SOLID
  5
1021A
  8
0
 10
406.08461
 20
-291.8836264482193
 30
0.0
 11
406.08461
 21
-280.4698369278018
 31
0.0
 12
406.09801
 22
-291.884259807578
 32
0.0
 13
406.09801
 23
-291.884259807578
 33
0.0
  0
SOLID
  5
1021B
  8
0
 10
406.09801
 20
-291.884259807578
 30
0.0
 11
406.08461
 21
-280.4698369278018
 31
0.0
 12
406.09801
 22
-280.3133
 32
0.0
 13
406.09801
 23
-280.3133
 33
0.0
  0
SOLID
  5
1021C
  8
0
 10
406.08461
 20
-278.6296
 30
0.0
 11
406.08461
 21
-275.5849121153119
 31
0.0
 12
406.09801
 22
-279.3960341880343
 32
0.0
 13
406.09801
 23
-279.3960341880343
 33
0.0
  0
SOLID
  5
1021D
  8
0
 10
406.09801
 20
-279.3960341880343
 30
0.0
 11
406.08461
 21
-275.5849121153119
 31
0.0
 12
406.09801
 22
-275.5252430147656
 32
0.0
 13
406.09801
 23
-275.5252430147656
 33
0.0
  0
SOLID
  5
1021E
  8
0
 10
406.08461
 20
-272.9624702794293
 30
0.0
 11
406.08461
 21
-267.0140357329033
 31
0.0
 12
406.09801
 22
-272.9598489998093
 32
0.0
 13
406.09801
 23
-272.9598489998093
 33
0.0
  0
SOLID
  5
1021F
  8
0
 10
406.09801
 20
-272.9598489998093
 30
0.0
 11
406.08461
 21
-267.0140357329033
 31
0.0
 12
406.09801
 22
-267.013984275833
 32
0.0
 13
406.09801
 23
-267.013984275833
 33
0.0
  0
SOLID
  5
10220
  8
0
 10
406.09801
 20
-291.884259807578
 30
0.0
 11
406.09801
 21
-280.3133
 31
0.0
 12
406.10801
 22
-291.8847324638159
 32
0.0
 13
406.10801
 23
-291.8847324638159
 33
0.0
  0
SOLID
  5
10221
  8
0
 10
406.10801
 20
-291.8847324638159
 30
0.0
 11
406.09801
 21
-280.3133
 31
0.0
 12
406.10801
 22
-279.968
 32
0.0
 13
406.10801
 23
-279.968
 33
0.0
  0
SOLID
  5
10222
  8
0
 10
406.09801
 20
-279.3960341880343
 30
0.0
 11
406.09801
 21
-275.5252430147656
 31
0.0
 12
406.10801
 22
-279.968
 32
0.0
 13
406.10801
 23
-279.968
 33
0.0
  0
SOLID
  5
10223
  8
0
 10
406.10801
 20
-279.968
 30
0.0
 11
406.09801
 21
-275.5252430147656
 31
0.0
 12
406.10801
 22
-275.4807138352535
 32
0.0
 13
406.10801
 23
-275.4807138352535
 33
0.0
  0
SOLID
  5
10224
  8
0
 10
406.09801
 20
-272.9598489998093
 30
0.0
 11
406.09801
 21
-267.013984275833
 31
0.0
 12
406.10801
 22
-272.9578928209884
 32
0.0
 13
406.10801
 23
-272.9578928209884
 33
0.0
  0
SOLID
  5
10225
  8
0
 10
406.10801
 20
-272.9578928209884
 30
0.0
 11
406.09801
 21
-267.013984275833
 31
0.0
 12
406.10801
 22
-267.0139458750342
 32
0.0
 13
406.10801
 23
-267.0139458750342
 33
0.0
  0
SOLID
  5
10226
  8
0
 10
406.10801
 20
-291.8847324638159
 30
0.0
 11
406.10801
 21
-275.4807138352535
 31
0.0
 12
406.15816
 22
-291.8871028348487
 32
0.0
 13
406.15816
 23
-291.8871028348487
 33
0.0
  0
SOLID
  5
10227
  8
0
 10
406.15816
 20
-291.8871028348487
 30
0.0
 11
406.10801
 21
-275.4807138352535
 31
0.0
 12
406.15816
 22
-275.2574
 32
0.0
 13
406.15816
 23
-275.2574
 33
0.0
  0
SOLID
  5
10228
  8
0
 10
406.10801
 20
-272.9578928209884
 30
0.0
 11
406.10801
 21
-267.0139458750342
 31
0.0
 12
406.15816
 22
-272.9480825842015
 32
0.0
 13
406.15816
 23
-272.9480825842015
 33
0.0
  0
SOLID
  5
10229
  8
0
 10
406.15816
 20
-272.9480825842015
 30
0.0
 11
406.10801
 21
-267.0139458750342
 31
0.0
 12
406.15816
 22
-267.0137532950286
 32
0.0
 13
406.15816
 23
-267.0137532950286
 33
0.0
  0
SOLID
  5
1022A
  8
0
 10
406.15816
 20
-291.8871028348487
 30
0.0
 11
406.15816
 21
-275.2574
 31
0.0
 12
406.3237
 22
-291.8949271862101
 32
0.0
 13
406.3237
 23
-291.8949271862101
 33
0.0
  0
SOLID
  5
1022B
  8
0
 10
406.3237
 20
-291.8949271862101
 30
0.0
 11
406.15816
 21
-275.2574
 31
0.0
 12
406.3237
 22
-275.2501355086597
 32
0.0
 13
406.3237
 23
-275.2501355086597
 33
0.0
  0
SOLID
  5
1022C
  8
0
 10
406.15816
 20
-272.9480825842015
 30
0.0
 11
406.15816
 21
-267.0137532950286
 31
0.0
 12
406.3237
 22
-272.9157
 32
0.0
 13
406.3237
 23
-272.9157
 33
0.0
  0
SOLID
  5
1022D
  8
0
 10
406.3237
 20
-272.9157
 30
0.0
 11
406.15816
 21
-267.0137532950286
 31
0.0
 12
406.3237
 22
-267.0131176082062
 32
0.0
 13
406.3237
 23
-267.0131176082062
 33
0.0
  0
SOLID
  5
1022E
  8
0
 10
406.3237
 20
-291.8949271862101
 30
0.0
 11
406.3237
 21
-275.2501355086597
 31
0.0
 12
407.1836
 22
-291.9355708961027
 32
0.0
 13
407.1836
 23
-291.9355708961027
 33
0.0
  0
SOLID
  5
1022F
  8
0
 10
407.1836
 20
-291.9355708961027
 30
0.0
 11
406.3237
 21
-275.2501355086597
 31
0.0
 12
407.1836
 22
-275.2124
 32
0.0
 13
407.1836
 23
-275.2124
 33
0.0
  0
SOLID
  5
10230
  8
0
 10
406.3237
 20
-272.9157
 30
0.0
 11
406.3237
 21
-267.0131176082062
 31
0.0
 12
407.1836
 22
-272.9324426012461
 32
0.0
 13
407.1836
 23
-272.9324426012461
 33
0.0
  0
SOLID
  5
10231
  8
0
 10
407.1836
 20
-272.9324426012461
 30
0.0
 11
406.3237
 21
-267.0131176082062
 31
0.0
 12
407.1836
 22
-267.0098155235229
 32
0.0
 13
407.1836
 23
-267.0098155235229
 33
0.0
  0
SOLID
  5
10232
  8
0
 10
407.1836
 20
-291.9355708961027
 30
0.0
 11
407.1836
 21
-275.2124
 31
0.0
 12
407.19682
 22
-291.9361957476492
 32
0.0
 13
407.19682
 23
-291.9361957476492
 33
0.0
  0
SOLID
  5
10233
  8
0
 10
407.19682
 20
-291.9361957476492
 30
0.0
 11
407.1836
 21
-275.2124
 31
0.0
 12
407.19682
 22
-275.2138658600576
 32
0.0
 13
407.19682
 23
-275.2138658600576
 33
0.0
  0
SOLID
  5
10234
  8
0
 10
407.1836
 20
-272.9324426012461
 30
0.0
 11
407.1836
 21
-267.0098155235229
 31
0.0
 12
407.19682
 22
-272.9327
 32
0.0
 13
407.19682
 23
-272.9327
 33
0.0
  0
SOLID
  5
10235
  8
0
 10
407.19682
 20
-272.9327
 30
0.0
 11
407.1836
 21
-267.0098155235229
 31
0.0
 12
407.19682
 22
-267.009764757667
 32
0.0
 13
407.19682
 23
-267.009764757667
 33
0.0
  0
SOLID
  5
10236
  8
0
 10
407.19682
 20
-291.9361957476492
 30
0.0
 11
407.19682
 21
-275.2138658600576
 31
0.0
 12
407.99425
 22
-291.9738867740239
 32
0.0
 13
407.99425
 23
-291.9738867740239
 33
0.0
  0
SOLID
  5
10237
  8
0
 10
407.99425
 20
-291.9738867740239
 30
0.0
 11
407.19682
 21
-275.2138658600576
 31
0.0
 12
407.99425
 22
-275.3022864943796
 32
0.0
 13
407.99425
 23
-275.3022864943796
 33
0.0
  0
SOLID
  5
10238
  8
0
 10
407.19682
 20
-272.9327
 30
0.0
 11
407.19682
 21
-267.009764757667
 31
0.0
 12
407.99425
 22
-273.0277
 32
0.0
 13
407.99425
 23
-273.0277
 33
0.0
  0
SOLID
  5
10239
  8
0
 10
407.99425
 20
-273.0277
 30
0.0
 11
407.19682
 21
-267.009764757667
 31
0.0
 12
407.99425
 22
-267.0067025627733
 32
0.0
 13
407.99425
 23
-267.0067025627733
 33
0.0
  0
SOLID
  5
1023A
  8
0
 10
407.99425
 20
-291.9738867740239
 30
0.0
 11
407.99425
 21
-275.3022864943796
 31
0.0
 12
408.42997
 22
-291.9944813516195
 32
0.0
 13
408.42997
 23
-291.9944813516195
 33
0.0
  0
SOLID
  5
1023B
  8
0
 10
408.42997
 20
-291.9944813516195
 30
0.0
 11
407.99425
 21
-275.3022864943796
 31
0.0
 12
408.42997
 22
-275.3506
 32
0.0
 13
408.42997
 23
-275.3506
 33
0.0
  0
SOLID
  5
1023C
  8
0
 10
407.99425
 20
-273.0277
 30
0.0
 11
407.99425
 21
-267.0067025627733
 31
0.0
 12
408.42997
 22
-273.1179261098418
 32
0.0
 13
408.42997
 23
-273.1179261098418
 33
0.0
  0
SOLID
  5
1023D
  8
0
 10
408.42997
 20
-273.1179261098418
 30
0.0
 11
407.99425
 21
-267.0067025627733
 31
0.0
 12
408.42997
 22
-267.0050293631708
 32
0.0
 13
408.42997
 23
-267.0050293631708
 33
0.0
  0
SOLID
  5
1023E
  8
0
 10
408.42997
 20
-291.9944813516195
 30
0.0
 11
408.42997
 21
-275.3506
 31
0.0
 12
408.47691
 22
-291.9967
 32
0.0
 13
408.47691
 23
-291.9967
 33
0.0
  0
SOLID
  5
1023F
  8
0
 10
408.47691
 20
-291.9967
 30
0.0
 11
408.42997
 21
-275.3506
 31
0.0
 12
408.47691
 22
-275.9405915883363
 32
0.0
 13
408.47691
 23
-275.9405915883363
 33
0.0
  0
SOLID
  5
10240
  8
0
 10
408.42997
 20
-273.1179261098418
 30
0.0
 11
408.42997
 21
-267.0050293631708
 31
0.0
 12
408.47691
 22
-273.1276461447174
 32
0.0
 13
408.47691
 23
-273.1276461447174
 33
0.0
  0
SOLID
  5
10241
  8
0
 10
408.47691
 20
-273.1276461447174
 30
0.0
 11
408.42997
 21
-267.0050293631708
 31
0.0
 12
408.47691
 22
-267.0048491098215
 32
0.0
 13
408.47691
 23
-267.0048491098215
 33
0.0
  0
SOLID
  5
10242
  8
0
 10
408.47691
 20
-291.9967
 30
0.0
 11
408.47691
 21
-275.9405915883363
 31
0.0
 12
408.63849
 22
-291.9969477054515
 32
0.0
 13
408.63849
 23
-291.9969477054515
 33
0.0
  0
SOLID
  5
10243
  8
0
 10
408.63849
 20
-291.9969477054515
 30
0.0
 11
408.47691
 21
-275.9405915883363
 31
0.0
 12
408.63849
 22
-277.9715
 32
0.0
 13
408.63849
 23
-277.9715
 33
0.0
  0
SOLID
  5
10244
  8
0
 10
408.47691
 20
-273.1276461447174
 30
0.0
 11
408.47691
 21
-267.0048491098215
 31
0.0
 12
408.63849
 22
-273.1611050973206
 32
0.0
 13
408.63849
 23
-273.1611050973206
 33
0.0
  0
SOLID
  5
10245
  8
0
 10
408.63849
 20
-273.1611050973206
 30
0.0
 11
408.47691
 21
-267.0048491098215
 31
0.0
 12
408.63849
 22
-267.0042286297155
 32
0.0
 13
408.63849
 23
-267.0042286297155
 33
0.0
  0
SOLID
  5
10246
  8
0
 10
408.63849
 20
-291.9969477054515
 30
0.0
 11
408.63849
 21
-277.9715
 31
0.0
 12
408.71206
 22
-291.9970604897694
 32
0.0
 13
408.71206
 23
-291.9970604897694
 33
0.0
  0
SOLID
  5
10247
  8
0
 10
408.71206
 20
-291.9970604897694
 30
0.0
 11
408.63849
 21
-277.9715
 31
0.0
 12
408.71206
 22
-279.6397432777109
 32
0.0
 13
408.71206
 23
-279.6397432777109
 33
0.0
  0
SOLID
  5
10248
  8
0
 10
408.63849
 20
-273.1611050973206
 30
0.0
 11
408.63849
 21
-267.0042286297155
 31
0.0
 12
408.71206
 22
-273.176339502216
 32
0.0
 13
408.71206
 23
-273.176339502216
 33
0.0
  0
SOLID
  5
10249
  8
0
 10
408.71206
 20
-273.176339502216
 30
0.0
 11
408.63849
 21
-267.0042286297155
 31
0.0
 12
408.71206
 22
-267.0039461150392
 32
0.0
 13
408.71206
 23
-267.0039461150392
 33
0.0
  0
SOLID
  5
1024A
  8
0
 10
408.71206
 20
-291.9970604897694
 30
0.0
 11
408.71206
 21
-287.2272
 31
0.0
 12
408.73596
 22
-291.9970971289592
 32
0.0
 13
408.73596
 23
-291.9970971289592
 33
0.0
  0
SOLID
  5
1024B
  8
0
 10
408.73596
 20
-291.9970971289592
 30
0.0
 11
408.71206
 21
-287.2272
 31
0.0
 12
408.73596
 22
-287.2285539242127
 32
0.0
 13
408.73596
 23
-287.2285539242127
 33
0.0
  0
SOLID
  5
1024C
  8
0
 10
408.71206
 20
-287.2272
 30
0.0
 11
408.71206
 21
-279.6397432777109
 31
0.0
 12
408.73596
 22
-286.6211
 32
0.0
 13
408.73596
 23
-286.6211
 33
0.0
  0
SOLID
  5
1024D
  8
0
 10
408.73596
 20
-286.6211
 30
0.0
 11
408.71206
 21
-279.6397432777109
 31
0.0
 12
408.73596
 22
-280.1816899181516
 32
0.0
 13
408.73596
 23
-280.1816899181516
 33
0.0
  0
SOLID
  5
1024E
  8
0
 10
408.71206
 20
-273.176339502216
 30
0.0
 11
408.71206
 21
-267.0039461150392
 31
0.0
 12
408.73596
 22
-273.1812885613027
 32
0.0
 13
408.73596
 23
-273.1812885613027
 33
0.0
  0
SOLID
  5
1024F
  8
0
 10
408.73596
 20
-273.1812885613027
 30
0.0
 11
408.71206
 21
-267.0039461150392
 31
0.0
 12
408.73596
 22
-267.0038543371302
 32
0.0
 13
408.73596
 23
-267.0038543371302
 33
0.0
  0
SOLID
  5
10250
  8
0
 10
408.73596
 20
-291.9970971289592
 30
0.0
 11
408.73596
 21
-287.2285539242127
 31
0.0
 12
408.7961
 22
-291.9971893248118
 32
0.0
 13
408.7961
 23
-291.9971893248118
 33
0.0
  0
SOLID
  5
10251
  8
0
 10
408.7961
 20
-291.9971893248118
 30
0.0
 11
408.73596
 21
-287.2285539242127
 31
0.0
 12
408.7961
 22
-287.2319608280686
 32
0.0
 13
408.7961
 23
-287.2319608280686
 33
0.0
  0
SOLID
  5
10252
  8
0
 10
408.73596
 20
-286.6211
 30
0.0
 11
408.73596
 21
-280.1816899181516
 31
0.0
 12
408.7961
 22
-285.5452169867752
 32
0.0
 13
408.7961
 23
-285.5452169867752
 33
0.0
  0
SOLID
  5
10253
  8
0
 10
408.7961
 20
-285.5452169867752
 30
0.0
 11
408.73596
 21
-280.1816899181516
 31
0.0
 12
408.7961
 22
-281.5454
 32
0.0
 13
408.7961
 23
-281.5454
 33
0.0
  0
SOLID
  5
10254
  8
0
 10
408.73596
 20
-273.1812885613027
 30
0.0
 11
408.73596
 21
-267.0038543371302
 31
0.0
 12
408.7961
 22
-273.193741967724
 32
0.0
 13
408.7961
 23
-273.193741967724
 33
0.0
  0
SOLID
  5
10255
  8
0
 10
408.7961
 20
-273.193741967724
 30
0.0
 11
408.73596
 21
-267.0038543371302
 31
0.0
 12
408.7961
 22
-267.0036233947266
 32
0.0
 13
408.7961
 23
-267.0036233947266
 33
0.0
  0
SOLID
  5
10256
  8
0
 10
408.7961
 20
-291.9971893248118
 30
0.0
 11
408.7961
 21
-287.2319608280686
 31
0.0
 12
408.863
 22
-291.9972918838829
 32
0.0
 13
408.863
 23
-291.9972918838829
 33
0.0
  0
SOLID
  5
10257
  8
0
 10
408.863
 20
-291.9972918838829
 30
0.0
 11
408.7961
 21
-287.2319608280686
 31
0.0
 12
408.863
 22
-287.2357506828733
 32
0.0
 13
408.863
 23
-287.2357506828733
 33
0.0
  0
SOLID
  5
10258
  8
0
 10
408.7961
 20
-285.5452169867752
 30
0.0
 11
408.7961
 21
-281.5454
 31
0.0
 12
408.863
 22
-284.3484
 32
0.0
 13
408.863
 23
-284.3484
 33
0.0
  0
SOLID
  5
10259
  8
0
 10
408.7961
 20
-273.193741967724
 30
0.0
 11
408.7961
 21
-267.0036233947266
 31
0.0
 12
408.863
 22
-273.2075951916945
 32
0.0
 13
408.863
 23
-273.2075951916945
 33
0.0
  0
SOLID
  5
1025A
  8
0
 10
408.863
 20
-273.2075951916945
 30
0.0
 11
408.7961
 21
-267.0036233947266
 31
0.0
 12
408.863
 22
-267.0033664933831
 32
0.0
 13
408.863
 23
-267.0033664933831
 33
0.0
  0
SOLID
  5
1025B
  8
0
 10
408.863
 20
-291.9972918838829
 30
0.0
 11
408.863
 21
-287.2357506828733
 31
0.0
 12
409.23294
 22
-291.9978590094848
 32
0.0
 13
409.23294
 23
-291.9978590094848
 33
0.0
  0
SOLID
  5
1025C
  8
0
 10
409.23294
 20
-291.9978590094848
 30
0.0
 11
408.863
 21
-287.2357506828733
 31
0.0
 12
409.23294
 22
-287.2567076169012
 32
0.0
 13
409.23294
 23
-287.2567076169012
 33
0.0
  0
SOLID
  5
1025D
  8
0
 10
408.863
 20
-273.2075951916945
 30
0.0
 11
408.863
 21
-267.0033664933831
 31
0.0
 12
409.23294
 22
-273.2842
 32
0.0
 13
409.23294
 23
-273.2842
 33
0.0
  0
SOLID
  5
1025E
  8
0
 10
409.23294
 20
-273.2842
 30
0.0
 11
408.863
 21
-267.0033664933831
 31
0.0
 12
409.23294
 22
-267.0019458942346
 32
0.0
 13
409.23294
 23
-267.0019458942346
 33
0.0
  0
SOLID
  5
1025F
  8
0
 10
409.23294
 20
-291.9978590094848
 30
0.0
 11
409.23294
 21
-287.2567076169012
 31
0.0
 12
409.52407
 22
-291.9983053177415
 32
0.0
 13
409.52407
 23
-291.9983053177415
 33
0.0
  0
SOLID
  5
10260
  8
0
 10
409.52407
 20
-291.9983053177415
 30
0.0
 11
409.23294
 21
-287.2567076169012
 31
0.0
 12
409.52407
 22
-287.2732
 32
0.0
 13
409.52407
 23
-287.2732
 33
0.0
  0
SOLID
  5
10261
  8
0
 10
409.23294
 20
-273.2842
 30
0.0
 11
409.23294
 21
-267.0019458942346
 31
0.0
 12
409.52407
 22
-273.3572125596264
 32
0.0
 13
409.52407
 23
-273.3572125596264
 33
0.0
  0
SOLID
  5
10262
  8
0
 10
409.52407
 20
-273.3572125596264
 30
0.0
 11
409.23294
 21
-267.0019458942346
 31
0.0
 12
409.52407
 22
-267.000827931781
 32
0.0
 13
409.52407
 23
-267.000827931781
 33
0.0
  0
SOLID
  5
10263
  8
0
 10
409.52407
 20
-291.9983053177415
 30
0.0
 11
409.52407
 21
-287.2732
 31
0.0
 12
410.47779
 22
-291.9997673900479
 32
0.0
 13
410.47779
 23
-291.9997673900479
 33
0.0
  0
SOLID
  5
10264
  8
0
 10
410.47779
 20
-291.9997673900479
 30
0.0
 11
409.52407
 21
-287.2732
 31
0.0
 12
410.47779
 22
-287.1126895201818
 32
0.0
 13
410.47779
 23
-287.1126895201818
 33
0.0
  0
SOLID
  5
10265
  8
0
 10
409.52407
 20
-273.3572125596264
 30
0.0
 11
409.52407
 21
-267.000827931781
 31
0.0
 12
410.47779
 22
-273.5963962176725
 32
0.0
 13
410.47779
 23
-273.5963962176725
 33
0.0
  0
SOLID
  5
10266
  8
0
 10
410.47779
 20
-273.5963962176725
 30
0.0
 11
409.52407
 21
-267.000827931781
 31
0.0
 12
410.47779
 22
-266.9971655708039
 32
0.0
 13
410.47779
 23
-266.9971655708039
 33
0.0
  0
SOLID
  5
10267
  8
0
 10
410.47779
 20
-291.9997673900479
 30
0.0
 11
410.47779
 21
-287.1126895201818
 31
0.0
 12
410.58468
 22
-291.9999312546086
 32
0.0
 13
410.58468
 23
-291.9999312546086
 33
0.0
  0
SOLID
  5
10268
  8
0
 10
410.58468
 20
-291.9999312546086
 30
0.0
 11
410.47779
 21
-287.1126895201818
 31
0.0
 12
410.58468
 22
-287.0947
 32
0.0
 13
410.58468
 23
-287.0947
 33
0.0
  0
SOLID
  5
10269
  8
0
 10
410.58468
 20
-283.9277619007352
 30
0.0
 11
410.47779
 21
-282.3945
 31
0.0
 12
410.58468
 22
-282.074458285099
 32
0.0
 13
410.58468
 23
-282.074458285099
 33
0.0
  0
SOLID
  5
1026A
  8
0
 10
410.47779
 20
-273.5963962176725
 30
0.0
 11
410.47779
 21
-266.9971655708039
 31
0.0
 12
410.58468
 22
-273.6232031853448
 32
0.0
 13
410.58468
 23
-273.6232031853448
 33
0.0
  0
SOLID
  5
1026B
  8
0
 10
410.58468
 20
-273.6232031853448
 30
0.0
 11
410.47779
 21
-266.9971655708039
 31
0.0
 12
410.58468
 22
-266.9967551046662
 32
0.0
 13
410.58468
 23
-266.9967551046662
 33
0.0
  0
SOLID
  5
1026C
  8
0
 10
410.58468
 20
-291.9999312546086
 30
0.0
 11
410.58468
 21
-287.0947
 31
0.0
 12
410.60596
 22
-291.9999638772848
 32
0.0
 13
410.60596
 23
-291.9999638772848
 33
0.0
  0
SOLID
  5
1026D
  8
0
 10
410.60596
 20
-291.9999638772848
 30
0.0
 11
410.58468
 21
-287.0947
 31
0.0
 12
410.60596
 22
-286.8801437639801
 32
0.0
 13
410.60596
 23
-286.8801437639801
 33
0.0
  0
SOLID
  5
1026E
  8
0
 10
410.58468
 20
-283.9277619007352
 30
0.0
 11
410.58468
 21
-282.074458285099
 31
0.0
 12
410.60596
 22
-284.2330085397813
 32
0.0
 13
410.60596
 23
-284.2330085397813
 33
0.0
  0
SOLID
  5
1026F
  8
0
 10
410.60596
 20
-284.2330085397813
 30
0.0
 11
410.58468
 21
-282.074458285099
 31
0.0
 12
410.60596
 22
-282.010743366088
 32
0.0
 13
410.60596
 23
-282.010743366088
 33
0.0
  0
SOLID
  5
10270
  8
0
 10
410.58468
 20
-273.6232031853448
 30
0.0
 11
410.58468
 21
-266.9967551046662
 31
0.0
 12
410.60596
 22
-273.6285400014368
 32
0.0
 13
410.60596
 23
-273.6285400014368
 33
0.0
  0
SOLID
  5
10271
  8
0
 10
410.60596
 20
-273.6285400014368
 30
0.0
 11
410.58468
 21
-266.9967551046662
 31
0.0
 12
410.60596
 22
-266.9966733877665
 32
0.0
 13
410.60596
 23
-266.9966733877665
 33
0.0
  0
SOLID
  5
10272
  8
0
 10
410.60596
 20
-291.9999638772848
 30
0.0
 11
410.60596
 21
-286.8801437639801
 31
0.0
 12
410.62494
 22
-291.9999929740138
 32
0.0
 13
410.62494
 23
-291.9999929740138
 33
0.0
  0
SOLID
  5
10273
  8
0
 10
410.62494
 20
-291.9999929740138
 30
0.0
 11
410.60596
 21
-286.8801437639801
 31
0.0
 12
410.62494
 22
-286.6887773467029
 32
0.0
 13
410.62494
 23
-286.6887773467029
 33
0.0
  0
SOLID
  5
10274
  8
0
 10
410.60596
 20
-284.2330085397813
 30
0.0
 11
410.60596
 21
-282.010743366088
 31
0.0
 12
410.62494
 22
-284.5052632958479
 32
0.0
 13
410.62494
 23
-284.5052632958479
 33
0.0
  0
SOLID
  5
10275
  8
0
 10
410.62494
 20
-284.5052632958479
 30
0.0
 11
410.60596
 21
-282.010743366088
 31
0.0
 12
410.62494
 22
-281.9539149279851
 32
0.0
 13
410.62494
 23
-281.9539149279851
 33
0.0
  0
SOLID
  5
10276
  8
0
 10
410.62494
 20
-279.2452885202622
 30
0.0
 11
410.60596
 21
-279.2177
 31
0.0
 12
410.62494
 22
-279.1566280743439
 32
0.0
 13
410.62494
 23
-279.1566280743439
 33
0.0
  0
SOLID
  5
10277
  8
0
 10
410.60596
 20
-273.6285400014368
 30
0.0
 11
410.60596
 21
-266.9966733877665
 31
0.0
 12
410.62494
 22
-273.6333
 32
0.0
 13
410.62494
 23
-273.6333
 33
0.0
  0
SOLID
  5
10278
  8
0
 10
410.62494
 20
-273.6333
 30
0.0
 11
410.60596
 21
-266.9966733877665
 31
0.0
 12
410.62494
 22
-266.9966005030505
 32
0.0
 13
410.62494
 23
-266.9966005030505
 33
0.0
  0
SOLID
  5
10279
  8
0
 10
410.62494
 20
-291.9999929740138
 30
0.0
 11
410.62494
 21
-286.6887773467029
 31
0.0
 12
410.71433
 22
-292.0001300107158
 32
0.0
 13
410.71433
 23
-292.0001300107158
 33
0.0
  0
SOLID
  5
1027A
  8
0
 10
410.71433
 20
-292.0001300107158
 30
0.0
 11
410.62494
 21
-286.6887773467029
 31
0.0
 12
410.71433
 22
-285.7875
 32
0.0
 13
410.71433
 23
-285.7875
 33
0.0
  0
SOLID
  5
1027B
  8
0
 10
410.62494
 20
-284.5052632958479
 30
0.0
 11
410.62494
 21
-281.9539149279851
 31
0.0
 12
410.71433
 22
-285.7875
 32
0.0
 13
410.71433
 23
-285.7875
 33
0.0
  0
SOLID
  5
1027C
  8
0
 10
410.71433
 20
-285.7875
 30
0.0
 11
410.62494
 21
-281.9539149279851
 31
0.0
 12
410.71433
 22
-281.6862703504285
 32
0.0
 13
410.71433
 23
-281.6862703504285
 33
0.0
  0
SOLID
  5
1027D
  8
0
 10
410.62494
 20
-279.2452885202622
 30
0.0
 11
410.62494
 21
-279.1566280743439
 31
0.0
 12
410.71433
 22
-279.3752220200643
 32
0.0
 13
410.71433
 23
-279.3752220200643
 33
0.0
  0
SOLID
  5
1027E
  8
0
 10
410.71433
 20
-279.3752220200643
 30
0.0
 11
410.62494
 21
-279.1566280743439
 31
0.0
 12
410.71433
 22
-278.8689979671576
 32
0.0
 13
410.71433
 23
-278.8689979671576
 33
0.0
  0
SOLID
  5
1027F
  8
0
 10
410.62494
 20
-273.6333
 30
0.0
 11
410.62494
 21
-266.9966005030505
 31
0.0
 12
410.71433
 22
-273.6526587721915
 32
0.0
 13
410.71433
 23
-273.6526587721915
 33
0.0
  0
SOLID
  5
10280
  8
0
 10
410.71433
 20
-273.6526587721915
 30
0.0
 11
410.62494
 21
-266.9966005030505
 31
0.0
 12
410.71433
 22
-266.9962572383106
 32
0.0
 13
410.71433
 23
-266.9962572383106
 33
0.0
  0
SOLID
  5
10281
  8
0
 10
410.71433
 20
-292.0001300107158
 30
0.0
 11
410.71433
 21
-281.6862703504285
 31
0.0
 12
410.98474
 22
-292.0005445547878
 32
0.0
 13
410.98474
 23
-292.0005445547878
 33
0.0
  0
SOLID
  5
10282
  8
0
 10
410.98474
 20
-292.0005445547878
 30
0.0
 11
410.71433
 21
-281.6862703504285
 31
0.0
 12
410.98474
 22
-280.8766297841793
 32
0.0
 13
410.98474
 23
-280.8766297841793
 33
0.0
  0
SOLID
  5
10283
  8
0
 10
410.71433
 20
-279.3752220200643
 30
0.0
 11
410.71433
 21
-278.8689979671576
 31
0.0
 12
410.98474
 22
-279.7682784881418
 32
0.0
 13
410.98474
 23
-279.7682784881418
 33
0.0
  0
SOLID
  5
10284
  8
0
 10
410.98474
 20
-279.7682784881418
 30
0.0
 11
410.71433
 21
-278.8689979671576
 31
0.0
 12
410.98474
 22
-277.9989
 32
0.0
 13
410.98474
 23
-277.9989
 33
0.0
  0
SOLID
  5
10285
  8
0
 10
410.71433
 20
-273.6526587721915
 30
0.0
 11
410.71433
 21
-266.9962572383106
 31
0.0
 12
410.98474
 22
-273.7112201950384
 32
0.0
 13
410.98474
 23
-273.7112201950384
 33
0.0
  0
SOLID
  5
10286
  8
0
 10
410.98474
 20
-273.7112201950384
 30
0.0
 11
410.71433
 21
-266.9962572383106
 31
0.0
 12
410.98474
 22
-266.9952188423119
 32
0.0
 13
410.98474
 23
-266.9952188423119
 33
0.0
  0
SOLID
  5
10287
  8
0
 10
410.98474
 20
-292.0005445547878
 30
0.0
 11
410.98474
 21
-280.8766297841793
 31
0.0
 12
411.0605
 22
-292.0006606964205
 32
0.0
 13
411.0605
 23
-292.0006606964205
 33
0.0
  0
SOLID
  5
10288
  8
0
 10
411.0605
 20
-292.0006606964205
 30
0.0
 11
410.98474
 21
-280.8766297841793
 31
0.0
 12
411.0605
 22
-280.649795091309
 32
0.0
 13
411.0605
 23
-280.649795091309
 33
0.0
  0
SOLID
  5
10289
  8
0
 10
410.98474
 20
-279.7682784881418
 30
0.0
 11
410.98474
 21
-277.9989
 31
0.0
 12
411.0605
 22
-279.8784
 32
0.0
 13
411.0605
 23
-279.8784
 33
0.0
  0
SOLID
  5
1028A
  8
0
 10
411.0605
 20
-279.8784
 30
0.0
 11
410.98474
 21
-277.9989
 31
0.0
 12
411.0605
 22
-277.8468559861665
 32
0.0
 13
411.0605
 23
-277.8468559861665
 33
0.0
  0
SOLID
  5
1028B
  8
0
 10
410.98474
 20
-273.7112201950384
 30
0.0
 11
410.98474
 21
-266.9952188423119
 31
0.0
 12
411.0605
 22
-273.7276271821872
 32
0.0
 13
411.0605
 23
-273.7276271821872
 33
0.0
  0
SOLID
  5
1028C
  8
0
 10
411.0605
 20
-273.7276271821872
 30
0.0
 11
410.98474
 21
-266.9952188423119
 31
0.0
 12
411.0605
 22
-266.9949279178607
 32
0.0
 13
411.0605
 23
-266.9949279178607
 33
0.0
  0
SOLID
  5
1028D
  8
0
 10
411.0605
 20
-292.0006606964205
 30
0.0
 11
411.0605
 21
-280.649795091309
 31
0.0
 12
411.1464
 22
-292.0007923828811
 32
0.0
 13
411.1464
 23
-292.0007923828811
 33
0.0
  0
SOLID
  5
1028E
  8
0
 10
411.1464
 20
-292.0007923828811
 30
0.0
 11
411.0605
 21
-280.649795091309
 31
0.0
 12
411.1464
 22
-280.3926
 32
0.0
 13
411.1464
 23
-280.3926
 33
0.0
  0
SOLID
  5
1028F
  8
0
 10
411.0605
 20
-279.8784
 30
0.0
 11
411.0605
 21
-277.8468559861665
 31
0.0
 12
411.1464
 22
-280.3926
 32
0.0
 13
411.1464
 23
-280.3926
 33
0.0
  0
SOLID
  5
10290
  8
0
 10
411.1464
 20
-280.3926
 30
0.0
 11
411.0605
 21
-277.8468559861665
 31
0.0
 12
411.1464
 22
-277.6744618363737
 32
0.0
 13
411.1464
 23
-277.6744618363737
 33
0.0
  0
SOLID
  5
10291
  8
0
 10
411.0605
 20
-273.7276271821872
 30
0.0
 11
411.0605
 21
-266.9949279178607
 31
0.0
 12
411.1464
 22
-273.7462301414807
 32
0.0
 13
411.1464
 23
-273.7462301414807
 33
0.0
  0
SOLID
  5
10292
  8
0
 10
411.1464
 20
-273.7462301414807
 30
0.0
 11
411.0605
 21
-266.9949279178607
 31
0.0
 12
411.1464
 22
-266.9945980549995
 32
0.0
 13
411.1464
 23
-266.9945980549995
 33
0.0
  0
SOLID
  5
10293
  8
0
 10
411.1464
 20
-292.0007923828811
 30
0.0
 11
411.1464
 21
-277.6744618363737
 31
0.0
 12
411.36353
 22
-292.0011252476211
 32
0.0
 13
411.36353
 23
-292.0011252476211
 33
0.0
  0
SOLID
  5
10294
  8
0
 10
411.36353
 20
-292.0011252476211
 30
0.0
 11
411.1464
 21
-277.6744618363737
 31
0.0
 12
411.36353
 22
-277.2387
 32
0.0
 13
411.36353
 23
-277.2387
 33
0.0
  0
SOLID
  5
10295
  8
0
 10
411.1464
 20
-273.7462301414807
 30
0.0
 11
411.1464
 21
-266.9945980549995
 31
0.0
 12
411.36353
 22
-273.7932529651291
 32
0.0
 13
411.36353
 23
-273.7932529651291
 33
0.0
  0
SOLID
  5
10296
  8
0
 10
411.36353
 20
-273.7932529651291
 30
0.0
 11
411.1464
 21
-266.9945980549995
 31
0.0
 12
411.36353
 22
-266.9937642584566
 32
0.0
 13
411.36353
 23
-266.9937642584566
 33
0.0
  0
SOLID
  5
10297
  8
0
 10
411.36353
 20
-292.0011252476211
 30
0.0
 11
411.36353
 21
-277.2387
 31
0.0
 12
411.39607
 22
-292.001175132108
 32
0.0
 13
411.39607
 23
-292.001175132108
 33
0.0
  0
SOLID
  5
10298
  8
0
 10
411.39607
 20
-292.001175132108
 30
0.0
 11
411.36353
 21
-277.2387
 31
0.0
 12
411.39607
 22
-277.1318894222731
 32
0.0
 13
411.39607
 23
-277.1318894222731
 33
0.0
  0
SOLID
  5
10299
  8
0
 10
411.36353
 20
-273.7932529651291
 30
0.0
 11
411.36353
 21
-266.9937642584566
 31
0.0
 12
411.39607
 22
-273.8003
 32
0.0
 13
411.39607
 23
-273.8003
 33
0.0
  0
SOLID
  5
1029A
  8
0
 10
411.39607
 20
-273.8003
 30
0.0
 11
411.36353
 21
-266.9937642584566
 31
0.0
 12
411.39607
 22
-266.9936393022575
 32
0.0
 13
411.39607
 23
-266.9936393022575
 33
0.0
  0
SOLID
  5
1029B
  8
0
 10
411.39607
 20
-292.001175132108
 30
0.0
 11
411.39607
 21
-277.1318894222731
 31
0.0
 12
411.51505
 22
-292.0013575308865
 32
0.0
 13
411.51505
 23
-292.0013575308865
 33
0.0
  0
SOLID
  5
1029C
  8
0
 10
411.51505
 20
-292.0013575308865
 30
0.0
 11
411.39607
 21
-277.1318894222731
 31
0.0
 12
411.51505
 22
-276.7413447837375
 32
0.0
 13
411.51505
 23
-276.7413447837375
 33
0.0
  0
SOLID
  5
1029D
  8
0
 10
411.39607
 20
-273.8003
 30
0.0
 11
411.39607
 21
-266.9936393022575
 31
0.0
 12
411.51505
 22
-274.2854452845752
 32
0.0
 13
411.51505
 23
-274.2854452845752
 33
0.0
  0
SOLID
  5
1029E
  8
0
 10
411.51505
 20
-274.2854452845752
 30
0.0
 11
411.39607
 21
-266.9936393022575
 31
0.0
 12
411.51505
 22
-266.9931824095542
 32
0.0
 13
411.51505
 23
-266.9931824095542
 33
0.0
  0
SOLID
  5
1029F
  8
0
 10
411.51505
 20
-292.0013575308865
 30
0.0
 11
411.51505
 21
-276.7413447837375
 31
0.0
 12
411.54155
 22
-292.0013981559296
 32
0.0
 13
411.54155
 23
-292.0013981559296
 33
0.0
  0
SOLID
  5
102A0
  8
0
 10
411.54155
 20
-292.0013981559296
 30
0.0
 11
411.51505
 21
-276.7413447837375
 31
0.0
 12
411.54155
 22
-276.6543601399218
 32
0.0
 13
411.54155
 23
-276.6543601399218
 33
0.0
  0
SOLID
  5
102A1
  8
0
 10
411.54155
 20
-274.9252032868033
 30
0.0
 11
411.51505
 21
-274.8784
 31
0.0
 12
411.54155
 22
-274.3935
 32
0.0
 13
411.54155
 23
-274.3935
 33
0.0
  0
SOLID
  5
102A2
  8
0
 10
411.51505
 20
-274.2854452845752
 30
0.0
 11
411.51505
 21
-266.9931824095542
 31
0.0
 12
411.54155
 22
-274.3935
 32
0.0
 13
411.54155
 23
-274.3935
 33
0.0
  0
SOLID
  5
102A3
  8
0
 10
411.54155
 20
-274.3935
 30
0.0
 11
411.51505
 21
-266.9931824095542
 31
0.0
 12
411.54155
 22
-266.9930806474375
 32
0.0
 13
411.54155
 23
-266.9930806474375
 33
0.0
  0
SOLID
  5
102A4
  8
0
 10
411.54155
 20
-292.0013981559296
 30
0.0
 11
411.54155
 21
-276.6543601399218
 31
0.0
 12
411.5908
 22
-292.001473657189
 32
0.0
 13
411.5908
 23
-292.001473657189
 33
0.0
  0
SOLID
  5
102A5
  8
0
 10
411.5908
 20
-292.001473657189
 30
0.0
 11
411.54155
 21
-276.6543601399218
 31
0.0
 12
411.5908
 22
-276.4927
 32
0.0
 13
411.5908
 23
-276.4927
 33
0.0
  0
SOLID
  5
102A6
  8
0
 10
411.54155
 20
-274.9252032868033
 30
0.0
 11
411.54155
 21
-266.9930806474375
 31
0.0
 12
411.5908
 22
-275.0121867537868
 32
0.0
 13
411.5908
 23
-275.0121867537868
 33
0.0
  0
SOLID
  5
102A7
  8
0
 10
411.5908
 20
-275.0121867537868
 30
0.0
 11
411.54155
 21
-266.9930806474375
 31
0.0
 12
411.5908
 22
-266.9928915235037
 32
0.0
 13
411.5908
 23
-266.9928915235037
 33
0.0
  0
SOLID
  5
102A8
  8
0
 10
411.5908
 20
-292.001473657189
 30
0.0
 11
411.5908
 21
-276.4927
 31
0.0
 12
411.81808
 22
-292.0018220820871
 32
0.0
 13
411.81808
 23
-292.0018220820871
 33
0.0
  0
SOLID
  5
102A9
  8
0
 10
411.81808
 20
-292.0018220820871
 30
0.0
 11
411.5908
 21
-276.4927
 31
0.0
 12
411.81808
 22
-275.4136
 32
0.0
 13
411.81808
 23
-275.4136
 33
0.0
  0
SOLID
  5
102AA
  8
0
 10
411.5908
 20
-275.0121867537868
 30
0.0
 11
411.5908
 21
-266.9928915235037
 31
0.0
 12
411.81808
 22
-275.4136
 32
0.0
 13
411.81808
 23
-275.4136
 33
0.0
  0
SOLID
  5
102AB
  8
0
 10
411.81808
 20
-275.4136
 30
0.0
 11
411.5908
 21
-266.9928915235037
 31
0.0
 12
411.81808
 22
-266.99201875015
 32
0.0
 13
411.81808
 23
-266.99201875015
 33
0.0
  0
SOLID
  5
102AC
  8
0
 10
411.81808
 20
-292.0018220820871
 30
0.0
 11
411.81808
 21
-266.99201875015
 31
0.0
 12
414.99998
 22
-292.0067
 32
0.0
 13
414.99998
 23
-292.0067
 33
0.0
  0
SOLID
  5
102AD
  8
0
 10
414.99998
 20
-292.0067
 30
0.0
 11
411.81808
 21
-266.99201875015
 31
0.0
 12
414.99998
 22
-266.9798
 32
0.0
 13
414.99998
 23
-266.9798
 33
0.0
  0
ENDBLK
  5
102AF
  8
0
999
$blocks
  0
ENDSEC
  0
SECTION
  2
ENTITIES
  0
POLYLINE
  5
100
  8
0
 66
     1
 10
0.0
 20
0.0
 30
0.0
  0
VERTEX
  5
10049
  8
0
 10
10.0
 20
-5.199560000000019
 30
0.0
  0
VERTEX
  5
1004A
  8
0
 10
5.0
 20
-5.199560000000019
 30
0.0
  0
VERTEX
  5
1004B
  8
0
 10
5.0
 20
-10.19956000000002
 30
0.0
  0
SEQEND
  5
102B0
  8
0
  0
POLYLINE
  5
101
  8
0
 66
     1
 10
0.0
 20
0.0
 30
0.0
  0
VERTEX
  5
1004C
  8
0
 10
410.0
 20
-5.199560000000019
 30
0.0
  0
VERTEX
  5
1004D
  8
0
 10
415.0
 20
-5.199560000000019
 30
0.0
  0
VERTEX
  5
1004E
  8
0
 10
415.0
 20
-10.19956000000002
 30
0.0
  0
SEQEND
  5
102B1
  8
0
  0
POLYLINE
  5
102
  8
0
 66
     1
 10
0.0
 20
0.0
 30
0.0
 70
     1
  0
VERTEX
  5
1004F
  8
0
 10
390.00024
 20
-279.5379
 30
0.0
  0
VERTEX
  5
10050
  8
0
 10
390.0005
 20
-267.0758
 30
0.0
  0
VERTEX
  5
10051
  8
0
 10
414.99998
 20
-266.9798
 30
0.0
  0
VERTEX
  5
10052
  8
0
 10
414.99998
 20
-279.4932
 30
0.0
  0
VERTEX
  5
10053
  8
0
 10
414.99998
 20
-292.0067
 30
0.0
  0
VERTEX
  5
10054
  8
0
 10
408.47691
 20
-291.9967
 30
0.0
  0
VERTEX
  5
10055
  8
0
 10
402.04729
 20
-291.6928
 30
0.0
  0
VERTEX
  5
10056
  8
0
 10
401.6516
 20
-291.3335
 30
0.0
  0
VERTEX
  5
10057
  8
0
 10
401.36361
 20
-291.7979
 30
0.0
  0
VERTEX
  5
10058
  8
0
 10
395.68179
 20
-292.0017
 30
0.0
  0
VERTEX
  5
10059
  8
0
 10
389.99997
 20
-292.0017
 30
0.0
  0
VERTEX
  5
1005A
  8
0
 10
390.00024
 20
-279.5396
 30
0.0
  0
VERTEX
  5
1005B
  8
0
 10
390.00024
 20
-279.5379
 30
0.0
  0
SEQEND
  5
102B2
  8
0
  0
POLYLINE
  5
103
  8
0
 66
     1
 10
0.0
 20
0.0
 30
0.0
 70
     1
  0
VERTEX
  5
1005C
  8
0
 10
402.11919
 20
-289.4205
 30
0.0
  0
VERTEX
  5
1005D
  8
0
 10
402.01939
 20
-288.3379
 30
0.0
  0
VERTEX
  5
1005E
  8
0
 10
402.06669
 20
-287.5303
 30
0.0
  0
VERTEX
  5
1005F
  8
0
 10
402.69203
 20
-287.4843
 30
0.0
  0
VERTEX
  5
10060
  8
0
 10
403.22988
 20
-287.2101
 30
0.0
  0
VERTEX
  5
10061
  8
0
 10
403.4634
 20
-286.8982
 30
0.0
  0
VERTEX
  5
10062
  8
0
 10
402.79402
 20
-286.5457
 30
0.0
  0
VERTEX
  5
10063
  8
0
 10
401.96963
 20
-286.1735
 30
0.0
  0
VERTEX
  5
10064
  8
0
 10
403.21348
 20
-283.7751
 30
0.0
  0
VERTEX
  5
10065
  8
0
 10
403.42846
 20
-283.1326
 30
0.0
  0
VERTEX
  5
10066
  8
0
 10
403.79907
 20
-280.3335
 30
0.0
  0
VERTEX
  5
10067
  8
0
 10
404.11602
 20
-283.7289
 30
0.0
  0
VERTEX
  5
10068
  8
0
 10
404.3347
 20
-287.014
 30
0.0
  0
VERTEX
  5
10069
  8
0
 10
405.103
 20
-287.1236
 30
0.0
  0
VERTEX
  5
1006A
  8
0
 10
405.68175
 20
-287.0756
 30
0.0
  0
VERTEX
  5
1006B
  8
0
 10
405.68775
 20
-285.1059
 30
0.0
  0
VERTEX
  5
1006C
  8
0
 10
406.09801
 20
-280.3133
 30
0.0
  0
VERTEX
  5
1006D
  8
0
 10
406.10801
 20
-279.968
 30
0.0
  0
VERTEX
  5
1006E
  8
0
 10
406.08461
 20
-278.6296
 30
0.0
  0
VERTEX
  5
1006F
  8
0
 10
406.08161
 20
-277.4597
 30
0.0
  0
VERTEX
  5
10070
  8
0
 10
405.97327
 20
-276.0807
 30
0.0
  0
VERTEX
  5
10071
  8
0
 10
406.15816
 20
-275.2574
 30
0.0
  0
VERTEX
  5
10072
  8
0
 10
407.1836
 20
-275.2124
 30
0.0
  0
VERTEX
  5
10073
  8
0
 10
408.42997
 20
-275.3506
 30
0.0
  0
VERTEX
  5
10074
  8
0
 10
408.63849
 20
-277.9715
 30
0.0
  0
VERTEX
  5
10075
  8
0
 10
408.7961
 20
-281.5454
 30
0.0
  0
VERTEX
  5
10076
  8
0
 10
408.863
 20
-284.3484
 30
0.0
  0
VERTEX
  5
10077
  8
0
 10
408.73596
 20
-286.6211
 30
0.0
  0
VERTEX
  5
10078
  8
0
 10
408.71206
 20
-287.2272
 30
0.0
  0
VERTEX
  5
10079
  8
0
 10
409.52407
 20
-287.2732
 30
0.0
  0
VERTEX
  5
1007A
  8
0
 10
410.58468
 20
-287.0947
 30
0.0
  0
VERTEX
  5
1007B
  8
0
 10
410.71433
 20
-285.7875
 30
0.0
  0
VERTEX
  5
1007C
  8
0
 10
410.47779
 20
-282.3945
 30
0.0
  0
VERTEX
  5
1007D
  8
0
 10
411.1464
 20
-280.3926
 30
0.0
  0
VERTEX
  5
1007E
  8
0
 10
411.0605
 20
-279.8784
 30
0.0
  0
VERTEX
  5
1007F
  8
0
 10
410.60596
 20
-279.2177
 30
0.0
  0
VERTEX
  5
10080
  8
0
 10
410.98474
 20
-277.9989
 30
0.0
  0
VERTEX
  5
10081
  8
0
 10
411.36353
 20
-277.2387
 30
0.0
  0
VERTEX
  5
10082
  8
0
 10
411.5908
 20
-276.4927
 30
0.0
  0
VERTEX
  5
10083
  8
0
 10
411.81808
 20
-275.4136
 30
0.0
  0
VERTEX
  5
10084
  8
0
 10
411.51505
 20
-274.8784
 30
0.0
  0
VERTEX
  5
10085
  8
0
 10
411.54155
 20
-274.3935
 30
0.0
  0
VERTEX
  5
10086
  8
0
 10
411.39607
 20
-273.8003
 30
0.0
  0
VERTEX
  5
10087
  8
0
 10
410.62494
 20
-273.6333
 30
0.0
  0
VERTEX
  5
10088
  8
0
 10
409.23294
 20
-273.2842
 30
0.0
  0
VERTEX
  5
10089
  8
0
 10
407.99425
 20
-273.0277
 30
0.0
  0
VERTEX
  5
1008A
  8
0
 10
407.19682
 20
-272.9327
 30
0.0
  0
VERTEX
  5
1008B
  8
0
 10
406.3237
 20
-272.9157
 30
0.0
  0
VERTEX
  5
1008C
  8
0
 10
405.16992
 20
-273.1414
 30
0.0
  0
VERTEX
  5
1008D
  8
0
 10
404.13078
 20
-275.296
 30
0.0
  0
VERTEX
  5
1008E
  8
0
 10
403.88398
 20
-278.1685
 30
0.0
  0
VERTEX
  5
1008F
  8
0
 10
403.41331
 20
-277.5574
 30
0.0
  0
VERTEX
  5
10090
  8
0
 10
401.77343
 20
-276.2392
 30
0.0
  0
VERTEX
  5
10091
  8
0
 10
401.21197
 20
-275.9395
 30
0.0
  0
VERTEX
  5
10092
  8
0
 10
400.36405
 20
-275.9775
 30
0.0
  0
VERTEX
  5
10093
  8
0
 10
400.39535
 20
-281.3458
 30
0.0
  0
VERTEX
  5
10094
  8
0
 10
398.92045
 20
-284.4244
 30
0.0
  0
VERTEX
  5
10095
  8
0
 10
397.64362
 20
-283.5004
 30
0.0
  0
VERTEX
  5
10096
  8
0
 10
397.42409
 20
-281.735
 30
0.0
  0
VERTEX
  5
10097
  8
0
 10
397.2487
 20
-280.2187
 30
0.0
  0
VERTEX
  5
10098
  8
0
 10
397.2397
 20
-279.8429
 30
0.0
  0
VERTEX
  5
10099
  8
0
 10
397.43969
 20
-273.7286
 30
0.0
  0
VERTEX
  5
1009A
  8
0
 10
396.89294
 20
-273.277
 30
0.0
  0
VERTEX
  5
1009B
  8
0
 10
396.27227
 20
-272.709
 30
0.0
  0
VERTEX
  5
1009C
  8
0
 10
395.89952
 20
-272.5011
 30
0.0
  0
VERTEX
  5
1009D
  8
0
 10
394.92402
 20
-272.1362
 30
0.0
  0
VERTEX
  5
1009E
  8
0
 10
394.08552
 20
-271.6972
 30
0.0
  0
VERTEX
  5
1009F
  8
0
 10
394.08252
 20
-276.1669
 30
0.0
  0
VERTEX
  5
100A0
  8
0
 10
394.24669
 20
-278.3197
 30
0.0
  0
VERTEX
  5
100A1
  8
0
 10
394.62209
 20
-279.184
 30
0.0
  0
VERTEX
  5
100A2
  8
0
 10
394.69729
 20
-279.9229
 30
0.0
  0
VERTEX
  5
100A3
  8
0
 10
394.39426
 20
-280.3008
 30
0.0
  0
VERTEX
  5
100A4
  8
0
 10
394.14944
 20
-280.8026
 30
0.0
  0
VERTEX
  5
100A5
  8
0
 10
393.9717
 20
-282.1647
 30
0.0
  0
VERTEX
  5
100A6
  8
0
 10
395.89583
 20
-285.7783
 30
0.0
  0
VERTEX
  5
100A7
  8
0
 10
399.82572
 20
-287.2048
 30
0.0
  0
VERTEX
  5
100A8
  8
0
 10
401.49533
 20
-287.7954
 30
0.0
  0
VERTEX
  5
100A9
  8
0
 10
401.67553
 20
-289.8843
 30
0.0
  0
VERTEX
  5
100AA
  8
0
 10
402.11954
 20
-289.4207
 30
0.0
  0
VERTEX
  5
100AB
  8
0
 10
402.11919
 20
-289.4205
 30
0.0
  0
SEQEND
  5
102B3
  8
0
  0
POLYLINE
  5
10A
  8
0
 66
     1
 10
0.0
 20
0.0
 30
0.0
 70
     1
  0
VERTEX
  5
100AC
  8
0
 10
403.77952
 20
-269.9307
 30
0.0
  0
VERTEX
  5
100AD
  8
0
 10
403.86062
 20
-269.211
 30
0.0
  0
VERTEX
  5
100AE
  8
0
 10
403.36553
 20
-268.4535
 30
0.0
  0
VERTEX
  5
100AF
  8
0
 10
402.04544
 20
-267.4545
 30
0.0
  0
VERTEX
  5
100B0
  8
0
 10
401.51513
 20
-267.7626
 30
0.0
  0
VERTEX
  5
100B1
  8
0
 10
402.53896
 20
-269.9924
 30
0.0
  0
VERTEX
  5
100B2
  8
0
 10
403.77953
 20
-269.9304
 30
0.0
  0
VERTEX
  5
100B3
  8
0
 10
403.77952
 20
-269.9307
 30
0.0
  0
SEQEND
  5
102B4
  8
0
  0
POLYLINE
  5
10B
  8
0
 66
     1
 10
0.0
 20
0.0
 30
0.0
  0
VERTEX
  5
100B4
  8
0
 10
5.0
 20
-287.0
 30
0.0
  0
VERTEX
  5
100B5
  8
0
 10
5.0
 20
-292.0
 30
0.0
  0
VERTEX
  5
100B6
  8
0
 10
10.0
 20
-292.0
 30
0.0
  0
SEQEND
  5
102B5
  8
0
  0
POLYLINE
  5
10046
  8
0
 66
     1
 10
0.0
 20
0.0
 30
0.0
 70
     1
  0
VERTEX
  5
100B7
  8
0
 10
0.0
 20
-297.0
 30
0.0
  0
VERTEX
  5
100B8
  8
0
 10
0.0
 20
0.0
 30
0.0
  0
VERTEX
  5
100B9
  8
0
 10
420.0
 20
0.0
 30
0.0
  0
VERTEX
  5
100BA
  8
0
 10
420.0
 20
-297.0
 30
0.0
  0
SEQEND
  5
102B6
  8
0
  0
INSERT
  5
10048
  8
0
  2
*U0
 10
0.0
 20
0.0
 30
0.0
999
$entities
  0
ENDSEC
  0
EOF
