<?xml version="1.0" encoding="UTF-8" standalone="no"?>
<svg
   xmlns:dc="http://purl.org/dc/elements/1.1/"
   xmlns:cc="http://creativecommons.org/ns#"
   xmlns:rdf="http://www.w3.org/1999/02/22-rdf-syntax-ns#"
   xmlns:svg="http://www.w3.org/2000/svg"
   xmlns="http://www.w3.org/2000/svg"
   xmlns:sodipodi="http://sodipodi.sourceforge.net/DTD/sodipodi-0.dtd"
   xmlns:inkscape="http://www.inkscape.org/namespaces/inkscape"
   xml:space="preserve"
   height="120"
   width="252"
   version="1.1"
   y="0px"
   x="0px"
   enable-background="new 0 0 595.275 311.111"
   viewBox="0 0 252.00001 119.99799"
   id="svg2"
   inkscape:version="0.91 r13725"
   sodipodi:docname="logo.svg"><metadata
     id="metadata10"><rdf:RDF><cc:Work
         rdf:about=""><dc:format>image/svg+xml</dc:format><dc:type
           rdf:resource="http://purl.org/dc/dcmitype/StillImage" /></cc:Work></rdf:RDF></metadata><defs
     id="defs8" /><sodipodi:namedview
     pagecolor="#ffffff"
     bordercolor="#666666"
     borderopacity="1"
     objecttolerance="10"
     gridtolerance="10"
     guidetolerance="10"
     inkscape:pageopacity="0"
     inkscape:pageshadow="2"
     inkscape:window-width="1920"
     inkscape:window-height="1053"
     id="namedview6"
     showgrid="false"
     inkscape:object-paths="true"
     inkscape:snap-nodes="true"
     inkscape:snap-bbox="true"
     inkscape:zoom="3.3559512"
     inkscape:cx="134.4982"
     inkscape:cy="106.79"
     inkscape:window-x="0"
     inkscape:window-y="0"
     inkscape:window-maximized="1"
     inkscape:current-layer="svg2" /><path
     style="color:#000000;text-indent:0;text-transform:none;block-progression:tb;fill:#ffffff;enable-background:accumulate"
     d="M 27.638672 2 C 13.681744 5.9584396 3.453125 18.718109 3.453125 33.951172 C 3.453125 52.367258 18.397881 67.310547 36.814453 67.310547 C 43.824098 67.310547 50.317552 65.12722 55.681641 61.435547 C 53.465121 57.991267 52.15625 53.873298 52.15625 49.488281 C 52.15625 47.212299 52.491332 45.024929 53.134766 42.958984 C 43.092739 35.701795 36.552734 23.893224 36.552734 10.580078 C 36.552734 7.6283961 36.909052 4.767911 37.523438 2 L 27.638672 2 z M 41.361328 2 C 40.692937 4.751355 40.332031 7.623401 40.332031 10.582031 C 40.332031 22.351207 45.939319 32.768585 54.628906 39.371094 C 58.292241 32.305427 65.650359 27.490234 74.148438 27.490234 C 75.175589 27.490234 76.160315 27.615314 77.150391 27.751953 C 76.839594 25.490882 76.693359 23.176016 76.693359 20.830078 C 76.693359 14.174382 77.987649 7.82081 80.330078 2 L 41.361328 2 z M 84.445312 2 C 81.903409 7.7577924 80.482422 14.124452 80.482422 20.830078 C 80.482422 46.599521 101.32265 67.441406 127.09375 67.441406 C 152.86483 67.441406 173.70703 46.597882 173.70703 20.830078 C 173.70703 14.124358 172.28416 7.7578554 169.74219 2 L 84.445312 2 z M 173.8457 2 C 176.19507 7.8197479 177.5 14.173042 177.5 20.830078 C 177.5 34.63604 171.94884 47.171453 162.94141 56.277344 C 169.55866 63.623824 179.15938 68.224609 189.83789 68.224609 C 209.83056 68.224609 226.00586 52.04979 226.00586 32.056641 C 226.00586 19.490922 219.61515 8.4622 209.9043 2 L 173.8457 2 z M 232.5957 29.316406 C 231.61323 29.316406 230.66207 29.426962 229.72266 29.576172 C 229.77456 30.406615 229.78711 31.213207 229.78711 32.056641 C 229.78711 42.675702 225.59813 52.313742 218.82031 59.476562 C 222.15481 63.354184 227.05303 65.808594 232.5957 65.808594 C 242.69164 65.808594 250.875 57.690825 250.875 47.595703 C 250.875 37.499763 242.69098 29.316406 232.5957 29.316406 z M 74.150391 31.271484 L 74.152344 31.273438 C 64.056914 31.273438 55.935547 39.393652 55.935547 49.488281 C 55.935547 59.583731 64.056092 67.765625 74.152344 67.765625 C 81.890567 67.765625 88.458289 62.938548 91.125 56.146484 C 84.616533 49.517761 79.937845 41.060432 77.871094 31.664062 C 76.661639 31.413953 75.434531 31.271484 74.150391 31.271484 z "
     transform="translate(0,-0.00100708)"
     id="path4142" /><g
     transform="scale(0.96379791,1.0375619)"
     style="font-style:normal;font-weight:normal;font-size:35.15320587px;line-height:125%;font-family:'Walkway Oblique Bold';-inkscape-font-specification:'Walkway Oblique Bold';letter-spacing:0px;word-spacing:0px;fill:#ffffff;fill-opacity:1;stroke:none;stroke-width:1px;stroke-linecap:butt;stroke-linejoin:miter;stroke-opacity:1"
     id="text4154"><path
       d="m 4.1106144,95.177595 q 0,-0.562451 0.3866853,-0.949136 0.3866852,-0.386686 0.9491365,-0.386686 0.5272981,0 0.9139834,0.386686 0.4218384,0.386685 0.4218384,0.949136 l 0,9.913205 q 0,0.73822 0.2812257,1.40613 0.2812256,0.66791 0.7733705,1.19521 0.5272981,0.49214 1.195209,0.77337 0.6679109,0.28122 1.4412818,0.28122 0.738217,0 1.406128,-0.28122 0.703064,-0.28123 1.195209,-0.77337 0.492145,-0.5273 0.77337,-1.19521 0.316379,-0.66791 0.316379,-1.40613 l 0,-9.913205 q 0,-0.562451 0.386686,-0.949136 0.386685,-0.386686 0.949136,-0.386686 0.527298,0 0.913983,0.386686 0.421839,0.386685 0.421839,0.949136 l 0,9.913205 q 0,1.30067 -0.527298,2.46072 -0.492145,1.16006 -1.370975,2.03889 -0.843677,0.84368 -2.003733,1.33582 -1.160056,0.49215 -2.460724,0.49215 -1.3358222,0 -2.495878,-0.49215 -1.1249025,-0.49214 -2.0037327,-1.33582 -0.8788301,-0.87883 -1.370975,-2.03889 -0.4921449,-1.16005 -0.4921449,-2.46072 l 0,-9.913205 z"
       style="font-style:normal;font-variant:normal;font-weight:normal;font-stretch:normal;font-family:Duepuntozero;-inkscape-font-specification:Duepuntozero"
       id="path4137" /><path
       d="m 19.421484,100.02874 q 0,-1.300671 0.492144,-2.460727 0.492145,-1.160056 1.370976,-2.003733 0.87883,-0.87883 2.003732,-1.370975 1.160056,-0.492145 2.495878,-0.492145 1.300668,0 2.460724,0.492145 1.160056,0.492145 2.003733,1.370975 0.87883,0.843677 1.370975,2.003733 0.527298,1.160056 0.527298,2.460727 l 0,9.9132 q 0,0.56245 -0.421838,0.94914 -0.386686,0.38668 -0.913984,0.38668 -0.562451,0 -0.949136,-0.38668 -0.386686,-0.38669 -0.386686,-0.94914 l 0,-9.9132 q 0,-0.73822 -0.316378,-1.406131 -0.281226,-0.667911 -0.773371,-1.160056 -0.492145,-0.527298 -1.195209,-0.808523 -0.667911,-0.281226 -1.406128,-0.281226 -0.773371,0 -1.441282,0.281226 -0.66791,0.281225 -1.195209,0.808523 -0.492144,0.492145 -0.77337,1.160056 -0.281226,0.667911 -0.281226,1.406131 l 0,9.9132 q 0,0.56245 -0.421838,0.94914 -0.386685,0.38668 -0.913984,0.38668 -0.562451,0 -0.949136,-0.38668 -0.386685,-0.38669 -0.386685,-0.94914 l 0,-9.9132 z"
       style="font-style:normal;font-variant:normal;font-weight:normal;font-stretch:normal;font-family:Duepuntozero;-inkscape-font-specification:Duepuntozero"
       id="path4139" /><path
       d="m 34.626893,100.02874 q 0,-1.335824 0.492145,-2.49588 0.527298,-1.160056 1.406128,-2.003733 0.913984,-0.843677 2.074039,-1.335822 1.195209,-0.492145 2.531031,-0.492145 0.246073,0 0.949137,0.10546 0.738217,0.07031 1.617047,0.456992 0.87883,0.386685 1.722507,1.195209 0.878831,0.77337 1.441282,2.179498 0.105459,0.281226 0.105459,0.492145 0,0.562452 -0.386685,0.949137 -0.386685,0.386685 -0.949136,0.386685 -0.421839,0 -0.773371,-0.210919 -0.316379,-0.246072 -0.456992,-0.632758 -0.492144,-1.054596 -1.406128,-1.6522 -0.913983,-0.597605 -2.003733,-0.597605 -0.77337,0 -1.441281,0.281226 -0.667911,0.281225 -1.195209,0.808523 -0.492145,0.492145 -0.77337,1.160056 -0.281226,0.667911 -0.281226,1.406131 l 0,5.06206 q 0,0.73822 0.281226,1.40613 0.316378,0.66791 0.808523,1.19521 0.492145,0.49214 1.160056,0.77337 0.703064,0.28122 1.441281,0.28122 1.124903,0 2.038886,-0.5976 0.913984,-0.59761 1.370975,-1.6522 0.175766,-0.38669 0.492145,-0.59761 0.316379,-0.24607 0.738218,-0.24607 0.562451,0 0.949136,0.42184 0.386685,0.38668 0.386685,0.91398 0,0.24607 -0.105459,0.49215 -0.703064,1.54674 -1.687354,2.35526 -0.98429,0.80853 -1.933426,1.16006 -0.913984,0.35153 -1.581895,0.38668 -0.632757,0.0352 -0.667911,0.0352 -1.300668,0 -2.460724,-0.49215 -1.160056,-0.49214 -2.038886,-1.33582 -0.843677,-0.87883 -1.370975,-2.03889 -0.492145,-1.16005 -0.492145,-2.46072 l 0,-5.06206 z"
       style="font-style:normal;font-variant:normal;font-weight:normal;font-stretch:normal;font-family:Duepuntozero;-inkscape-font-specification:Duepuntozero"
       id="path4141" /><path
       d="m 49.323128,95.177595 q 0,-0.562451 0.386685,-0.949136 0.386686,-0.386686 0.949137,-0.386686 0.456992,0 0.808524,0.316379 0.386685,0.281226 0.492145,0.773371 1.6522,-1.230363 3.866852,-1.230363 0,0 0.597605,0.07031 0.632757,0.03515 1.335822,0.246072 0.738217,0.21092 1.335821,0.632758 0.597605,0.386685 0.597605,1.124903 0,0.597604 -0.386685,0.984289 -0.386686,0.351532 -0.949137,0.351532 -0.456992,0 -0.808524,-0.246072 -0.87883,-0.492145 -1.86312,-0.492145 -0.77337,0 -1.441281,0.281226 -0.632758,0.281225 -1.160056,0.77337 -0.492145,0.456992 -0.77337,1.08975 -0.281226,0.632757 -0.316379,1.370975 l 0,10.053815 q 0,0.56245 -0.386685,0.94914 -0.386686,0.38668 -0.949137,0.38668 -0.527298,0 -0.949137,-0.38668 -0.386685,-0.38669 -0.386685,-0.94914 l 0,-10.159275 0,-4.60507 z"
       style="font-style:normal;font-variant:normal;font-weight:normal;font-stretch:normal;font-family:Duepuntozero;-inkscape-font-specification:Duepuntozero"
       id="path4143" /><path
       d="m 60.236554,100.02874 q 0,-1.300671 0.492145,-2.460727 0.492145,-1.160056 1.370975,-2.003733 0.87883,-0.87883 2.003733,-1.370975 1.160056,-0.492145 2.495878,-0.492145 1.300668,0 2.460724,0.492145 1.160056,0.492145 2.003733,1.370975 0.87883,0.843677 1.370975,2.003733 0.527298,1.160056 0.527298,2.460727 l 0,2.53103 q 0,0.56245 -0.386685,0.94913 -0.386686,0.38669 -0.949137,0.38669 l -8.717995,0 0,1.19521 q 0,0.73822 0.281226,1.40613 0.316378,0.66791 0.808523,1.19521 0.492145,0.49214 1.160056,0.77337 0.703064,0.28122 1.441282,0.28122 1.124902,0 2.003732,-0.56245 0.913984,-0.5976 1.370975,-1.58189 l 0.03515,-0.10546 q 0.140612,-0.38669 0.456991,-0.59761 0.351532,-0.24607 0.773371,-0.24607 0.562451,0 0.949136,0.42184 0.386686,0.38668 0.386686,0.91398 0,0.24607 -0.10546,0.49215 l -0.07031,0.14061 q -0.738218,1.68735 -2.284959,2.74195 -1.546741,1.0546 -3.51532,1.0546 -1.300669,0 -2.460725,-0.49215 -1.160056,-0.49214 -2.038886,-1.33582 -0.843677,-0.87883 -1.370975,-2.03889 -0.492145,-1.16005 -0.492145,-2.46072 l 0,-5.06206 z m 2.671644,1.19521 7.382173,0 0,-1.19521 q 0,-0.73822 -0.316379,-1.406131 -0.281225,-0.667911 -0.77337,-1.160056 -0.492145,-0.527298 -1.195209,-0.808523 -0.667911,-0.281226 -1.406128,-0.281226 -0.773371,0 -1.441282,0.281226 -0.667911,0.281225 -1.195209,0.808523 -0.492145,0.492145 -0.77337,1.160056 -0.281226,0.667911 -0.281226,1.406131 l 0,1.19521 z"
       style="font-style:normal;font-variant:normal;font-weight:normal;font-stretch:normal;font-family:Duepuntozero;-inkscape-font-specification:Duepuntozero"
       id="path4145" /><path
       d="m 75.341443,100.02874 q 0,-1.300671 0.492145,-2.460727 0.492145,-1.160056 1.370975,-2.003733 0.87883,-0.87883 2.003733,-1.370975 1.160056,-0.492145 2.495877,-0.492145 1.300669,0 2.460725,0.492145 1.160056,0.492145 2.003733,1.370975 0.87883,0.843677 1.370975,2.003733 0.527298,1.160056 0.527298,2.460727 l 0,9.9132 q 0,0.56245 -0.421839,0.94914 -0.386685,0.38668 -0.913983,0.38668 -0.492145,0 -0.87883,-0.28122 -0.351532,-0.31638 -0.421839,-0.77337 -1.617047,1.19521 -3.72624,1.19521 -1.300668,0 -2.460724,-0.49215 -1.160056,-0.49214 -2.038886,-1.33582 -0.843677,-0.87883 -1.370975,-2.03889 -0.492145,-1.16005 -0.492145,-2.46072 l 0,-5.06206 z m 2.671644,5.06206 q 0,0.73822 0.281226,1.40613 0.316378,0.66791 0.808523,1.19521 0.492145,0.49214 1.160056,0.77337 0.703064,0.28122 1.441281,0.28122 0.738218,0 1.406129,-0.24607 0.667911,-0.28123 1.160056,-0.73822 0.492144,-0.49214 0.77337,-1.1249 0.316379,-0.63276 0.351532,-1.37097 l 0,-5.23783 q 0,-0.73822 -0.316379,-1.406131 -0.281225,-0.667911 -0.77337,-1.160056 -0.492145,-0.527298 -1.195209,-0.808523 -0.667911,-0.281226 -1.406129,-0.281226 -0.77337,0 -1.441281,0.281226 -0.667911,0.281225 -1.195209,0.808523 -0.492145,0.492145 -0.77337,1.160056 -0.281226,0.667911 -0.281226,1.406131 l 0,5.06206 z"
       style="font-style:normal;font-variant:normal;font-weight:normal;font-stretch:normal;font-family:Duepuntozero;-inkscape-font-specification:Duepuntozero"
       id="path4147" /><path
       d="m 90.65561,89.377316 q 0,-0.562451 0.386685,-0.949136 0.386685,-0.386686 0.949136,-0.386686 0.527298,0 0.913984,0.386686 0.421838,0.386685 0.421838,0.949136 l 0,4.464457 6.819727,0 q 0.56245,0 0.94913,0.386686 0.38669,0.386685 0.38669,0.949136 0,0.527298 -0.38669,0.949137 -0.38668,0.386685 -0.94913,0.386685 l -6.819727,0 0,8.577383 q 0,0.73822 0.281226,1.40613 0.316379,0.66791 0.808524,1.19521 0.492144,0.49214 1.160055,0.77337 0.703064,0.28122 1.441282,0.28122 1.124902,0 2.038886,-0.5976 0.913983,-0.59761 1.370974,-1.6522 0.17577,-0.38669 0.49215,-0.59761 0.31637,-0.24607 0.73821,-0.24607 0.56245,0 0.94914,0.42184 0.38668,0.38668 0.38668,0.91398 0,0.24607 -0.10545,0.49215 -0.70307,1.54674 -1.68736,2.35526 -0.98429,0.80853 -1.933425,1.16006 -0.913983,0.35153 -1.581894,0.38668 -0.632758,0.0352 -0.667911,0.0352 -1.300669,0 -2.460725,-0.49215 -1.160055,-0.49214 -2.038886,-1.33582 -0.843677,-0.87883 -1.370975,-2.03889 -0.492144,-1.16005 -0.492144,-2.46072 l 0,-15.713484 z"
       style="font-style:normal;font-variant:normal;font-weight:normal;font-stretch:normal;font-family:Duepuntozero;-inkscape-font-specification:Duepuntozero"
       id="path4149" /><path
       d="m 104.31537,100.02874 q 0,-1.300671 0.49215,-2.460727 0.49214,-1.160056 1.37097,-2.003733 0.87883,-0.87883 2.00374,-1.370975 1.16005,-0.492145 2.49587,-0.492145 1.30067,0 2.46073,0.492145 1.16005,0.492145 2.00373,1.370975 0.87883,0.843677 1.37098,2.003733 0.52729,1.160056 0.52729,2.460727 l 0,2.53103 q 0,0.56245 -0.38668,0.94913 -0.38669,0.38669 -0.94914,0.38669 l -8.71799,0 0,1.19521 q 0,0.73822 0.28122,1.40613 0.31638,0.66791 0.80853,1.19521 0.49214,0.49214 1.16005,0.77337 0.70307,0.28122 1.44128,0.28122 1.12491,0 2.00374,-0.56245 0.91398,-0.5976 1.37097,-1.58189 l 0.0352,-0.10546 q 0.14062,-0.38669 0.457,-0.59761 0.35153,-0.24607 0.77337,-0.24607 0.56245,0 0.94913,0.42184 0.38669,0.38668 0.38669,0.91398 0,0.24607 -0.10546,0.49215 l -0.0703,0.14061 q -0.73821,1.68735 -2.28496,2.74195 -1.54674,1.0546 -3.51532,1.0546 -1.30066,0 -2.46072,-0.49215 -1.16006,-0.49214 -2.03889,-1.33582 -0.84367,-0.87883 -1.37097,-2.03889 -0.49215,-1.16005 -0.49215,-2.46072 l 0,-5.06206 z m 2.67165,1.19521 7.38217,0 0,-1.19521 q 0,-0.73822 -0.31638,-1.406131 -0.28122,-0.667911 -0.77337,-1.160056 -0.49214,-0.527298 -1.19521,-0.808523 -0.66791,-0.281226 -1.40613,-0.281226 -0.77337,0 -1.44128,0.281226 -0.66791,0.281225 -1.19521,0.808523 -0.49214,0.492145 -0.77337,1.160056 -0.28122,0.667911 -0.28122,1.406131 l 0,1.19521 z"
       style="font-style:normal;font-variant:normal;font-weight:normal;font-stretch:normal;font-family:Duepuntozero;-inkscape-font-specification:Duepuntozero"
       id="path4151" /><path
       d="m 129.47409,88.990631 q 0,-0.562451 0.38668,-0.949137 0.38669,-0.386685 0.94914,-0.386685 0.5273,0 0.91398,0.386685 0.42184,0.386686 0.42184,0.949137 l 0,16.100169 q 0,1.30067 -0.5273,2.46072 -0.49214,1.16006 -1.37097,2.03889 -0.84368,0.84368 -2.00374,1.33582 -1.16005,0.49215 -2.46072,0.49215 -1.33582,0 -2.49588,-0.49215 -1.1249,-0.49214 -2.00373,-1.33582 -0.87883,-0.87883 -1.37097,-2.03889 -0.49215,-1.16005 -0.49215,-2.46072 l 0,-5.06206 q 0,-1.300671 0.49215,-2.460727 0.52729,-1.160056 1.37097,-2.003733 0.87883,-0.87883 2.03889,-1.370975 1.16005,-0.492145 2.46072,-0.492145 1.01944,0 1.93343,0.316379 0.94913,0.316379 1.75766,0.87883 l 0,-5.905738 z m -7.38218,16.100169 q 0,0.73822 0.28123,1.40613 0.28123,0.66791 0.77337,1.19521 0.5273,0.49214 1.19521,0.77337 0.66791,0.28122 1.44128,0.28122 0.73822,0 1.40613,-0.28122 0.70306,-0.28123 1.19521,-0.77337 0.49214,-0.5273 0.77337,-1.19521 0.31638,-0.66791 0.31638,-1.40613 l 0,-5.06206 q 0,-0.73822 -0.28123,-1.406131 -0.28122,-0.667911 -0.80852,-1.160056 -0.49215,-0.527298 -1.16006,-0.808523 -0.66791,-0.281226 -1.44128,-0.281226 -0.73822,0 -1.44128,0.281226 -0.66791,0.281225 -1.16006,0.808523 -0.49214,0.492145 -0.80852,1.160056 -0.28123,0.667911 -0.28123,1.406131 l 0,5.06206 z"
       style="font-style:normal;font-variant:normal;font-weight:normal;font-stretch:normal;font-family:Duepuntozero;-inkscape-font-specification:Duepuntozero"
       id="path4153" /><path
       d="m 134.55701,109.94194 q 0,-0.56245 0.38669,-0.94914 0.38668,-0.38668 0.94914,-0.38668 0.52729,0 0.91398,0.38668 0.42184,0.38669 0.42184,0.94914 0,0.56245 -0.38669,0.94914 -0.38668,0.38668 -0.94913,0.38668 -0.5273,0 -0.94914,-0.38668 -0.38669,-0.38669 -0.38669,-0.94914 z"
       style="font-style:normal;font-variant:normal;font-weight:normal;font-stretch:normal;font-family:Duepuntozero;-inkscape-font-specification:Duepuntozero"
       id="path4155" /><path
       d="m 140.32929,100.02874 q 0,-1.300671 0.49214,-2.460727 0.49215,-1.160056 1.37098,-2.003733 0.87883,-0.87883 2.00373,-1.370975 1.16006,-0.492145 2.49588,-0.492145 1.30067,0 2.46072,0.492145 1.16006,0.492145 2.00374,1.370975 0.87883,0.843677 1.37097,2.003733 0.5273,1.160056 0.5273,2.460727 l 0,9.9132 q 0,0.56245 -0.42184,0.94914 -0.38669,0.38668 -0.91398,0.38668 -0.56245,0 -0.94914,-0.38668 -0.38669,-0.38669 -0.38669,-0.94914 l 0,-9.9132 q 0,-0.73822 -0.31637,-1.406131 -0.28123,-0.667911 -0.77337,-1.160056 -0.49215,-0.527298 -1.19521,-0.808523 -0.66791,-0.281226 -1.40613,-0.281226 -0.77337,0 -1.44128,0.281226 -0.66791,0.281225 -1.19521,0.808523 -0.49215,0.492145 -0.77337,1.160056 -0.28123,0.667911 -0.28123,1.406131 l 0,9.9132 q 0,0.56245 -0.42184,0.94914 -0.38668,0.38668 -0.91398,0.38668 -0.56245,0 -0.94914,-0.38668 -0.38668,-0.38669 -0.38668,-0.94914 l 0,-9.9132 z"
       style="font-style:normal;font-variant:normal;font-weight:normal;font-stretch:normal;font-family:Duepuntozero;-inkscape-font-specification:Duepuntozero"
       id="path4157" /><path
       d="m 155.5347,100.02874 q 0,-1.300671 0.49214,-2.460727 0.49215,-1.160056 1.37098,-2.003733 0.87883,-0.87883 2.00373,-1.370975 1.16005,-0.492145 2.49588,-0.492145 1.30066,0 2.46072,0.492145 1.16006,0.492145 2.00373,1.370975 0.87883,0.843677 1.37098,2.003733 0.5273,1.160056 0.5273,2.460727 l 0,2.53103 q 0,0.56245 -0.38669,0.94913 -0.38668,0.38669 -0.94914,0.38669 l -8.71799,0 0,1.19521 q 0,0.73822 0.28123,1.40613 0.31637,0.66791 0.80852,1.19521 0.49214,0.49214 1.16005,0.77337 0.70307,0.28122 1.44129,0.28122 1.1249,0 2.00373,-0.56245 0.91398,-0.5976 1.37097,-1.58189 l 0.0352,-0.10546 q 0.14061,-0.38669 0.45699,-0.59761 0.35153,-0.24607 0.77337,-0.24607 0.56245,0 0.94914,0.42184 0.38668,0.38668 0.38668,0.91398 0,0.24607 -0.10546,0.49215 l -0.0703,0.14061 q -0.73822,1.68735 -2.28496,2.74195 -1.54674,1.0546 -3.51532,1.0546 -1.30067,0 -2.46073,-0.49215 -1.16005,-0.49214 -2.03888,-1.33582 -0.84368,-0.87883 -1.37098,-2.03889 -0.49214,-1.16005 -0.49214,-2.46072 l 0,-5.06206 z m 2.67164,1.19521 7.38217,0 0,-1.19521 q 0,-0.73822 -0.31638,-1.406131 -0.28122,-0.667911 -0.77337,-1.160056 -0.49214,-0.527298 -1.19521,-0.808523 -0.66791,-0.281226 -1.40612,-0.281226 -0.77337,0 -1.44129,0.281226 -0.66791,0.281225 -1.1952,0.808523 -0.49215,0.492145 -0.77337,1.160056 -0.28123,0.667911 -0.28123,1.406131 l 0,1.19521 z"
       style="font-style:normal;font-variant:normal;font-weight:normal;font-stretch:normal;font-family:Duepuntozero;-inkscape-font-specification:Duepuntozero"
       id="path4159" /><path
       d="m 170.7802,89.377316 q 0,-0.562451 0.38668,-0.949136 0.38669,-0.386686 0.94914,-0.386686 0.5273,0 0.91398,0.386686 0.42184,0.386685 0.42184,0.949136 l 0,4.464457 6.81972,0 q 0.56245,0 0.94914,0.386686 0.38668,0.386685 0.38668,0.949136 0,0.527298 -0.38668,0.949137 -0.38669,0.386685 -0.94914,0.386685 l -6.81972,0 0,8.577383 q 0,0.73822 0.28123,1.40613 0.31638,0.66791 0.80852,1.19521 0.49215,0.49214 1.16006,0.77337 0.70306,0.28122 1.44128,0.28122 1.1249,0 2.03888,-0.5976 0.91399,-0.59761 1.37098,-1.6522 0.17576,-0.38669 0.49214,-0.59761 0.31638,-0.24607 0.73822,-0.24607 0.56245,0 0.94914,0.42184 0.38668,0.38668 0.38668,0.91398 0,0.24607 -0.10546,0.49215 -0.70306,1.54674 -1.68735,2.35526 -0.98429,0.80853 -1.93343,1.16006 -0.91398,0.35153 -1.58189,0.38668 -0.63276,0.0352 -0.66791,0.0352 -1.30067,0 -2.46073,-0.49215 -1.16005,-0.49214 -2.03888,-1.33582 -0.84368,-0.87883 -1.37098,-2.03889 -0.49214,-1.16005 -0.49214,-2.46072 l 0,-15.713484 z"
       style="font-style:normal;font-variant:normal;font-weight:normal;font-stretch:normal;font-family:Duepuntozero;-inkscape-font-specification:Duepuntozero"
       id="path4161" /><path
       d="m 193.77754,100.02874 q 0,-1.335824 0.49214,-2.49588 0.5273,-1.160056 1.40613,-2.003733 0.91399,-0.843677 2.07404,-1.335822 1.19521,-0.492145 2.53103,-0.492145 0.24607,0 0.94914,0.10546 0.73822,0.07031 1.61705,0.456992 0.87883,0.386685 1.7225,1.195209 0.87883,0.77337 1.44129,2.179498 0.10545,0.281226 0.10545,0.492145 0,0.562452 -0.38668,0.949137 -0.38669,0.386685 -0.94914,0.386685 -0.42184,0 -0.77337,-0.210919 -0.31638,-0.246072 -0.45699,-0.632758 -0.49214,-1.054596 -1.40613,-1.6522 -0.91398,-0.597605 -2.00373,-0.597605 -0.77337,0 -1.44128,0.281226 -0.66791,0.281225 -1.19521,0.808523 -0.49215,0.492145 -0.77337,1.160056 -0.28123,0.667911 -0.28123,1.406131 l 0,5.06206 q 0,0.73822 0.28123,1.40613 0.31638,0.66791 0.80852,1.19521 0.49215,0.49214 1.16006,0.77337 0.70306,0.28122 1.44128,0.28122 1.1249,0 2.03889,-0.5976 0.91398,-0.59761 1.37097,-1.6522 0.17577,-0.38669 0.49215,-0.59761 0.31637,-0.24607 0.73821,-0.24607 0.56245,0 0.94914,0.42184 0.38668,0.38668 0.38668,0.91398 0,0.24607 -0.10545,0.49215 -0.70307,1.54674 -1.68736,2.35526 -0.98429,0.80853 -1.93343,1.16006 -0.91398,0.35153 -1.58189,0.38668 -0.63276,0.0352 -0.66791,0.0352 -1.30067,0 -2.46072,-0.49215 -1.16006,-0.49214 -2.03889,-1.33582 -0.84368,-0.87883 -1.37098,-2.03889 -0.49214,-1.16005 -0.49214,-2.46072 l 0,-5.06206 z"
       style="font-style:normal;font-variant:normal;font-weight:normal;font-stretch:normal;font-family:Duepuntozero;-inkscape-font-specification:Duepuntozero"
       id="path4163" /><path
       d="m 208.47377,89.412469 q 0,-0.562451 0.38669,-0.949136 0.38668,-0.386686 0.94913,-0.386686 0.5273,0 0.91399,0.386686 0.42183,0.386685 0.42183,0.949136 l 0,20.529471 q 0,0.56245 -0.38668,0.94914 -0.38669,0.38668 -0.94914,0.38668 -0.5273,0 -0.94913,-0.38668 -0.38669,-0.38669 -0.38669,-0.94914 l 0,-20.529471 z"
       style="font-style:normal;font-variant:normal;font-weight:normal;font-stretch:normal;font-family:Duepuntozero;-inkscape-font-specification:Duepuntozero"
       id="path4165" /><path
       d="m 213.34524,100.02874 q 0,-1.300671 0.49215,-2.460727 0.49214,-1.160056 1.37097,-2.003733 0.87883,-0.87883 2.00374,-1.370975 1.16005,-0.492145 2.49587,-0.492145 1.30067,0 2.46073,0.492145 1.16005,0.492145 2.00373,1.370975 0.87883,0.843677 1.37098,2.003733 0.52729,1.160056 0.52729,2.460727 l 0,5.06206 q 0,1.30067 -0.49214,2.46072 -0.49215,1.16006 -1.37098,2.03889 -0.87883,0.84368 -2.03888,1.33582 -1.16006,0.49215 -2.46073,0.49215 -1.30067,0 -2.46072,-0.49215 -1.16006,-0.49214 -2.03889,-1.33582 -0.84367,-0.87883 -1.37097,-2.03889 -0.49215,-1.16005 -0.49215,-2.46072 l 0,-5.06206 z m 2.67165,5.06206 q 0,0.73822 0.28122,1.40613 0.31638,0.66791 0.80853,1.19521 0.49214,0.49214 1.16005,0.77337 0.70307,0.28122 1.44128,0.28122 0.77337,0 1.44128,-0.28122 0.66792,-0.28123 1.16006,-0.77337 0.5273,-0.5273 0.80852,-1.19521 0.28123,-0.66791 0.28123,-1.40613 l 0,-5.06206 q 0,-0.73822 -0.31638,-1.406131 -0.28122,-0.667911 -0.77337,-1.160056 -0.49214,-0.527298 -1.19521,-0.808523 -0.66791,-0.281226 -1.40613,-0.281226 -0.77337,0 -1.44128,0.281226 -0.66791,0.281225 -1.19521,0.808523 -0.49214,0.492145 -0.77337,1.160056 -0.28122,0.667911 -0.28122,1.406131 l 0,5.06206 z"
       style="font-style:normal;font-variant:normal;font-weight:normal;font-stretch:normal;font-family:Duepuntozero;-inkscape-font-specification:Duepuntozero"
       id="path4167" /><path
       d="m 228.55559,95.177595 q 0,-0.562451 0.38669,-0.949136 0.38668,-0.386686 0.94913,-0.386686 0.5273,0 0.91399,0.386686 0.42183,0.386685 0.42183,0.949136 l 0,9.913205 q 0,0.73822 0.28123,1.40613 0.28123,0.66791 0.77337,1.19521 0.5273,0.49214 1.19521,0.77337 0.66791,0.28122 1.44128,0.28122 0.73822,0 1.40613,-0.28122 0.70306,-0.28123 1.19521,-0.77337 0.49214,-0.5273 0.77337,-1.19521 0.31638,-0.66791 0.31638,-1.40613 l 0,-9.913205 q 0,-0.562451 0.38668,-0.949136 0.38669,-0.386686 0.94914,-0.386686 0.5273,0 0.91398,0.386686 0.42184,0.386685 0.42184,0.949136 l 0,9.913205 q 0,1.30067 -0.5273,2.46072 -0.49214,1.16006 -1.37097,2.03889 -0.84368,0.84368 -2.00373,1.33582 -1.16006,0.49215 -2.46073,0.49215 -1.33582,0 -2.49588,-0.49215 -1.1249,-0.49214 -2.00373,-1.33582 -0.87883,-0.87883 -1.37097,-2.03889 -0.49215,-1.16005 -0.49215,-2.46072 l 0,-9.913205 z"
       style="font-style:normal;font-variant:normal;font-weight:normal;font-stretch:normal;font-family:Duepuntozero;-inkscape-font-specification:Duepuntozero"
       id="path4169" /><path
       d="m 253.81482,88.990631 q 0,-0.562451 0.38668,-0.949137 0.38669,-0.386685 0.94914,-0.386685 0.5273,0 0.91398,0.386685 0.42184,0.386686 0.42184,0.949137 l 0,16.100169 q 0,1.30067 -0.5273,2.46072 -0.49214,1.16006 -1.37097,2.03889 -0.84368,0.84368 -2.00374,1.33582 -1.16005,0.49215 -2.46072,0.49215 -1.33582,0 -2.49588,-0.49215 -1.1249,-0.49214 -2.00373,-1.33582 -0.87883,-0.87883 -1.37098,-2.03889 -0.49214,-1.16005 -0.49214,-2.46072 l 0,-5.06206 q 0,-1.300671 0.49214,-2.460727 0.5273,-1.160056 1.37098,-2.003733 0.87883,-0.87883 2.03888,-1.370975 1.16006,-0.492145 2.46073,-0.492145 1.01944,0 1.93343,0.316379 0.94913,0.316379 1.75766,0.87883 l 0,-5.905738 z m -7.38218,16.100169 q 0,0.73822 0.28123,1.40613 0.28122,0.66791 0.77337,1.19521 0.5273,0.49214 1.19521,0.77337 0.66791,0.28122 1.44128,0.28122 0.73822,0 1.40613,-0.28122 0.70306,-0.28123 1.19521,-0.77337 0.49214,-0.5273 0.77337,-1.19521 0.31638,-0.66791 0.31638,-1.40613 l 0,-5.06206 q 0,-0.73822 -0.28123,-1.406131 -0.28123,-0.667911 -0.80852,-1.160056 -0.49215,-0.527298 -1.16006,-0.808523 -0.66791,-0.281226 -1.44128,-0.281226 -0.73822,0 -1.44128,0.281226 -0.66791,0.281225 -1.16006,0.808523 -0.49214,0.492145 -0.80852,1.160056 -0.28123,0.667911 -0.28123,1.406131 l 0,5.06206 z"
       style="font-style:normal;font-variant:normal;font-weight:normal;font-stretch:normal;font-family:Duepuntozero;-inkscape-font-specification:Duepuntozero"
       id="path4171" /></g></svg>